<svg width="235" height="80" viewBox="0 0 235 80" fill="none" xmlns="http://www.w3.org/2000/svg">
<rect x="7.5" y="5" width="15.7303" height="15.7303" rx="1.09375" fill="#0E0E52"/>
<rect x="25.5899" y="5" width="15.7303" height="15.7303" rx="1.09375" fill="#2713A7"/>
<rect x="43.6798" y="5" width="15.7303" height="15.7303" rx="1.09375" fill="#449DD1"/>
<rect x="61.7697" y="5" width="15.7303" height="15.7303" rx="1.09375" fill="#2713A7"/>
<rect x="7.5" y="23.0898" width="15.7303" height="15.7303" rx="1.09375" fill="#449DD1"/>
<rect x="25.5899" y="23.0898" width="15.7303" height="15.7303" rx="1.09375" fill="#78C0E0"/>
<rect x="43.6798" y="23.0898" width="15.7303" height="15.7303" rx="1.09375" fill="#2713A7"/>
<rect x="61.7697" y="23.0898" width="15.7303" height="15.7303" rx="1.09375" fill="#0E0E52"/>
<rect x="7.5" y="41.1798" width="15.7303" height="15.7303" rx="1.09375" fill="#78C0E0"/>
<rect x="25.5899" y="41.1798" width="15.7303" height="15.7303" rx="1.09375" fill="#0E0E52"/>
<rect x="43.6798" y="41.1798" width="15.7303" height="15.7303" rx="1.09375" fill="#449DD1"/>
<rect x="61.7697" y="41.1798" width="15.7303" height="15.7303" rx="1.09375" fill="#78C0E0"/>
<rect x="7.5" y="59.2697" width="15.7303" height="15.7303" rx="1.09375" fill="#2713A7"/>
<rect x="25.5899" y="59.2697" width="15.7303" height="15.7303" rx="1.09375" fill="#449DD1"/>
<rect x="43.6798" y="59.2697" width="15.7303" height="15.7303" rx="1.09375" fill="#0E0E52"/>
<rect x="61.7697" y="59.2697" width="15.7303" height="15.7303" rx="1.09375" fill="#78C0E0"/>
<path d="M97.1265 52L90.9725 33.3H95.3245L98.8945 44.656C99.0985 45.336 99.2912 46.0387 99.4725 46.764C99.6765 47.4893 99.8238 48.0673 99.9145 48.498C100.028 48.0673 100.175 47.4893 100.356 46.764C100.538 46.0387 100.719 45.3473 100.9 44.69L104.402 33.3H108.72L102.6 52H97.1265ZM117.513 52L111.359 33.3H115.711L119.281 44.656C119.485 45.336 119.678 46.0387 119.859 46.764C120.063 47.4893 120.211 48.0673 120.301 48.498C120.415 48.0673 120.562 47.4893 120.743 46.764C120.925 46.0387 121.106 45.3473 121.287 44.69L124.789 33.3H129.107L122.987 52H117.513ZM138.546 52.34C136.619 52.34 135.101 51.83 133.99 50.81C132.879 49.79 132.324 48.4187 132.324 46.696C132.324 44.86 132.936 43.4433 134.16 42.446C135.384 41.4487 137.118 40.95 139.362 40.95H144.02V39.352C144.02 38.4453 143.725 37.7427 143.136 37.244C142.547 36.7227 141.742 36.462 140.722 36.462C139.793 36.462 139.022 36.666 138.41 37.074C137.798 37.482 137.435 38.0373 137.322 38.74H133.174C133.378 36.972 134.171 35.5667 135.554 34.524C136.937 33.4813 138.705 32.96 140.858 32.96C143.147 32.96 144.949 33.538 146.264 34.694C147.601 35.8273 148.27 37.3687 148.27 39.318V52H144.156V48.736H143.476L144.156 47.818C144.156 49.2007 143.646 50.3 142.626 51.116C141.606 51.932 140.246 52.34 138.546 52.34ZM139.94 49.144C141.141 49.144 142.116 48.838 142.864 48.226C143.635 47.614 144.02 46.8207 144.02 45.846V43.568H139.43C138.569 43.568 137.877 43.8173 137.356 44.316C136.835 44.8147 136.574 45.472 136.574 46.288C136.574 47.172 136.869 47.8747 137.458 48.396C138.07 48.8947 138.897 49.144 139.94 49.144ZM163.863 52C162.639 52 161.562 51.7507 160.633 51.252C159.726 50.7533 159.012 50.0507 158.491 49.144C157.969 48.2147 157.709 47.1493 157.709 45.948V31.022H151.725V27.18H161.959V45.948C161.959 46.628 162.151 47.172 162.537 47.58C162.945 47.9653 163.489 48.158 164.169 48.158H169.813V52H163.863ZM181.393 52.34C180.419 52.34 179.637 52.0567 179.047 51.49C178.481 50.9233 178.197 50.1527 178.197 49.178C178.197 48.2033 178.481 47.4327 179.047 46.866C179.637 46.2767 180.419 45.982 181.393 45.982C182.368 45.982 183.139 46.2767 183.705 46.866C184.295 47.4327 184.589 48.2033 184.589 49.178C184.589 50.1527 184.295 50.9233 183.705 51.49C183.139 52.0567 182.368 52.34 181.393 52.34ZM194.198 58.12V33.3H198.346V36.87H199.298L198.346 37.856C198.346 36.3373 198.799 35.1473 199.706 34.286C200.613 33.402 201.837 32.96 203.378 32.96C205.259 32.96 206.767 33.606 207.9 34.898C209.033 36.19 209.6 37.924 209.6 40.1V45.166C209.6 46.6167 209.339 47.886 208.818 48.974C208.319 50.0393 207.605 50.8667 206.676 51.456C205.747 52.0453 204.647 52.34 203.378 52.34C201.837 52.34 200.613 51.9093 199.706 51.048C198.799 50.164 198.346 48.9627 198.346 47.444L199.298 48.43H198.312L198.448 52.884V58.12H194.198ZM201.882 48.668C202.97 48.668 203.82 48.3507 204.432 47.716C205.044 47.0813 205.35 46.1747 205.35 44.996V40.304C205.35 39.1253 205.044 38.2187 204.432 37.584C203.82 36.9493 202.97 36.632 201.882 36.632C200.817 36.632 199.978 36.9607 199.366 37.618C198.754 38.2527 198.448 39.148 198.448 40.304V44.996C198.448 46.152 198.754 47.0587 199.366 47.716C199.978 48.3507 200.817 48.668 201.882 48.668ZM217.611 58.12L220.229 50.98L213.259 33.3H217.917L221.385 42.854C221.566 43.3753 221.747 44.01 221.929 44.758C222.11 45.4833 222.246 46.084 222.337 46.56C222.45 46.084 222.597 45.4833 222.779 44.758C222.96 44.01 223.141 43.3753 223.323 42.854L226.587 33.3H231.075L222.065 58.12H217.611Z" fill="#1E1E1E"/>
</svg>
