<svg width="235" height="80" viewBox="0 0 235 80" fill="none" xmlns="http://www.w3.org/2000/svg">
    <path
        d="M47.8284 80C43.4819 80 40.0906 78.7984 37.6544 76.3951C35.2181 73.9636 34 70.5566 34 66.1742C34 61.4243 35.5088 57.8194 38.5264 55.3596C41.5717 52.8998 45.9736 51.6134 51.7319 51.5003L61.4077 51.3306V48.9981C61.4077 46.0011 60.8955 43.7816 59.8712 42.3396C58.8469 40.8694 57.1719 40.1343 54.8464 40.1343C52.6871 40.1343 51.0952 40.6432 50.0709 41.6611C49.0742 42.6506 48.4513 44.3046 48.2022 46.6231L36.0348 46.0293C37.5575 36.9535 43.9941 32.4156 55.3448 32.4156C61.0201 32.4156 65.3942 33.8434 68.4672 36.6991C71.5402 39.5547 73.0767 43.6119 73.0767 48.8708V65.5805C73.0767 68.1534 73.3535 69.9346 73.9072 70.9242C74.4886 71.8855 75.4437 72.3661 76.7726 72.3661C77.6585 72.3661 78.5167 72.2813 79.3472 72.1117V78.558C77.9076 78.9256 76.6757 79.1942 75.6514 79.3638C74.627 79.5618 73.3674 79.6607 71.8724 79.6607C68.9379 79.6607 66.7646 78.9256 65.3527 77.4554C63.9685 75.9852 63.138 73.8222 62.8611 70.9666H62.612C60.9786 73.9636 58.9299 76.2255 56.466 77.7523C54.0021 79.2508 51.1229 80 47.8284 80ZM61.4077 57.9042L55.4278 57.989C52.6871 58.1304 50.763 58.4273 49.6556 58.8797C48.5205 59.3886 47.6485 60.152 47.0394 61.1698C46.458 62.1877 46.1673 63.5448 46.1673 65.2412C46.1673 67.4183 46.6518 69.044 47.6208 70.1184C48.6174 71.1645 49.9324 71.6876 51.5658 71.6876C53.393 71.6876 55.0679 71.1787 56.5906 70.1608C58.0855 69.143 59.2621 67.7434 60.1203 65.9622C60.9786 64.1527 61.4077 62.2442 61.4077 60.2368V57.9042Z"
        fill="#FEFEFE" />
    <path
        d="M111.657 70.0336C110.106 73.5112 108.127 76.0417 105.718 77.625C103.338 79.2083 100.5 80 97.2054 80C92.4437 80 88.7893 78.5156 86.2424 75.5469C83.6954 72.5499 82.4219 68.1675 82.4219 62.3997V33.2638H94.0909V59.0069C94.0909 63.0217 94.7553 66.047 96.0842 68.0827C97.4131 70.0901 99.4063 71.0938 102.064 71.0938C104.888 71.0938 107.158 69.8639 108.874 67.4041C110.619 64.9161 111.491 61.7353 111.491 57.8618V33.2638H123.16V68.8885C123.16 70.8394 123.187 72.6772 123.243 74.4018C123.298 76.0983 123.381 77.6816 123.492 79.1518H112.363C112.197 77.1161 112.072 75.3349 111.989 73.8081C111.906 72.2813 111.864 71.0231 111.864 70.0336H111.657Z"
        fill="#FEFEFE" />
    <path
        d="M154.722 78.4732C151.898 79.4345 148.617 79.9152 144.88 79.9152C141.447 79.9152 138.803 78.968 136.948 77.0737C135.093 75.1511 134.166 72.253 134.166 68.3796V41.3218H128.477V33.2638H134.747L138.402 22.4916H145.71V33.2638H154.223V41.3218H145.71V65.1564C145.71 67.39 146.126 69.044 146.956 70.1184C147.787 71.1645 149.074 71.6876 150.818 71.6876C151.649 71.6876 152.95 71.4897 154.722 71.0938V78.4732Z"
        fill="#FEFEFE" />
    <path
        d="M171.5 42.4245C173.078 38.9185 175.058 36.3739 177.438 34.7906C179.819 33.2073 182.657 32.4156 185.951 32.4156C190.713 32.4156 194.368 33.9141 196.915 36.9111C199.462 39.9081 200.735 44.2905 200.735 50.0583V79.1518H189.107V53.4511C189.107 49.408 188.443 46.3828 187.114 44.3753C185.785 42.3679 183.778 41.3642 181.093 41.3642C178.269 41.3642 175.985 42.6082 174.241 45.0963C172.524 47.5561 171.666 50.7227 171.666 54.5962V79.1518H159.997V16.2149H171.666V33.3911C171.666 34.4089 171.652 35.4268 171.625 36.4446C171.597 37.4624 171.556 38.4662 171.5 39.4557C171.472 40.4453 171.417 41.4349 171.334 42.4245H171.5Z"
        fill="#FEFEFE" />
    <path
        d="M41.6116 10.3729C42.2806 9.12411 43.0823 8.21111 44.0167 7.63386C44.9626 7.04483 46.1565 6.75031 47.5984 6.75031C49.6286 6.75031 51.1224 7.29222 52.0798 8.37604C53.0487 9.44808 53.5332 11.1504 53.5332 13.4829V26.2237H50.4014V14.1014C50.4014 12.3697 50.1015 11.1209 49.5017 10.3552C48.9134 9.58945 47.9271 9.20657 46.5429 9.20657C45.0779 9.20657 43.9013 9.72492 43.0131 10.7616C42.1364 11.7983 41.6981 13.1943 41.6981 14.9496V26.2237H38.5836V0H41.6981V6.82099C41.6981 7.29222 41.6866 7.7929 41.6635 8.32303C41.6404 8.84137 41.6173 9.29493 41.5943 9.68369C41.5827 10.0607 41.5712 10.2904 41.5597 10.3729H41.6116Z"
        fill="#FEFEFE" />
    <path
        d="M64.7288 26.0823C63.7137 26.3651 62.664 26.5065 61.5797 26.5065C60.3339 26.5065 59.3996 26.1471 58.7767 25.4285C58.1538 24.6981 57.8423 23.6143 57.8423 22.1771V9.41863H55.6795V7.10373H57.9634L58.8805 2.82735H60.9568V7.10373H64.4174V9.41863H60.9568V21.4879C60.9568 22.4068 61.101 23.0547 61.3894 23.4317C61.6893 23.7969 62.2026 23.9795 62.9294 23.9795C63.3215 23.9795 63.9214 23.897 64.7288 23.7321V26.0823Z"
        fill="#FEFEFE" />
    <path
        d="M73.8827 26.0823C72.8676 26.3651 71.8179 26.5065 70.7336 26.5065C69.4878 26.5065 68.5535 26.1471 67.9306 25.4285C67.3077 24.6981 66.9962 23.6143 66.9962 22.1771V9.41863H64.8334V7.10373H67.1173L68.0344 2.82735H70.1107V7.10373H73.5713V9.41863H70.1107V21.4879C70.1107 22.4068 70.2549 23.0547 70.5433 23.4317C70.8432 23.7969 71.3565 23.9795 72.0832 23.9795C72.4754 23.9795 73.0753 23.897 73.8827 23.7321V26.0823Z"
        fill="#FEFEFE" />
    <path
        d="M91.6707 16.5754C91.6707 19.9093 91.094 22.4127 89.9404 24.0855C88.7985 25.7466 87.0797 26.5771 84.7842 26.5771C81.9004 26.5771 79.9625 25.4698 78.9704 23.255H78.8839C78.9301 23.3375 78.9531 24.3388 78.9531 26.2591V33.7339H75.8386V11.009C75.8386 10.0312 75.8271 9.21835 75.804 8.57042C75.7925 7.9107 75.7694 7.42181 75.7348 7.10373H78.7455C78.757 7.15085 78.7744 7.38057 78.7974 7.7929C78.832 8.20522 78.8609 8.65288 78.8839 9.13589C78.907 9.60712 78.9185 9.95465 78.9185 10.1785H78.9878C79.5414 9.00041 80.2739 8.14043 81.1852 7.59852C82.0965 7.04483 83.2962 6.76798 84.7842 6.76798C87.0912 6.76798 88.8158 7.55728 89.9577 9.13589C91.0997 10.7145 91.6707 13.1943 91.6707 16.5754ZM88.4005 16.6461C88.4005 13.9836 88.0487 12.0811 87.345 10.9383C86.6414 9.79561 85.5225 9.22425 83.9883 9.22425C82.2811 9.22425 81.0122 9.83095 80.1816 11.0444C79.3626 12.246 78.9531 14.1957 78.9531 16.8934C78.9531 19.4027 79.3453 21.2523 80.1297 22.4421C80.9141 23.632 82.1888 24.2269 83.9537 24.2269C85.4994 24.2269 86.6241 23.6496 87.3277 22.4951C88.0429 21.3289 88.4005 19.3792 88.4005 16.6461Z"
        fill="#FEFEFE" />
    <path
        d="M108.905 20.9401C108.905 22.7425 108.236 24.1327 106.898 25.1104C105.571 26.0882 103.708 26.5771 101.309 26.5771C98.979 26.5771 97.1795 26.1884 95.9106 25.4109C94.6533 24.6215 93.8343 23.3964 93.4536 21.7353L96.2048 21.1875C96.4701 22.2124 97.018 22.9664 97.8485 23.4494C98.6791 23.9206 99.8326 24.1562 101.309 24.1562C102.889 24.1562 104.043 23.9088 104.77 23.414C105.508 22.9192 105.877 22.1771 105.877 21.1875C105.877 20.4335 105.623 19.8209 105.116 19.3497C104.608 18.8785 103.789 18.4897 102.659 18.1834C101.321 17.8182 100.254 17.5178 99.4577 17.2822C98.6733 17.0466 98.0677 16.8463 97.6409 16.6814C97.2141 16.5047 96.8738 16.3398 96.62 16.1866C95.8587 15.7389 95.2646 15.1911 94.8378 14.5432C94.411 13.8953 94.1976 13.1001 94.1976 12.1576C94.1976 10.4141 94.8032 9.08877 96.0144 8.18166C97.2372 7.26277 99.0136 6.80332 101.344 6.80332C103.408 6.80332 105.046 7.17441 106.258 7.91659C107.48 8.65877 108.253 9.84862 108.576 11.4861L105.773 11.8395C105.6 10.9913 105.133 10.3434 104.372 9.89574C103.622 9.4363 102.613 9.20657 101.344 9.20657C99.9364 9.20657 98.8982 9.42452 98.2292 9.8604C97.5601 10.2963 97.2256 10.956 97.2256 11.8395C97.2256 12.4875 97.416 13.0235 97.7966 13.4476C98.1773 13.8599 98.904 14.2016 99.9768 14.4725C101.419 14.8259 102.791 15.2147 104.095 15.6388C105.398 16.0511 106.333 16.4635 106.898 16.8758C107.555 17.3588 108.051 17.9301 108.386 18.5899C108.732 19.2378 108.905 20.0212 108.905 20.9401Z"
        fill="#FEFEFE" />
    <path
        d="M116.086 7.10373V10.7616H112.712V7.10373H116.086ZM116.086 22.5658V26.2237H112.712V22.5658H116.086Z"
        fill="#FEFEFE" />
    <path d="M128.476 0L121.434 26.5771H118.631L125.742 0H128.476Z" fill="#FEFEFE" />
    <path d="M137.63 0L130.588 26.5771H127.784L134.896 0H137.63Z" fill="#FEFEFE" />
</svg>