<svg width="235" height="80" viewBox="0 0 235 80" fill="none" xmlns="http://www.w3.org/2000/svg">
<path d="M41.1293 10.149C50.1115 37.4537 53.4318 53.5924 53.1058 70.165" stroke="#EAEAEA" stroke-width="8.31952"/>
<path d="M34.3828 57.4286C33.5697 46.0273 32.181 39.7576 27.4618 28.8699" stroke="#EAEAEA" stroke-width="8.31952"/>
<path d="M77.818 46.2721L81.7114 33.466H87.5674L81.1965 51.4202H74.4074L68.0365 33.466H73.9247L77.818 46.2721ZM98.056 51.6776C96.2971 51.6776 94.7097 51.3022 93.294 50.5515C91.8997 49.8007 90.795 48.7282 89.9798 47.3339C89.1862 45.9396 88.7893 44.3093 88.7893 42.4431C88.7893 40.5984 89.1969 38.9788 90.012 37.5845C90.8271 36.1688 91.9426 35.0855 93.3583 34.3347C94.7741 33.584 96.3614 33.2086 98.1204 33.2086C99.8793 33.2086 101.467 33.584 102.882 34.3347C104.298 35.0855 105.414 36.1688 106.229 37.5845C107.044 38.9788 107.451 40.5984 107.451 42.4431C107.451 44.2879 107.033 45.9181 106.197 47.3339C105.381 48.7282 104.255 49.8007 102.818 50.5515C101.402 51.3022 99.815 51.6776 98.056 51.6776ZM98.056 46.9156C99.1071 46.9156 99.9973 46.5295 100.727 45.7572C101.477 44.985 101.853 43.8803 101.853 42.4431C101.853 41.0059 101.488 39.9012 100.759 39.129C100.051 38.3568 99.1715 37.9706 98.1204 37.9706C97.0478 37.9706 96.1576 38.3568 95.4498 39.129C94.7419 39.8798 94.388 40.9845 94.388 42.4431C94.388 43.8803 94.7312 44.985 95.4176 45.7572C96.1255 46.5295 97.0049 46.9156 98.056 46.9156ZM115.519 46.8834H123.305V51.4202H109.373V47.0443L116.838 38.0028H109.437V33.466H123.144V37.8419L115.519 46.8834ZM131.835 36.0079C132.35 35.1713 133.09 34.4956 134.055 33.9808C135.02 33.466 136.125 33.2086 137.369 33.2086C138.849 33.2086 140.19 33.584 141.391 34.3347C142.592 35.0855 143.536 36.1581 144.223 37.5524C144.93 38.9466 145.284 40.5662 145.284 42.4109C145.284 44.2557 144.93 45.8859 144.223 47.3017C143.536 48.696 142.592 49.7792 141.391 50.5515C140.19 51.3022 138.849 51.6776 137.369 51.6776C136.104 51.6776 134.999 51.431 134.055 50.9376C133.111 50.4228 132.371 49.7471 131.835 48.9105V51.4202H126.333V27.61H131.835V36.0079ZM139.686 42.4109C139.686 41.0381 139.3 39.9656 138.527 39.1933C137.777 38.3997 136.844 38.0028 135.728 38.0028C134.634 38.0028 133.701 38.3997 132.929 39.1933C132.178 39.987 131.803 41.0703 131.803 42.4431C131.803 43.816 132.178 44.8992 132.929 45.6929C133.701 46.4866 134.634 46.8834 135.728 46.8834C136.822 46.8834 137.755 46.4866 138.527 45.6929C139.3 44.8778 139.686 43.7838 139.686 42.4109ZM153.673 36.4584C154.317 35.4716 155.121 34.6994 156.086 34.1417C157.052 33.5625 158.124 33.2729 159.304 33.2729V39.0968H157.792C156.419 39.0968 155.389 39.3971 154.703 39.9977C154.016 40.5769 153.673 41.6065 153.673 43.0866V51.4202H148.171V33.466H153.673V36.4584ZM160.84 42.4109C160.84 40.5662 161.183 38.9466 161.869 37.5524C162.577 36.1581 163.532 35.0855 164.733 34.3347C165.934 33.584 167.275 33.2086 168.755 33.2086C170.021 33.2086 171.125 33.466 172.069 33.9808C173.034 34.4956 173.775 35.1713 174.289 36.0079V33.466H179.791V51.4202H174.289V48.8783C173.753 49.7149 173.002 50.3906 172.037 50.9054C171.093 51.4202 169.988 51.6776 168.723 51.6776C167.264 51.6776 165.934 51.3022 164.733 50.5515C163.532 49.7792 162.577 48.696 161.869 47.3017C161.183 45.8859 160.84 44.2557 160.84 42.4109ZM174.289 42.4431C174.289 41.0703 173.903 39.987 173.131 39.1933C172.38 38.3997 171.458 38.0028 170.364 38.0028C169.27 38.0028 168.337 38.3997 167.565 39.1933C166.814 39.9656 166.438 41.0381 166.438 42.4109C166.438 43.7838 166.814 44.8778 167.565 45.6929C168.337 46.4866 169.27 46.8834 170.364 46.8834C171.458 46.8834 172.38 46.4866 173.131 45.6929C173.903 44.8992 174.289 43.816 174.289 42.4431ZM191.848 46.2721L195.741 33.466H201.598L195.227 51.4202H188.438L182.067 33.466H187.955L191.848 46.2721ZM202.819 42.4109C202.819 40.5662 203.163 38.9466 203.849 37.5524C204.557 36.1581 205.512 35.0855 206.713 34.3347C207.914 33.584 209.255 33.2086 210.735 33.2086C212 33.2086 213.105 33.466 214.049 33.9808C215.014 34.4956 215.754 35.1713 216.269 36.0079V33.466H221.771V51.4202H216.269V48.8783C215.733 49.7149 214.982 50.3906 214.017 50.9054C213.073 51.4202 211.968 51.6776 210.703 51.6776C209.244 51.6776 207.914 51.3022 206.713 50.5515C205.512 49.7792 204.557 48.696 203.849 47.3017C203.163 45.8859 202.819 44.2557 202.819 42.4109ZM216.269 42.4431C216.269 41.0703 215.883 39.987 215.111 39.1933C214.36 38.3997 213.438 38.0028 212.344 38.0028C211.25 38.0028 210.316 38.3997 209.544 39.1933C208.793 39.9656 208.418 41.0381 208.418 42.4109C208.418 43.7838 208.793 44.8778 209.544 45.6929C210.316 46.4866 211.25 46.8834 212.344 46.8834C213.438 46.8834 214.36 46.4866 215.111 45.6929C215.883 44.8992 216.269 43.816 216.269 42.4431Z" fill="#EAEAEA"/>
</svg>
