<svg width="235" height="80" viewBox="0 0 235 80" fill="none" xmlns="http://www.w3.org/2000/svg">
    <g clip-path="url(#clip0_2_15)">
        <path
            d="M3.14062 38.5938C2.375 38.5938 1.99219 38.1328 1.99219 37.2109V35.2891C1.99219 34.3672 2.375 33.9062 3.14062 33.9062C3.96875 33.9062 4.84375 33.5078 5.76562 32.7109C6.6875 31.8984 7.14844 30.0547 7.14844 27.1797V20.5C7.14844 17.8906 7.75 16.1484 8.95312 15.2734C10.1562 14.3828 12.7422 13.9375 16.7109 13.9375C17.6484 13.9375 18.1172 14.3281 18.1172 15.1094V17.4531C18.1172 18.2344 17.6484 18.625 16.7109 18.625C15.1953 18.625 14.3125 18.9922 14.0625 19.7266C13.8281 20.4609 13.7109 21.3203 13.7109 22.3047V28.2812C13.7109 30.8438 13.1875 32.7109 12.1406 33.8828C11.0938 35.0547 9.73438 35.8359 8.0625 36.2266V36.2734C9.73438 36.6641 11.0938 37.4453 12.1406 38.6172C13.1875 39.7891 13.7109 41.6562 13.7109 44.2188V50.1953C13.7109 51.1797 13.8281 52.0391 14.0625 52.7734C14.3125 53.5078 15.1953 53.875 16.7109 53.875C17.6484 53.875 18.1172 54.2656 18.1172 55.0469V57.3906C18.1172 58.1719 17.6484 58.5625 16.7109 58.5625C12.7422 58.5625 10.1562 58.1172 8.95312 57.2266C7.75 56.3516 7.14844 54.6094 7.14844 52V45.3203C7.14844 42.4453 6.6875 40.6094 5.76562 39.8125C4.84375 39 3.96875 38.5938 3.14062 38.5938Z"
            fill="#FFD343" />
        <rect x="24" y="20" width="14" height="14" rx="1" fill="#3776AB" />
        <rect x="24" y="38" width="14" height="14" rx="1" fill="#3776AB" />
        <path
            d="M76.8594 40.4062C77.625 40.4062 78.0078 40.8672 78.0078 41.7891V43.7109C78.0078 44.6328 77.625 45.0938 76.8594 45.0938C76.0312 45.0938 75.1562 45.4922 74.2344 46.2891C73.3125 47.1016 72.8516 48.9453 72.8516 51.8203V58.5C72.8516 61.1094 72.25 62.8516 71.0469 63.7266C69.8438 64.6172 67.2578 65.0625 63.2891 65.0625C62.3516 65.0625 61.8828 64.6719 61.8828 63.8906V61.5469C61.8828 60.7656 62.3516 60.375 63.2891 60.375C64.8047 60.375 65.6875 60.0078 65.9375 59.2734C66.1719 58.5391 66.2891 57.6797 66.2891 56.6953V50.7188C66.2891 48.1562 66.8125 46.2891 67.8594 45.1172C68.9062 43.9453 70.2656 43.1641 71.9375 42.7734V42.7266C70.2656 42.3359 68.9062 41.5547 67.8594 40.3828C66.8125 39.2109 66.2891 37.3438 66.2891 34.7812V28.8047C66.2891 27.8203 66.1719 26.9609 65.9375 26.2266C65.6875 25.4922 64.8047 25.125 63.2891 25.125C62.3516 25.125 61.8828 24.7344 61.8828 23.9531V21.6094C61.8828 20.8281 62.3516 20.4375 63.2891 20.4375C67.2578 20.4375 69.8438 20.8828 71.0469 21.7734C72.25 22.6484 72.8516 24.3906 72.8516 27V33.6797C72.8516 36.5547 73.3125 38.3906 74.2344 39.1875C75.1562 40 76.0312 40.4062 76.8594 40.4062Z"
            fill="#FFD343" />
        <rect x="56" y="58" width="14" height="14" rx="1" transform="rotate(-180 56 58)"
            fill="#3776AB" />
        <rect x="56" y="40" width="14" height="14" rx="1" transform="rotate(-180 56 40)"
            fill="#3776AB" />
        <path
            d="M91.5 30.7188C91.1562 29.5 91.4141 28.8906 92.2734 28.8906H96.2344C96.9844 28.8906 97.4531 29.2891 97.6406 30.0859L100.805 43.8203C100.992 44.6172 101.156 45.3828 101.297 46.1172C101.438 46.8516 101.523 47.4531 101.555 47.9219H101.695C101.727 47.4531 101.812 46.8438 101.953 46.0938C102.094 45.3281 102.258 44.5703 102.445 43.8203L105.773 30.0859C105.961 29.2891 106.43 28.8906 107.18 28.8906H111.445C112.195 28.8906 112.664 29.2891 112.852 30.0859L116.18 43.8203C116.367 44.5703 116.531 45.3281 116.672 46.0938C116.812 46.8438 116.898 47.4531 116.93 47.9219H117.07C117.102 47.4531 117.188 46.8516 117.328 46.1172C117.469 45.3828 117.633 44.6172 117.82 43.8203L120.984 30.0859C121.172 29.2891 121.641 28.8906 122.391 28.8906H126.352C127.211 28.8906 127.469 29.5 127.125 30.7188L121.031 51.9297C120.734 52.9766 120.164 53.5 119.32 53.5H115.078C114.188 53.5 113.617 52.9766 113.367 51.9297L109.969 38.0312C109.766 37.2344 109.617 36.5938 109.523 36.1094C109.445 35.625 109.391 35.0859 109.359 34.4922H109.266C109.234 35.0859 109.172 35.625 109.078 36.1094C109 36.5938 108.859 37.2344 108.656 38.0312L105.258 51.9297C105.008 52.9766 104.438 53.5 103.547 53.5H99.3047C98.4609 53.5 97.8906 52.9766 97.5938 51.9297L91.5 30.7188ZM134.588 53.5C133.65 53.5 133.181 53.0312 133.181 52.0938V30.2969C133.181 29.3594 133.65 28.8906 134.588 28.8906H138.291C139.228 28.8906 139.697 29.3594 139.697 30.2969V32.2188H139.791C140.197 31.2188 140.877 30.3359 141.83 29.5703C142.783 28.8047 143.908 28.4219 145.205 28.4219C146.095 28.4219 146.83 28.5312 147.408 28.75C147.955 28.9531 148.166 29.3281 148.041 29.875L147.384 32.6641C147.244 33.2891 146.822 33.4766 146.119 33.2266C145.713 33.0859 145.322 33.0156 144.947 33.0156C143.447 33.0156 142.205 33.9141 141.22 35.7109C140.236 37.5078 139.744 40.125 139.744 43.5625V52.0938C139.744 53.0312 139.275 53.5 138.338 53.5H134.588ZM152.691 41.1953C152.691 37.2422 153.675 34.125 155.644 31.8438C157.628 29.5625 160.425 28.4219 164.034 28.4219C168.222 28.4219 171.331 29.5 173.362 31.6562C175.394 33.8125 176.409 37.2812 176.409 42.0625C176.409 43 175.972 43.4688 175.097 43.4688H159.628C159.878 46.0625 160.519 47.6953 161.55 48.3672C162.581 49.0391 163.777 49.375 165.136 49.375C166.433 49.375 167.425 49.2031 168.112 48.8594C168.8 48.5156 169.378 48.0469 169.847 47.4531C170.378 46.7656 171.034 46.6562 171.816 47.125L174.159 48.5547C175.081 49.1172 175.214 49.7891 174.558 50.5703C173.605 51.7109 172.487 52.5625 171.206 53.125C169.925 53.6875 167.902 53.9688 165.136 53.9688C160.652 53.9688 157.456 52.8281 155.55 50.5469C153.644 48.2656 152.691 45.1484 152.691 41.1953ZM159.652 38.7812H169.847C169.847 37.0938 169.425 35.7188 168.581 34.6562C167.737 33.5781 166.394 33.0391 164.55 33.0391C163.081 33.0391 161.917 33.5547 161.058 34.5859C160.198 35.6016 159.73 37 159.652 38.7812ZM182.606 41.1953C182.606 37.7578 183.348 34.7734 184.833 32.2422C186.333 29.6953 188.919 28.4219 192.591 28.4219C193.997 28.4219 195.2 28.625 196.2 29.0312C197.2 29.4375 198.106 30.3125 198.919 31.6562H199.012L199.106 30.2969C199.169 29.3594 199.591 28.8906 200.372 28.8906H204.075C205.012 28.8906 205.481 29.3594 205.481 30.2969V61.4688C205.481 62.4062 205.012 62.875 204.075 62.875H200.325C199.387 62.875 198.919 62.4062 198.919 61.4688V52.6094C198.919 51.9844 198.95 51.3594 199.012 50.7344H198.919C198.106 52.0781 197.2 52.9531 196.2 53.3594C195.2 53.7656 193.997 53.9688 192.591 53.9688C188.919 53.9688 186.333 52.7031 184.833 50.1719C183.348 47.625 182.606 44.6328 182.606 41.1953ZM189.544 41.1953C189.544 43.6953 189.864 45.6875 190.505 47.1719C191.161 48.6406 192.544 49.375 194.653 49.375C195.825 49.375 196.825 48.7188 197.653 47.4062C198.497 46.0781 198.919 44.3594 198.919 42.25V40.1406C198.919 38.0312 198.497 36.3203 197.653 35.0078C196.825 33.6797 195.825 33.0156 194.653 33.0156C192.544 33.0156 191.161 33.7578 190.505 35.2422C189.864 36.7109 189.544 38.6953 189.544 41.1953ZM213.764 51.8594C212.998 51.3125 212.787 50.7266 213.131 50.1016L214.327 47.9219C214.748 47.1406 215.405 47.0469 216.295 47.6406C217.186 48.2344 218.233 48.6719 219.436 48.9531C220.655 49.2344 221.764 49.375 222.764 49.375C223.467 49.375 224.123 49.3047 224.733 49.1641C225.342 49.0234 225.858 48.75 226.28 48.3438C226.702 47.9375 226.912 47.3438 226.912 46.5625C226.912 46.0938 226.787 45.6953 226.537 45.3672C226.287 45.0391 225.967 44.7891 225.577 44.6172C225.186 44.4453 224.772 44.3047 224.334 44.1953C223.756 44.0547 222.92 43.8203 221.827 43.4922C220.748 43.1641 219.709 42.7812 218.709 42.3438C217.881 41.9844 217.069 41.4844 216.272 40.8438C215.491 40.1875 214.912 39.4609 214.537 38.6641C214.178 37.8672 213.998 36.8828 213.998 35.7109C213.998 34.1328 214.452 32.75 215.358 31.5625C216.28 30.375 217.467 29.5547 218.92 29.1016C220.373 28.6484 222.186 28.4219 224.358 28.4219C225.827 28.4219 227.256 28.6328 228.647 29.0547C230.037 29.4766 231.03 29.875 231.623 30.25C232.561 30.8438 232.795 31.4766 232.327 32.1484L230.897 34.2344C230.459 34.8594 229.756 34.9062 228.787 34.375C228.053 33.9688 227.327 33.6406 226.608 33.3906C225.905 33.1406 225.116 33.0156 224.241 33.0156C223.647 33.0156 223.077 33.0781 222.53 33.2031C221.983 33.3281 221.514 33.5625 221.123 33.9062C220.748 34.25 220.561 34.7031 220.561 35.2656C220.561 35.8594 220.733 36.3281 221.077 36.6719C221.436 37 221.842 37.2422 222.295 37.3984C222.764 37.5547 223.209 37.7031 223.631 37.8438C224.506 38.125 225.389 38.3984 226.28 38.6641C227.17 38.9141 228.077 39.2188 228.998 39.5781C229.795 39.8906 230.569 40.3359 231.319 40.9141C232.069 41.4922 232.616 42.2266 232.959 43.1172C233.303 44.0078 233.475 45.0234 233.475 46.1641C233.475 47.6797 233.022 49.0859 232.116 50.3828C231.209 51.6797 230.014 52.6016 228.53 53.1484C227.045 53.6953 225.319 53.9688 223.35 53.9688C221.147 53.9688 219.272 53.8125 217.725 53.5C216.178 53.1875 214.858 52.6406 213.764 51.8594Z"
            fill="#FEFEFE" />
    </g>
    <defs>
        <clipPath id="clip0_2_15">
            <rect width="235" height="80" fill="white" />
        </clipPath>
    </defs>
</svg>