<svg width="235" height="80" viewBox="0 0 235 80" fill="none" xmlns="http://www.w3.org/2000/svg">
<g clip-path="url(#clip0_293_29)">
<path d="M18.3282 51.8L15.9718 23.5236H26.1336L26.5018 40.7545H26.7227L33.2027 23.5236H43.07L43.9536 40.6073H44.1746L50.1391 23.5236H60.3009L48.5191 51.8H37.5473L36.0746 36.6309H35.78L29.3 51.8H18.3282ZM71.5673 35.8945L68.9164 51.8H58.7546L65.0136 14.0982H74.8073L72.3773 28.8991H72.6718C73.5923 27.095 74.8809 25.6898 76.5377 24.6834C78.1946 23.6648 80.0723 23.1555 82.1709 23.1555C84.1591 23.1555 85.8159 23.6095 87.1414 24.5177C88.4668 25.4259 89.4057 26.6777 89.958 28.2732C90.5102 29.8686 90.6146 31.6973 90.2709 33.7591L87.2518 51.8H77.09L79.7409 35.8945C79.9618 34.4955 79.7839 33.397 79.2071 32.5993C78.6425 31.8016 77.7159 31.4027 76.4273 31.4027C75.5927 31.4027 74.8318 31.5868 74.1446 31.955C73.4696 32.3109 72.905 32.8264 72.4509 33.5014C72.0091 34.1641 71.7146 34.9618 71.5673 35.8945ZM92.1947 51.8L96.9074 23.5236H107.069L102.356 51.8H92.1947ZM102.43 20.5782C101.056 20.5782 99.9449 20.1241 99.0981 19.2159C98.2513 18.2955 97.9383 17.2032 98.1592 15.9391C98.3801 14.6505 99.0551 13.5582 100.184 12.6623C101.313 11.7541 102.565 11.3 103.94 11.3C105.326 11.3 106.431 11.7541 107.253 12.6623C108.076 13.5582 108.382 14.6505 108.174 15.9391C107.977 17.2032 107.315 18.2955 106.186 19.2159C105.069 20.1241 103.817 20.5782 102.43 20.5782ZM107.902 51.8L108.786 46.2036L123.587 31.4027L123.66 31.2555H111.731L113.057 23.5236H136.989L136.031 29.7091L122.409 43.9209L122.335 44.0682H134.043L132.791 51.8H107.902ZM160.051 23.5236L158.799 30.8873H139.874L141.126 23.5236H160.051ZM139.985 51.8L144.845 22.7136C145.225 20.3818 145.955 18.4489 147.035 16.9148C148.128 15.3807 149.496 14.2332 151.141 13.4723C152.797 12.7114 154.651 12.3309 156.7 12.3309C158.001 12.3309 159.247 12.4291 160.437 12.6255C161.628 12.8218 162.493 12.9936 163.033 13.1409L160.382 20.4309C160.026 20.3205 159.615 20.2345 159.149 20.1732C158.682 20.0995 158.259 20.0627 157.878 20.0627C156.933 20.0627 156.258 20.2652 155.853 20.6702C155.461 21.0752 155.203 21.6091 155.08 22.2718L150.146 51.8H139.985ZM159.222 51.8L163.935 23.5236H174.097L169.384 51.8H159.222ZM169.458 20.5782C168.083 20.5782 166.972 20.1241 166.126 19.2159C165.279 18.2955 164.966 17.2032 165.187 15.9391C165.408 14.6505 166.083 13.5582 167.212 12.6623C168.341 11.7541 169.593 11.3 170.967 11.3C172.354 11.3 173.459 11.7541 174.281 12.6623C175.103 13.5582 175.41 14.6505 175.201 15.9391C175.005 17.2032 174.342 18.2955 173.213 19.2159C172.096 20.1241 170.844 20.5782 169.458 20.5782ZM190.982 14.0982L184.723 51.8H174.562L180.821 14.0982H190.982ZM203.376 52.3155C200.357 52.3155 197.854 51.7386 195.865 50.585C193.877 49.4191 192.478 47.75 191.668 45.5777C190.858 43.3932 190.711 40.7791 191.226 37.7355C191.717 34.8145 192.73 32.2618 194.264 30.0773C195.81 27.8927 197.755 26.193 200.1 24.978C202.456 23.763 205.095 23.1555 208.015 23.1555C210.151 23.1555 212.023 23.4868 213.63 24.1495C215.25 24.8123 216.57 25.7757 217.588 27.0398C218.607 28.3039 219.294 29.8318 219.65 31.6236C220.018 33.4032 220.018 35.4159 219.65 37.6618L219.282 40.0182H194.025L194.908 34.4218H210.814C210.936 33.6118 210.857 32.9 210.574 32.2864C210.304 31.6605 209.869 31.1757 209.267 30.832C208.678 30.4761 207.966 30.2982 207.132 30.2982C206.297 30.2982 205.512 30.4761 204.775 30.832C204.051 31.188 203.432 31.685 202.916 32.3232C202.413 32.9614 202.075 33.71 201.904 34.5691L200.799 40.46C200.652 41.3682 200.707 42.1782 200.965 42.89C201.223 43.6018 201.67 44.1602 202.309 44.5652C202.947 44.9702 203.769 45.1727 204.775 45.1727C205.463 45.1727 206.113 45.0807 206.727 44.8966C207.353 44.7002 207.905 44.418 208.384 44.0498C208.875 43.6693 209.267 43.2091 209.562 42.6691H218.84C218.177 44.6327 217.128 46.3386 215.692 47.7868C214.268 49.2227 212.513 50.3395 210.427 51.1373C208.353 51.9227 206.003 52.3155 203.376 52.3155Z" fill="#4539CD"/>
<path d="M219.74 57.06H18.6974L19.3115 64.26H195.26L190.94 67.14L194.54 72.9L219.74 57.06Z" fill="#4539CD"/>
</g>
<defs>
<clipPath id="clip0_293_29">
<rect width="208.8" height="64.8" fill="white" transform="translate(13.1 8.10001)"/>
</clipPath>
</defs>
</svg>
