<svg width="235" height="80" viewBox="0 0 235 80" fill="none" xmlns="http://www.w3.org/2000/svg">
    <rect width="235" height="80" rx="6" fill="#4539CD" />
    <g clip-path="url(#clip0_291_45)">
        <path
            d="M43.1211 49.1L41.3539 27.8927H48.9752L49.2514 40.8159H49.417L54.277 27.8927H61.6775L62.3402 40.7055H62.5059L66.9793 27.8927H74.6007L65.7643 49.1H57.5355L56.4309 37.7232H56.21L51.35 49.1H43.1211ZM83.0505 37.1709L81.0623 49.1H73.4409L78.1352 20.8236H85.4805L83.658 31.9243H83.8789C84.5692 30.5712 85.5357 29.5173 86.7783 28.7626C88.0209 27.9986 89.4292 27.6166 91.0032 27.6166C92.4943 27.6166 93.7369 27.9572 94.731 28.6383C95.7251 29.3194 96.4293 30.2583 96.8435 31.4549C97.2577 32.6515 97.3359 34.023 97.0782 35.5693L94.8139 49.1H87.1925L89.1807 37.1709C89.3464 36.1216 89.2129 35.2978 88.7803 34.6995C88.3569 34.1012 87.6619 33.802 86.6955 33.802C86.0695 33.802 85.4989 33.9401 84.9834 34.2162C84.4772 34.4832 84.0537 34.8698 83.7132 35.376C83.3818 35.8731 83.1609 36.4714 83.0505 37.1709ZM98.521 49.1L102.056 27.8927H109.677L106.142 49.1H98.521ZM106.198 25.6836C105.167 25.6836 104.334 25.3431 103.699 24.6619C103.063 23.9716 102.829 23.1524 102.994 22.2043C103.16 21.2378 103.666 20.4186 104.513 19.7467C105.36 19.0656 106.299 18.725 107.33 18.725C108.37 18.725 109.198 19.0656 109.815 19.7467C110.432 20.4186 110.662 21.2378 110.505 22.2043C110.358 23.1524 109.861 23.9716 109.014 24.6619C108.177 25.3431 107.238 25.6836 106.198 25.6836ZM110.302 49.1L110.964 44.9027L122.065 33.802L122.12 33.6916H113.173L114.168 27.8927H132.116L131.398 32.5318L121.181 43.1907L121.126 43.3011H129.907L128.968 49.1H110.302ZM149.413 27.8927L148.474 33.4155H134.281L135.22 27.8927H149.413ZM134.363 49.1L138.008 27.2852C138.294 25.5364 138.842 24.0866 139.652 22.9361C140.471 21.7855 141.497 20.9249 142.73 20.3542C143.973 19.7835 145.363 19.4982 146.9 19.4982C147.876 19.4982 148.81 19.5718 149.703 19.7191C150.596 19.8664 151.245 19.9952 151.65 20.1057L149.661 25.5732C149.395 25.4903 149.086 25.4259 148.736 25.3799C148.387 25.3247 148.069 25.297 147.784 25.297C147.075 25.297 146.569 25.4489 146.265 25.7527C145.97 26.0564 145.777 26.4568 145.685 26.9539L141.985 49.1H134.363ZM148.792 49.1L152.326 27.8927H159.948L156.413 49.1H148.792ZM156.468 25.6836C155.437 25.6836 154.604 25.3431 153.969 24.6619C153.334 23.9716 153.099 23.1524 153.265 22.2043C153.431 21.2378 153.937 20.4186 154.784 19.7467C155.631 19.0656 156.569 18.725 157.6 18.725C158.64 18.725 159.469 19.0656 160.086 19.7467C160.702 20.4186 160.932 21.2378 160.776 22.2043C160.629 23.1524 160.132 23.9716 159.285 24.6619C158.447 25.3431 157.508 25.6836 156.468 25.6836ZM172.612 20.8236L167.918 49.1H160.296L164.99 20.8236H172.612ZM181.907 49.4866C179.643 49.4866 177.765 49.054 176.274 48.1887C174.783 47.3143 173.734 46.0625 173.126 44.4333C172.519 42.7949 172.408 40.8343 172.795 38.5516C173.163 36.3609 173.922 34.4464 175.073 32.808C176.233 31.1695 177.692 29.8947 179.45 28.9835C181.217 28.0722 183.196 27.6166 185.387 27.6166C186.988 27.6166 188.392 27.8651 189.598 28.3622C190.813 28.8592 191.802 29.5818 192.566 30.5298C193.33 31.4779 193.846 32.6239 194.112 33.9677C194.389 35.3024 194.389 36.8119 194.112 38.4964L193.836 40.2636H174.893L175.556 36.0664H187.485C187.577 35.4589 187.517 34.925 187.306 34.4648C187.103 33.9953 186.776 33.6318 186.325 33.374C185.884 33.1071 185.35 32.9736 184.724 32.9736C184.098 32.9736 183.509 33.1071 182.957 33.374C182.414 33.641 181.949 34.0137 181.562 34.4924C181.185 34.971 180.932 35.5325 180.803 36.1768L179.974 40.595C179.864 41.2761 179.905 41.8836 180.099 42.4175C180.292 42.9514 180.628 43.3702 181.106 43.6739C181.585 43.9777 182.202 44.1295 182.957 44.1295C183.472 44.1295 183.96 44.0605 184.42 43.9224C184.89 43.7752 185.304 43.5635 185.663 43.2873C186.031 43.002 186.325 42.6568 186.546 42.2518H193.505C193.008 43.7245 192.221 45.004 191.144 46.0901C190.076 47.167 188.76 48.0047 187.195 48.603C185.64 49.192 183.877 49.4866 181.907 49.4866Z"
            fill="white" />
        <path d="M194.18 52.42H43.398L43.8586 57.82H175.82L172.58 59.98L175.28 64.3L194.18 52.42Z"
            fill="white" />
    </g>
    <defs>
        <clipPath id="clip0_291_45">
            <rect width="156.6" height="48.6" fill="white" transform="translate(39.2 15.7)" />
        </clipPath>
    </defs>
</svg>