<svg width="235" height="80" viewBox="0 0 235 80" fill="none" xmlns="http://www.w3.org/2000/svg">
<path d="M9.98209 63.8879L4.35234 30.0688H15.0239L17.7989 48.9004H18.2152L30.7048 25.19H43.2836L45.6625 48.722H46.0491L58.0635 15.0397H69.7779L49.8237 63.8879H38.5574L35.4647 35.1618L21.2187 63.8879H9.98209Z" fill="#111111"/>
<path d="M114.053 21.0795L107.209 46.3705H98.6427L94.6541 29.9631L90.5296 46.3705H82.0086L75.1193 21.0795H82.8698L86.4504 39.1639L90.7109 21.0795H98.9146L103.22 39.0733L106.756 21.0795H114.053ZM140.849 33.3171C140.849 34.0423 140.804 34.7977 140.713 35.5833H123.173C123.294 37.1545 123.792 38.3632 124.668 39.2092C125.575 40.0251 126.678 40.433 127.977 40.433C129.911 40.433 131.255 39.6172 132.011 37.9855H140.26C139.837 39.6474 139.066 41.1431 137.948 42.4726C136.861 43.8021 135.486 44.8446 133.824 45.6C132.162 46.3554 130.304 46.7331 128.249 46.7331C125.771 46.7331 123.565 46.2043 121.632 45.1467C119.698 44.0892 118.187 42.5784 117.099 40.6143C116.011 38.6502 115.468 36.3538 115.468 33.725C115.468 31.0962 115.996 28.7998 117.054 26.8357C118.142 24.8717 119.652 23.3608 121.586 22.3033C123.52 21.2457 125.741 20.7169 128.249 20.7169C130.696 20.7169 132.872 21.2306 134.776 22.258C136.679 23.2853 138.16 24.7508 139.217 26.6544C140.305 28.558 140.849 30.7789 140.849 33.3171ZM132.917 31.2775C132.917 29.948 132.464 28.8904 131.558 28.1048C130.651 27.3192 129.518 26.9264 128.158 26.9264C126.859 26.9264 125.756 27.3041 124.85 28.0595C123.973 28.8149 123.429 29.8875 123.218 31.2775H132.917ZM152.688 24.6601C153.444 23.4817 154.486 22.5299 155.816 21.8047C157.145 21.0795 158.701 20.7169 160.484 20.7169C162.569 20.7169 164.458 21.2457 166.15 22.3033C167.842 23.3608 169.171 24.8717 170.138 26.8357C171.135 28.7998 171.634 31.0811 171.634 33.6797C171.634 36.2783 171.135 38.5747 170.138 40.569C169.171 42.533 167.842 44.0589 166.15 45.1467C164.458 46.2043 162.569 46.7331 160.484 46.7331C158.732 46.7331 157.175 46.3705 155.816 45.6453C154.486 44.9201 153.444 43.9834 152.688 42.8352V58.4267H144.938V21.0795H152.688V24.6601ZM163.747 33.6797C163.747 31.7458 163.204 30.235 162.116 29.1473C161.058 28.0293 159.744 27.4703 158.173 27.4703C156.632 27.4703 155.317 28.0293 154.229 29.1473C153.172 30.2652 152.643 31.7912 152.643 33.725C152.643 35.6588 153.172 37.1848 154.229 38.3028C155.317 39.4208 156.632 39.9798 158.173 39.9798C159.714 39.9798 161.028 39.4208 162.116 38.3028C163.204 37.1545 163.747 35.6135 163.747 33.6797ZM174.159 33.6797C174.159 31.0811 174.642 28.7998 175.609 26.8357C176.606 24.8717 177.951 23.3608 179.643 22.3033C181.335 21.2457 183.224 20.7169 185.309 20.7169C186.971 20.7169 188.481 21.0644 189.841 21.7594C191.231 22.4544 192.319 23.3911 193.105 24.5695V12.8305H200.855V46.3705H193.105V42.7445C192.379 43.9532 191.337 44.9201 189.977 45.6453C188.648 46.3705 187.091 46.7331 185.309 46.7331C183.224 46.7331 181.335 46.2043 179.643 45.1467C177.951 44.0589 176.606 42.533 175.609 40.569C174.642 38.5747 174.159 36.2783 174.159 33.6797ZM193.105 33.725C193.105 31.7912 192.561 30.2652 191.473 29.1473C190.415 28.0293 189.116 27.4703 187.575 27.4703C186.034 27.4703 184.72 28.0293 183.632 29.1473C182.574 30.235 182.045 31.7458 182.045 33.6797C182.045 35.6135 182.574 37.1545 183.632 38.3028C184.72 39.4208 186.034 39.9798 187.575 39.9798C189.116 39.9798 190.415 39.4208 191.473 38.3028C192.561 37.1848 193.105 35.6588 193.105 33.725ZM220.558 39.7985V46.3705H216.615C213.805 46.3705 211.614 45.6906 210.043 44.3309C208.471 42.9409 207.686 40.6898 207.686 37.5776V27.5156H204.604V21.0795H207.686V14.9154H215.436V21.0795H220.513V27.5156H215.436V37.6682C215.436 38.4236 215.618 38.9675 215.98 39.2999C216.343 39.6323 216.947 39.7985 217.793 39.7985H220.558Z" fill="#111111"/>
<path d="M75.61 59.9335C75.61 58.5415 75.89 57.3255 76.45 56.2855C77.026 55.2455 77.818 54.4455 78.826 53.8855C79.85 53.3255 81.018 53.0455 82.33 53.0455C84.01 53.0455 85.41 53.4855 86.53 54.3655C87.666 55.2455 88.41 56.4855 88.7621 58.0855H84.394C84.026 57.0615 83.314 56.5495 82.258 56.5495C81.506 56.5495 80.906 56.8455 80.458 57.4375C80.01 58.0135 79.786 58.8455 79.786 59.9335C79.786 61.0215 80.01 61.8615 80.458 62.4535C80.906 63.0295 81.506 63.3175 82.258 63.3175C83.314 63.3175 84.026 62.8055 84.394 61.7815H88.7621C88.41 63.3495 87.666 64.5815 86.53 65.4775C85.394 66.3735 83.9941 66.8215 82.33 66.8215C81.018 66.8215 79.85 66.5415 78.826 65.9815C77.818 65.4215 77.026 64.6215 76.45 63.5815C75.89 62.5415 75.61 61.3255 75.61 59.9335ZM95.0613 55.4695C95.5413 54.7335 96.1413 54.1575 96.8613 53.7415C97.5813 53.3095 98.3813 53.0935 99.2613 53.0935V57.4375H98.1333C97.1093 57.4375 96.3413 57.6615 95.8293 58.1095C95.3173 58.5415 95.0613 59.3095 95.0613 60.4135V66.6295H90.9573V53.2375H95.0613V55.4695ZM107.319 66.8215C106.007 66.8215 104.823 66.5415 103.767 65.9815C102.727 65.4215 101.903 64.6215 101.295 63.5815C100.703 62.5415 100.407 61.3255 100.407 59.9335C100.407 58.5575 100.711 57.3495 101.319 56.3095C101.927 55.2535 102.759 54.4455 103.815 53.8855C104.871 53.3255 106.055 53.0455 107.367 53.0455C108.679 53.0455 109.863 53.3255 110.919 53.8855C111.975 54.4455 112.807 55.2535 113.415 56.3095C114.023 57.3495 114.327 58.5575 114.327 59.9335C114.327 61.3095 114.015 62.5255 113.391 63.5815C112.783 64.6215 111.943 65.4215 110.871 65.9815C109.815 66.5415 108.631 66.8215 107.319 66.8215ZM107.319 63.2695C108.103 63.2695 108.767 62.9815 109.311 62.4055C109.871 61.8295 110.151 61.0055 110.151 59.9335C110.151 58.8615 109.879 58.0375 109.335 57.4615C108.807 56.8855 108.151 56.5975 107.367 56.5975C106.567 56.5975 105.903 56.8855 105.375 57.4615C104.847 58.0215 104.583 58.8455 104.583 59.9335C104.583 61.0055 104.839 61.8295 105.351 62.4055C105.879 62.9815 106.535 63.2695 107.319 63.2695ZM124.664 53.0935C126.232 53.0935 127.48 53.6055 128.408 54.6295C129.352 55.6375 129.824 57.0295 129.824 58.8055V66.6295H125.744V59.3575C125.744 58.4615 125.512 57.7655 125.048 57.2695C124.584 56.7735 123.96 56.5255 123.176 56.5255C122.392 56.5255 121.768 56.7735 121.304 57.2695C120.84 57.7655 120.608 58.4615 120.608 59.3575V66.6295H116.504V53.2375H120.608V55.0135C121.024 54.4215 121.584 53.9575 122.288 53.6215C122.992 53.2695 123.784 53.0935 124.664 53.0935Z" fill="#111111"/>
</svg>
