<svg width="235" height="80" viewBox="0 0 235 80" fill="none" xmlns="http://www.w3.org/2000/svg">
<path d="M9.98209 63.8879L4.35234 30.0688H15.0239L17.7989 48.9004H18.2152L30.7048 25.19H43.2836L45.6625 48.722H46.0491L58.0635 15.0397H69.7779L49.8237 63.8879H38.5574L35.4647 35.1618L21.2187 63.8879H9.98209Z" fill="#111111"/>
<path d="M114.053 21.0795L107.209 46.3705H98.6427L94.6541 29.9631L90.5296 46.3705H82.0086L75.1193 21.0795H82.8698L86.4504 39.1639L90.7109 21.0795H98.9146L103.22 39.0733L106.756 21.0795H114.053ZM140.849 33.3171C140.849 34.0423 140.804 34.7977 140.713 35.5833H123.173C123.294 37.1545 123.792 38.3632 124.668 39.2092C125.575 40.0251 126.678 40.433 127.977 40.433C129.911 40.433 131.255 39.6172 132.011 37.9855H140.26C139.837 39.6474 139.066 41.1431 137.948 42.4726C136.861 43.8021 135.486 44.8446 133.824 45.6C132.162 46.3554 130.304 46.7331 128.249 46.7331C125.771 46.7331 123.565 46.2043 121.632 45.1467C119.698 44.0892 118.187 42.5784 117.099 40.6143C116.011 38.6502 115.468 36.3538 115.468 33.725C115.468 31.0962 115.996 28.7998 117.054 26.8357C118.142 24.8717 119.652 23.3608 121.586 22.3033C123.52 21.2457 125.741 20.7169 128.249 20.7169C130.696 20.7169 132.872 21.2306 134.776 22.258C136.679 23.2853 138.16 24.7508 139.217 26.6544C140.305 28.558 140.849 30.7789 140.849 33.3171ZM132.917 31.2775C132.917 29.948 132.464 28.8904 131.558 28.1048C130.651 27.3192 129.518 26.9264 128.158 26.9264C126.859 26.9264 125.756 27.3041 124.85 28.0595C123.973 28.8149 123.429 29.8875 123.218 31.2775H132.917ZM152.688 24.6601C153.444 23.4817 154.486 22.5299 155.816 21.8047C157.145 21.0795 158.701 20.7169 160.484 20.7169C162.569 20.7169 164.458 21.2457 166.15 22.3033C167.842 23.3608 169.171 24.8717 170.138 26.8357C171.135 28.7998 171.634 31.0811 171.634 33.6797C171.634 36.2783 171.135 38.5747 170.138 40.569C169.171 42.533 167.842 44.0589 166.15 45.1467C164.458 46.2043 162.569 46.7331 160.484 46.7331C158.732 46.7331 157.175 46.3705 155.816 45.6453C154.486 44.9201 153.444 43.9834 152.688 42.8352V58.4267H144.938V21.0795H152.688V24.6601ZM163.747 33.6797C163.747 31.7458 163.204 30.235 162.116 29.1473C161.058 28.0293 159.744 27.4703 158.173 27.4703C156.632 27.4703 155.317 28.0293 154.229 29.1473C153.172 30.2652 152.643 31.7912 152.643 33.725C152.643 35.6588 153.172 37.1848 154.229 38.3028C155.317 39.4208 156.632 39.9798 158.173 39.9798C159.714 39.9798 161.028 39.4208 162.116 38.3028C163.204 37.1545 163.747 35.6135 163.747 33.6797ZM174.159 33.6797C174.159 31.0811 174.642 28.7998 175.609 26.8357C176.606 24.8717 177.951 23.3608 179.643 22.3033C181.335 21.2457 183.224 20.7169 185.309 20.7169C186.971 20.7169 188.481 21.0644 189.841 21.7594C191.231 22.4544 192.319 23.3911 193.105 24.5695V12.8305H200.855V46.3705H193.105V42.7445C192.379 43.9532 191.337 44.9201 189.977 45.6453C188.648 46.3705 187.091 46.7331 185.309 46.7331C183.224 46.7331 181.335 46.2043 179.643 45.1467C177.951 44.0589 176.606 42.533 175.609 40.569C174.642 38.5747 174.159 36.2783 174.159 33.6797ZM193.105 33.725C193.105 31.7912 192.561 30.2652 191.473 29.1473C190.415 28.0293 189.116 27.4703 187.575 27.4703C186.034 27.4703 184.72 28.0293 183.632 29.1473C182.574 30.235 182.045 31.7458 182.045 33.6797C182.045 35.6135 182.574 37.1545 183.632 38.3028C184.72 39.4208 186.034 39.9798 187.575 39.9798C189.116 39.9798 190.415 39.4208 191.473 38.3028C192.561 37.1848 193.105 35.6588 193.105 33.725ZM220.558 39.7985V46.3705H216.615C213.805 46.3705 211.614 45.6906 210.043 44.3309C208.471 42.9409 207.686 40.6898 207.686 37.5776V27.5156H204.604V21.0795H207.686V14.9154H215.436V21.0795H220.513V27.5156H215.436V37.6682C215.436 38.4236 215.618 38.9675 215.98 39.2999C216.343 39.6323 216.947 39.7985 217.793 39.7985H220.558Z" fill="#111111"/>
<path d="M75.61 59.9095C75.61 58.5335 75.866 57.3255 76.378 56.2855C76.906 55.2455 77.618 54.4455 78.514 53.8855C79.41 53.3255 80.41 53.0455 81.514 53.0455C82.394 53.0455 83.194 53.2295 83.914 53.5975C84.65 53.9655 85.226 54.4615 85.642 55.0855V48.8695H89.7461V66.6295H85.642V64.7095C85.258 65.3495 84.706 65.8615 83.986 66.2455C83.282 66.6295 82.458 66.8215 81.514 66.8215C80.41 66.8215 79.41 66.5415 78.514 65.9815C77.618 65.4055 76.906 64.5975 76.378 63.5575C75.866 62.5015 75.61 61.2855 75.61 59.9095ZM85.642 59.9335C85.642 58.9095 85.354 58.1015 84.778 57.5095C84.2181 56.9175 83.53 56.6215 82.714 56.6215C81.898 56.6215 81.202 56.9175 80.626 57.5095C80.066 58.0855 79.786 58.8855 79.786 59.9095C79.786 60.9335 80.066 61.7495 80.626 62.3575C81.202 62.9495 81.898 63.2455 82.714 63.2455C83.53 63.2455 84.2181 62.9495 84.778 62.3575C85.354 61.7655 85.642 60.9575 85.642 59.9335ZM91.8991 59.9095C91.8991 58.5335 92.1551 57.3255 92.6671 56.2855C93.1951 55.2455 93.9071 54.4455 94.8031 53.8855C95.6991 53.3255 96.6991 53.0455 97.8031 53.0455C98.7471 53.0455 99.5711 53.2375 100.275 53.6215C100.995 54.0055 101.547 54.5095 101.931 55.1335V53.2375H106.035V66.6295H101.931V64.7335C101.531 65.3575 100.971 65.8615 100.251 66.2455C99.5471 66.6295 98.7231 66.8215 97.7791 66.8215C96.6911 66.8215 95.6991 66.5415 94.8031 65.9815C93.9071 65.4055 93.1951 64.5975 92.6671 63.5575C92.1551 62.5015 91.8991 61.2855 91.8991 59.9095ZM101.931 59.9335C101.931 58.9095 101.643 58.1015 101.067 57.5095C100.507 56.9175 99.8191 56.6215 99.0031 56.6215C98.1871 56.6215 97.4911 56.9175 96.9151 57.5095C96.3551 58.0855 96.0751 58.8855 96.0751 59.9095C96.0751 60.9335 96.3551 61.7495 96.9151 62.3575C97.4911 62.9495 98.1871 63.2455 99.0031 63.2455C99.8191 63.2455 100.507 62.9495 101.067 62.3575C101.643 61.7655 101.931 60.9575 101.931 59.9335ZM116.468 63.1495V66.6295H114.38C112.892 66.6295 111.732 66.2695 110.9 65.5495C110.068 64.8135 109.652 63.6215 109.652 61.9735V56.6455H108.02V53.2375H109.652V49.9735H113.756V53.2375H116.444V56.6455H113.756V62.0215C113.756 62.4215 113.852 62.7095 114.044 62.8855C114.236 63.0615 114.556 63.1495 115.004 63.1495H116.468ZM117.938 59.9095C117.938 58.5335 118.194 57.3255 118.706 56.2855C119.234 55.2455 119.946 54.4455 120.842 53.8855C121.738 53.3255 122.738 53.0455 123.842 53.0455C124.786 53.0455 125.61 53.2375 126.314 53.6215C127.034 54.0055 127.586 54.5095 127.97 55.1335V53.2375H132.074V66.6295H127.97V64.7335C127.57 65.3575 127.01 65.8615 126.29 66.2455C125.586 66.6295 124.762 66.8215 123.818 66.8215C122.73 66.8215 121.738 66.5415 120.842 65.9815C119.946 65.4055 119.234 64.5975 118.706 63.5575C118.194 62.5015 117.938 61.2855 117.938 59.9095ZM127.97 59.9335C127.97 58.9095 127.682 58.1015 127.106 57.5095C126.546 56.9175 125.858 56.6215 125.042 56.6215C124.226 56.6215 123.53 56.9175 122.954 57.5095C122.394 58.0855 122.114 58.8855 122.114 59.9095C122.114 60.9335 122.394 61.7495 122.954 62.3575C123.53 62.9495 124.226 63.2455 125.042 63.2455C125.858 63.2455 126.546 62.9495 127.106 62.3575C127.682 61.7655 127.97 60.9575 127.97 59.9335Z" fill="#111111"/>
</svg>
