<svg width="235" height="80" viewBox="0 0 235 80" fill="none" xmlns="http://www.w3.org/2000/svg">
<path d="M10.3813 63.5298L4.83588 30.2176H15.3475L18.0809 48.7669H18.491L30.7934 25.4119H43.1837L45.527 48.5912H45.9078L57.7421 15.4137H69.2809L49.6258 63.5298H38.5283L35.482 35.2343L21.4494 63.5298H10.3813Z" fill="#EAEAEA"/>
<path d="M113.539 21.0795L106.695 46.3705H98.1283L94.1397 29.9631L90.0152 46.3705H81.4943L74.605 21.0795H82.3554L85.936 39.1639L90.1965 21.0795H98.4002L102.706 39.0733L106.241 21.0795H113.539ZM140.335 33.3171C140.335 34.0423 140.289 34.7977 140.199 35.5833H122.658C122.779 37.1545 123.278 38.3632 124.154 39.2092C125.06 40.0251 126.163 40.433 127.463 40.433C129.396 40.433 130.741 39.6172 131.497 37.9855H139.746C139.323 39.6474 138.552 41.1431 137.434 42.4726C136.346 43.8021 134.971 44.8446 133.309 45.6C131.648 46.3554 129.789 46.7331 127.735 46.7331C125.257 46.7331 123.051 46.2043 121.117 45.1467C119.183 44.0892 117.673 42.5784 116.585 40.6143C115.497 38.6502 114.953 36.3538 114.953 33.725C114.953 31.0962 115.482 28.7998 116.54 26.8357C117.627 24.8717 119.138 23.3608 121.072 22.3033C123.006 21.2457 125.227 20.7169 127.735 20.7169C130.182 20.7169 132.358 21.2306 134.261 22.258C136.165 23.2853 137.646 24.7508 138.703 26.6544C139.791 28.558 140.335 30.7789 140.335 33.3171ZM132.403 31.2775C132.403 29.948 131.95 28.8904 131.043 28.1048C130.137 27.3192 129.004 26.9264 127.644 26.9264C126.345 26.9264 125.242 27.3041 124.335 28.0595C123.459 28.8149 122.915 29.8875 122.704 31.2775H132.403ZM152.174 24.6601C152.929 23.4817 153.972 22.5299 155.301 21.8047C156.631 21.0795 158.187 20.7169 159.97 20.7169C162.055 20.7169 163.943 21.2457 165.635 22.3033C167.327 23.3608 168.657 24.8717 169.624 26.8357C170.621 28.7998 171.12 31.0811 171.12 33.6797C171.12 36.2783 170.621 38.5747 169.624 40.569C168.657 42.533 167.327 44.0589 165.635 45.1467C163.943 46.2043 162.055 46.7331 159.97 46.7331C158.217 46.7331 156.661 46.3705 155.301 45.6453C153.972 44.9201 152.929 43.9834 152.174 42.8352V58.4267H144.424V21.0795H152.174V24.6601ZM163.233 33.6797C163.233 31.7458 162.689 30.235 161.601 29.1473C160.544 28.0293 159.229 27.4703 157.658 27.4703C156.117 27.4703 154.803 28.0293 153.715 29.1473C152.657 30.2652 152.129 31.7912 152.129 33.725C152.129 35.6588 152.657 37.1848 153.715 38.3028C154.803 39.4208 156.117 39.9798 157.658 39.9798C159.199 39.9798 160.514 39.4208 161.601 38.3028C162.689 37.1545 163.233 35.6135 163.233 33.6797ZM173.645 33.6797C173.645 31.0811 174.128 28.7998 175.095 26.8357C176.092 24.8717 177.437 23.3608 179.129 22.3033C180.821 21.2457 182.709 20.7169 184.794 20.7169C186.456 20.7169 187.967 21.0644 189.327 21.7594C190.717 22.4544 191.805 23.3911 192.59 24.5695V12.8305H200.341V46.3705H192.59V42.7445C191.865 43.9532 190.822 44.9201 189.463 45.6453C188.133 46.3705 186.577 46.7331 184.794 46.7331C182.709 46.7331 180.821 46.2043 179.129 45.1467C177.437 44.0589 176.092 42.533 175.095 40.569C174.128 38.5747 173.645 36.2783 173.645 33.6797ZM192.59 33.725C192.59 31.7912 192.046 30.2652 190.958 29.1473C189.901 28.0293 188.602 27.4703 187.061 27.4703C185.52 27.4703 184.205 28.0293 183.117 29.1473C182.06 30.235 181.531 31.7458 181.531 33.6797C181.531 35.6135 182.06 37.1545 183.117 38.3028C184.205 39.4208 185.52 39.9798 187.061 39.9798C188.602 39.9798 189.901 39.4208 190.958 38.3028C192.046 37.1848 192.59 35.6588 192.59 33.725ZM220.044 39.7985V46.3705H216.1C213.29 46.3705 211.1 45.6906 209.528 44.3309C207.957 42.9409 207.171 40.6898 207.171 37.5776V27.5156H204.089V21.0795H207.171V14.9154H214.922V21.0795H219.998V27.5156H214.922V37.6682C214.922 38.4236 215.103 38.9675 215.466 39.2999C215.828 39.6323 216.433 39.7985 217.279 39.7985H220.044Z" fill="#EAEAEA"/>
<path d="M75.0957 59.9095C75.0957 58.5335 75.3517 57.3255 75.8637 56.2855C76.3917 55.2455 77.1037 54.4455 77.9997 53.8855C78.8957 53.3255 79.8957 53.0455 80.9997 53.0455C81.8797 53.0455 82.6797 53.2295 83.3997 53.5975C84.1357 53.9655 84.7117 54.4615 85.1277 55.0855V48.8695H89.2317V66.6295H85.1277V64.7095C84.7437 65.3495 84.1917 65.8615 83.4717 66.2455C82.7677 66.6295 81.9437 66.8215 80.9997 66.8215C79.8957 66.8215 78.8957 66.5415 77.9997 65.9815C77.1037 65.4055 76.3917 64.5975 75.8637 63.5575C75.3517 62.5015 75.0957 61.2855 75.0957 59.9095ZM85.1277 59.9335C85.1277 58.9095 84.8397 58.1015 84.2637 57.5095C83.7037 56.9175 83.0157 56.6215 82.1997 56.6215C81.3837 56.6215 80.6877 56.9175 80.1117 57.5095C79.5517 58.0855 79.2717 58.8855 79.2717 59.9095C79.2717 60.9335 79.5517 61.7495 80.1117 62.3575C80.6877 62.9495 81.3837 63.2455 82.1997 63.2455C83.0157 63.2455 83.7037 62.9495 84.2637 62.3575C84.8397 61.7655 85.1277 60.9575 85.1277 59.9335ZM91.3847 59.9095C91.3847 58.5335 91.6407 57.3255 92.1527 56.2855C92.6807 55.2455 93.3927 54.4455 94.2887 53.8855C95.1847 53.3255 96.1847 53.0455 97.2887 53.0455C98.2327 53.0455 99.0567 53.2375 99.7607 53.6215C100.481 54.0055 101.033 54.5095 101.417 55.1335V53.2375H105.521V66.6295H101.417V64.7335C101.017 65.3575 100.457 65.8615 99.7367 66.2455C99.0327 66.6295 98.2087 66.8215 97.2647 66.8215C96.1767 66.8215 95.1847 66.5415 94.2887 65.9815C93.3927 65.4055 92.6807 64.5975 92.1527 63.5575C91.6407 62.5015 91.3847 61.2855 91.3847 59.9095ZM101.417 59.9335C101.417 58.9095 101.129 58.1015 100.553 57.5095C99.9927 56.9175 99.3047 56.6215 98.4887 56.6215C97.6727 56.6215 96.9767 56.9175 96.4007 57.5095C95.8407 58.0855 95.5607 58.8855 95.5607 59.9095C95.5607 60.9335 95.8407 61.7495 96.4007 62.3575C96.9767 62.9495 97.6727 63.2455 98.4887 63.2455C99.3047 63.2455 99.9927 62.9495 100.553 62.3575C101.129 61.7655 101.417 60.9575 101.417 59.9335ZM115.954 63.1495V66.6295H113.866C112.378 66.6295 111.218 66.2695 110.386 65.5495C109.554 64.8135 109.138 63.6215 109.138 61.9735V56.6455H107.506V53.2375H109.138V49.9735H113.242V53.2375H115.93V56.6455H113.242V62.0215C113.242 62.4215 113.338 62.7095 113.53 62.8855C113.722 63.0615 114.042 63.1495 114.49 63.1495H115.954ZM117.424 59.9095C117.424 58.5335 117.68 57.3255 118.192 56.2855C118.72 55.2455 119.432 54.4455 120.328 53.8855C121.224 53.3255 122.224 53.0455 123.328 53.0455C124.272 53.0455 125.096 53.2375 125.8 53.6215C126.52 54.0055 127.072 54.5095 127.456 55.1335V53.2375H131.56V66.6295H127.456V64.7335C127.056 65.3575 126.496 65.8615 125.776 66.2455C125.072 66.6295 124.248 66.8215 123.304 66.8215C122.216 66.8215 121.224 66.5415 120.328 65.9815C119.432 65.4055 118.72 64.5975 118.192 63.5575C117.68 62.5015 117.424 61.2855 117.424 59.9095ZM127.456 59.9335C127.456 58.9095 127.168 58.1015 126.592 57.5095C126.032 56.9175 125.344 56.6215 124.528 56.6215C123.712 56.6215 123.016 56.9175 122.44 57.5095C121.88 58.0855 121.6 58.8855 121.6 59.9095C121.6 60.9335 121.88 61.7495 122.44 62.3575C123.016 62.9495 123.712 63.2455 124.528 63.2455C125.344 63.2455 126.032 62.9495 126.592 62.3575C127.168 61.7655 127.456 60.9575 127.456 59.9335Z" fill="#EAEAEA"/>
</svg>
