<svg width="235" height="80" viewBox="0 0 235 80" fill="none" xmlns="http://www.w3.org/2000/svg">
<path d="M10.3813 63.5298L4.83588 30.2176H15.3475L18.0809 48.767H18.491L30.7934 25.4119H43.1837L45.527 48.5912H45.9078L57.7421 15.4137H69.2809L49.6258 63.5298H38.5283L35.482 35.2343L21.4494 63.5298H10.3813Z" fill="#EAEAEA"/>
<path d="M113.539 29.5795L106.695 54.8705H98.1283L94.1397 38.4631L90.0152 54.8705H81.4943L74.605 29.5795H82.3554L85.936 47.6639L90.1965 29.5795H98.4002L102.706 47.5733L106.241 29.5795H113.539ZM140.335 41.8171C140.335 42.5423 140.289 43.2977 140.199 44.0833H122.658C122.779 45.6545 123.278 46.8632 124.154 47.7092C125.06 48.5251 126.163 48.933 127.463 48.933C129.396 48.933 130.741 48.1172 131.497 46.4855H139.746C139.323 48.1474 138.552 49.6431 137.434 50.9726C136.346 52.3021 134.971 53.3446 133.309 54.1C131.648 54.8554 129.789 55.2331 127.735 55.2331C125.257 55.2331 123.051 54.7043 121.117 53.6467C119.183 52.5892 117.673 51.0784 116.585 49.1143C115.497 47.1502 114.953 44.8538 114.953 42.225C114.953 39.5962 115.482 37.2998 116.54 35.3357C117.627 33.3717 119.138 31.8608 121.072 30.8033C123.006 29.7457 125.227 29.2169 127.735 29.2169C130.182 29.2169 132.358 29.7306 134.261 30.758C136.165 31.7853 137.646 33.2508 138.703 35.1544C139.791 37.058 140.335 39.2789 140.335 41.8171ZM132.403 39.7775C132.403 38.448 131.95 37.3904 131.043 36.6048C130.137 35.8192 129.004 35.4264 127.644 35.4264C126.345 35.4264 125.242 35.8041 124.335 36.5595C123.459 37.3149 122.915 38.3875 122.704 39.7775H132.403ZM152.174 33.1601C152.929 31.9817 153.972 31.0299 155.301 30.3047C156.631 29.5795 158.187 29.2169 159.97 29.2169C162.055 29.2169 163.943 29.7457 165.635 30.8033C167.327 31.8608 168.657 33.3717 169.624 35.3357C170.621 37.2998 171.12 39.5811 171.12 42.1797C171.12 44.7783 170.621 47.0747 169.624 49.069C168.657 51.033 167.327 52.5589 165.635 53.6467C163.943 54.7043 162.055 55.2331 159.97 55.2331C158.217 55.2331 156.661 54.8705 155.301 54.1453C153.972 53.4201 152.929 52.4834 152.174 51.3352V66.9267H144.424V29.5795H152.174V33.1601ZM163.233 42.1797C163.233 40.2458 162.689 38.735 161.601 37.6473C160.544 36.5293 159.229 35.9703 157.658 35.9703C156.117 35.9703 154.803 36.5293 153.715 37.6473C152.657 38.7652 152.129 40.2912 152.129 42.225C152.129 44.1588 152.657 45.6848 153.715 46.8028C154.803 47.9208 156.117 48.4798 157.658 48.4798C159.199 48.4798 160.514 47.9208 161.601 46.8028C162.689 45.6545 163.233 44.1135 163.233 42.1797ZM173.645 42.1797C173.645 39.5811 174.128 37.2998 175.095 35.3357C176.092 33.3717 177.437 31.8608 179.129 30.8033C180.821 29.7457 182.709 29.2169 184.794 29.2169C186.456 29.2169 187.967 29.5644 189.327 30.2594C190.717 30.9544 191.805 31.8911 192.59 33.0695V21.3305H200.341V54.8705H192.59V51.2445C191.865 52.4532 190.822 53.4201 189.463 54.1453C188.133 54.8705 186.577 55.2331 184.794 55.2331C182.709 55.2331 180.821 54.7043 179.129 53.6467C177.437 52.5589 176.092 51.033 175.095 49.069C174.128 47.0747 173.645 44.7783 173.645 42.1797ZM192.59 42.225C192.59 40.2912 192.046 38.7652 190.958 37.6473C189.901 36.5293 188.602 35.9703 187.061 35.9703C185.52 35.9703 184.205 36.5293 183.117 37.6473C182.06 38.735 181.531 40.2458 181.531 42.1797C181.531 44.1135 182.06 45.6545 183.117 46.8028C184.205 47.9208 185.52 48.4798 187.061 48.4798C188.602 48.4798 189.901 47.9208 190.958 46.8028C192.046 45.6848 192.59 44.1588 192.59 42.225ZM220.044 48.2985V54.8705H216.1C213.29 54.8705 211.1 54.1906 209.528 52.8309C207.957 51.4409 207.171 49.1898 207.171 46.0776V36.0156H204.089V29.5795H207.171V23.4154H214.922V29.5795H219.998V36.0156H214.922V46.1682C214.922 46.9236 215.103 47.4675 215.466 47.7999C215.828 48.1323 216.433 48.2985 217.279 48.2985H220.044Z" fill="#EAEAEA"/>
</svg>
