<svg width="235" height="80" viewBox="0 0 235 80" fill="none" xmlns="http://www.w3.org/2000/svg">
<path d="M10.4983 63.8878L4.8685 30.0688H15.5401L18.3151 48.9003H18.7314L31.221 25.19H43.7997L46.1787 48.7219H46.5653L58.5797 15.0396H70.2941L50.3399 63.8878H39.0736L35.9809 35.1618L21.7348 63.8878H10.4983Z" fill="#111111"/>
<path d="M115.164 30.4742L108.216 56.15H99.5195L95.4702 39.4929L91.283 56.15H82.6324L75.6382 30.4742H83.5066L87.1417 48.8338L91.467 30.4742H99.7955L104.167 48.7417L107.756 30.4742H115.164ZM142.368 42.898C142.368 43.6342 142.322 44.4011 142.23 45.1987H124.423C124.545 46.7938 125.052 48.0208 125.941 48.8798C126.861 49.708 127.981 50.1221 129.3 50.1221C131.263 50.1221 132.628 49.2939 133.395 47.6374H141.77C141.34 49.3246 140.558 50.843 139.423 52.1928C138.319 53.5425 136.923 54.6008 135.236 55.3677C133.549 56.1346 131.662 56.5181 129.576 56.5181C127.061 56.5181 124.821 55.9812 122.858 54.9076C120.895 53.8339 119.361 52.3001 118.257 50.3062C117.152 48.3123 116.6 45.9809 116.6 43.3121C116.6 40.6433 117.137 38.3119 118.211 36.318C119.315 34.324 120.849 32.7902 122.812 31.7166C124.775 30.6429 127.03 30.1061 129.576 30.1061C132.061 30.1061 134.27 30.6276 136.202 31.6706C138.135 32.7136 139.638 34.2013 140.712 36.1339C141.816 38.0665 142.368 40.3212 142.368 42.898ZM134.316 40.8273C134.316 39.4776 133.856 38.4039 132.935 37.6064C132.015 36.8088 130.865 36.41 129.484 36.41C128.165 36.41 127.045 36.7935 126.125 37.5603C125.236 38.3272 124.683 39.4162 124.469 40.8273H134.316ZM154.387 34.1093C155.154 32.9129 156.213 31.9467 157.562 31.2104C158.912 30.4742 160.492 30.1061 162.302 30.1061C164.418 30.1061 166.336 30.6429 168.054 31.7166C169.771 32.7902 171.121 34.324 172.103 36.318C173.115 38.3119 173.621 40.6279 173.621 43.2661C173.621 45.9042 173.115 48.2356 172.103 50.2602C171.121 52.2541 169.771 53.8033 168.054 54.9076C166.336 55.9812 164.418 56.5181 162.302 56.5181C160.523 56.5181 158.943 56.15 157.562 55.4137C156.213 54.6775 155.154 53.7266 154.387 52.5609V68.3897H146.519V30.4742H154.387V34.1093ZM165.615 43.2661C165.615 41.3028 165.063 39.769 163.958 38.6647C162.885 37.5297 161.55 36.9622 159.955 36.9622C158.391 36.9622 157.056 37.5297 155.952 38.6647C154.878 39.7997 154.341 41.3488 154.341 43.3121C154.341 45.2753 154.878 46.8245 155.952 47.9595C157.056 49.0945 158.391 49.662 159.955 49.662C161.52 49.662 162.854 49.0945 163.958 47.9595C165.063 46.7938 165.615 45.2293 165.615 43.2661ZM176.185 43.2661C176.185 40.6279 176.676 38.3119 177.657 36.318C178.669 34.324 180.035 32.7902 181.752 31.7166C183.47 30.6429 185.388 30.1061 187.504 30.1061C189.191 30.1061 190.725 30.4589 192.106 31.1644C193.517 31.87 194.621 32.8209 195.419 34.0173V22.0997H203.287V56.15H195.419V52.4689C194.682 53.6959 193.624 54.6775 192.244 55.4137C190.894 56.15 189.314 56.5181 187.504 56.5181C185.388 56.5181 183.47 55.9812 181.752 54.9076C180.035 53.8033 178.669 52.2541 177.657 50.2602C176.676 48.2356 176.185 45.9042 176.185 43.2661ZM195.419 43.3121C195.419 41.3488 194.866 39.7997 193.762 38.6647C192.688 37.5297 191.369 36.9622 189.805 36.9622C188.24 36.9622 186.906 37.5297 185.802 38.6647C184.728 39.769 184.191 41.3028 184.191 43.2661C184.191 45.2293 184.728 46.7938 185.802 47.9595C186.906 49.0945 188.24 49.662 189.805 49.662C191.369 49.662 192.688 49.0945 193.762 47.9595C194.866 46.8245 195.419 45.2753 195.419 43.3121ZM223.29 49.4779V56.15H219.286C216.434 56.15 214.21 55.4598 212.614 54.0793C211.019 52.6682 210.222 50.3829 210.222 47.2233V37.0082H207.093V30.4742H210.222V24.2163H218.09V30.4742H223.244V37.0082H218.09V47.3153C218.09 48.0822 218.274 48.6344 218.642 48.9718C219.01 49.3092 219.624 49.4779 220.483 49.4779H223.29Z" fill="#111111"/>
</svg>
