<svg width="24" height="24" viewBox="0 0 24 24" fill="none" xmlns="http://www.w3.org/2000/svg">
    <path
        d="M22.4962 3.75V6C22.4962 8.07187 17.7947 9.75 11.9962 9.75C6.19778 9.75 1.49622 8.07187 1.49622 6V3.75C1.49622 1.67812 6.19778 0 11.9962 0C17.7947 0 22.4962 1.67812 22.4962 3.75ZM19.9275 10.0641C20.9025 9.71719 21.7978 9.27188 22.4962 8.72344V13.5C22.4962 15.5719 17.7947 17.25 11.9962 17.25C6.19778 17.25 1.49622 15.5719 1.49622 13.5V8.72344C2.19465 9.27656 3.08997 9.71719 4.06497 10.0641C6.16965 10.8141 8.97278 11.25 11.9962 11.25C15.0197 11.25 17.8228 10.8141 19.9275 10.0641ZM1.49622 16.2234C2.19465 16.7766 3.08997 17.2172 4.06497 17.5641C6.16965 18.3141 8.97278 18.75 11.9962 18.75C15.0197 18.75 17.8228 18.3141 19.9275 17.5641C20.9025 17.2172 21.7978 16.7719 22.4962 16.2234V20.25C22.4962 22.3219 17.7947 24 11.9962 24C6.19778 24 1.49622 22.3219 1.49622 20.25V16.2234Z"
        fill="#C9C7B3" />
</svg>