<svg width="235" height="80" viewBox="0 0 235 80" fill="none" xmlns="http://www.w3.org/2000/svg">
    <g clip-path="url(#clip0_3_14)">
        <path
            d="M89.165 38.3007C87.2854 37.4505 85.3218 36.1562 84.1004 34.4259C82.8442 32.6477 81.8005 30.5711 81.5214 28.4398C81.46 27.9735 81.4103 27.5017 81.3723 27.0244C81.3363 26.567 81.3295 26.1041 81.3517 25.6356C81.5748 21.0769 83.521 17.5309 87.1902 14.9974C87.4673 14.8074 87.9849 14.5361 88.7431 14.1837C91.7821 12.7716 94.8878 12.6269 98.0601 13.7494C99.0614 14.1041 99.9777 14.5676 100.809 15.1399C101.249 15.4426 101.515 15.6377 101.607 15.7249C101.978 16.0763 102.378 16.7342 102.252 17.2845C102.095 17.9783 101.659 18.4059 100.945 18.5672C100.519 18.6633 100.23 18.5689 99.8349 18.3269C99.375 18.0441 98.8775 17.7513 98.3424 17.4485C96.42 16.3591 94.3755 16.0089 92.2088 16.3978C89.9136 16.8105 88.0832 18.0352 86.5701 19.9146C84.3177 22.7121 83.8229 26.799 85.2425 30.1484C86.2021 32.4107 88.253 34.5685 90.6211 35.4203C92.9368 36.2545 95.149 36.2429 97.2575 35.3855C98.29 34.9646 99.1529 34.3132 100.147 33.8724C100.609 33.6669 101.485 33.6354 101.754 34.1972C101.904 34.511 102.038 34.8789 102.155 35.301C102.327 35.9192 101.783 36.4661 101.312 36.7843C100.925 37.0472 100.519 37.308 100.095 37.5665C98.031 38.8272 95.8347 39.4017 93.5063 39.2901C91.9 39.2139 90.4529 38.8841 89.165 38.3007Z"
            fill="#4CB7EC" />
        <path
            d="M147.957 38.0154C147.909 37.7983 147.847 37.6276 147.849 37.3906C147.873 34.7754 147.883 32.1928 147.877 29.6427C147.873 28.0037 147.89 26.885 147.241 25.6022C147.038 25.2012 146.81 24.9034 146.558 24.709C145.777 24.109 144.742 23.6035 143.76 23.7577C141.52 24.1073 140.416 25.7729 140.424 28.0633C140.437 31.1338 140.446 34.1843 140.451 37.215C140.451 37.6508 140.35 37.9674 140.099 38.3137C139.869 38.6319 139.661 39.0247 139.225 39.0247C138.905 39.0236 138.616 38.9949 138.361 38.9385C137.545 38.7596 137.312 37.7055 137.315 36.9813C137.327 34.1197 137.336 31.2321 137.344 28.3186C137.345 27.6711 137.302 27.1524 137.214 26.7623C137.095 26.2304 136.735 25.1581 136.251 24.7852C135.439 24.1587 134.468 23.635 133.428 23.7477C132.954 23.7985 132.574 23.888 132.287 24.0162C132.031 24.1322 131.703 24.3427 131.302 24.6476C130.412 25.3255 130.041 26.5287 130.04 27.6606C130.033 30.7841 130.031 33.7783 130.032 36.6432C130.032 36.9603 130.002 37.2807 129.943 37.6044C129.761 38.5905 129.061 39.1739 128.082 38.97C127.688 38.8883 127.31 38.6192 126.95 38.1629C126.921 38.1265 126.905 38.0802 126.905 38.032C126.921 34.4478 126.923 30.878 126.91 27.3225C126.905 26.0232 127.273 24.7625 128.014 23.5406C128.609 22.5583 129.403 21.8098 130.395 21.2949C131.557 20.6928 132.731 20.4176 133.918 20.4696C134.366 20.4895 134.876 20.5723 135.448 20.7182C136.708 21.0413 137.817 21.8054 138.687 22.7616C138.711 22.7877 138.74 22.8085 138.771 22.823C138.803 22.8374 138.837 22.8452 138.871 22.8458C138.906 22.8464 138.94 22.8399 138.972 22.8266C139.003 22.8133 139.032 22.7934 139.057 22.7682C140.088 21.7026 141.176 20.9601 142.623 20.6436C143.951 20.3541 145.28 20.4386 146.61 20.8972C147.63 21.2485 148.51 22.0473 149.295 22.9257C150.464 24.2366 150.948 26 150.958 27.7468C150.972 30.3255 150.976 33.1612 150.969 36.2537C150.967 37.2879 150.953 38.1298 150.109 38.8225C149.933 38.9673 149.727 39.0264 149.494 38.9999C148.824 38.9236 148.139 38.8209 147.957 38.0154Z"
            fill="#4CB7EC" />
        <path
            d="M204.428 27.8901C204.714 27.9763 204.967 28.0907 205.269 28.1537C207.362 28.5912 208.961 28.9724 210.538 29.8971C211.179 30.2733 211.602 30.7987 212.034 31.4086C212.67 32.3085 212.833 33.5979 212.617 34.647C212.363 35.8899 211.864 36.8147 211.122 37.4213C208.34 39.6918 204.303 39.4018 201.127 38.0361C200.688 37.8472 200.212 37.6086 199.866 37.2705C199.259 36.6788 198.223 36.112 198.823 35.0414C199.216 34.3387 199.754 33.7868 200.61 33.9691C200.846 34.0199 201.071 34.1371 201.286 34.3205C203.389 36.1302 205.843 36.6473 208.449 35.6016C209.202 35.2988 209.602 34.7586 209.65 33.9807C209.689 33.3377 209.259 32.524 208.635 32.2008C208.4 32.0798 208.203 31.924 207.956 31.8229C206.955 31.4152 205.949 31.2047 204.937 30.9015C204.221 30.6882 203.546 30.4783 202.91 30.2717C202.518 30.1435 201.995 29.8596 201.343 29.4198C200.097 28.5801 199.464 27.3681 199.443 25.7837C199.425 24.4894 199.911 23.2315 200.954 22.4824C202.049 21.6968 203.133 21.2212 204.208 21.0554C205.333 20.8809 206.465 20.888 207.605 21.077C209.091 21.3223 210.36 21.9305 211.412 22.9017C211.997 23.4419 212.868 24.7015 211.943 25.4158C211.29 25.9213 210.424 25.8086 209.802 25.3329C207.918 23.8911 205.749 23.3657 203.521 24.2839C202.633 24.6501 202.241 25.5666 202.591 26.4864C202.878 27.2372 203.687 27.6647 204.428 27.8901Z"
            fill="#4CB7EC" />
        <path
            d="M182.655 38.4285C182.437 38.328 182.228 38.2053 182.03 38.0606C181.427 37.6242 180.898 37.1933 180.442 36.7679C180.086 36.4364 179.704 35.9602 179.298 35.3393C178.727 34.4698 178.376 33.4947 178.244 32.4142C178.15 31.6607 178.103 30.9281 178.102 30.2166C178.1 27.6654 178.099 25.0867 178.099 22.4803C178.099 21.9688 178.306 21.5798 178.721 21.3136C179.513 20.8042 180.199 20.8694 180.778 21.5091C181.041 21.8008 181.177 22.2334 181.184 22.8068C181.209 24.8044 181.21 27.0208 181.189 29.4559C181.186 29.8315 181.197 30.2 181.224 30.5613C181.273 31.206 181.268 31.9269 181.494 32.5186C182.102 34.1096 183.223 35.1653 184.859 35.6857C185.389 35.8547 185.944 35.8962 186.523 35.81C188.556 35.5072 189.922 34.3604 190.623 32.3694C190.966 31.3982 191.015 30.1437 191.01 29.0731C191.002 26.8025 191.005 24.5193 191.02 22.2234C191.026 21.2191 192.387 20.712 193.125 21.1147C193.813 21.4909 193.978 22.0693 194.064 22.8085C194.093 23.0604 194.109 23.3034 194.11 23.5377C194.12 25.7032 194.121 27.8627 194.113 30.0161C194.11 30.7138 194.037 31.4032 193.959 32.0827C193.666 34.6814 191.956 36.8574 189.875 38.1551C187.867 39.4096 184.818 39.4295 182.655 38.4285Z"
            fill="#4CB7EC" />
        <path fill-rule="evenodd" clip-rule="evenodd"
            d="M118.765 37.1392C118.947 36.9978 119.056 37.0436 119.092 37.2768C119.116 37.4314 119.141 37.6038 119.165 37.7938C119.282 38.7203 119.88 39.1396 120.721 39.0733C122.023 38.9702 122.02 37.5951 122.017 36.5306C122.017 36.4995 122.017 36.4687 122.017 36.4382C122.014 34.4317 122.014 32.291 122.019 30.0161C122.021 28.6041 121.766 27.3357 121.256 26.211C120.729 25.0531 120.032 24.0763 119.164 23.2808C117.087 21.376 114.622 20.6413 111.769 21.0766C111.211 21.1617 110.654 21.3324 110.1 21.5887C107.504 22.7903 105.389 25.1321 104.877 28.034C104.496 30.1852 104.652 32.4308 105.673 34.3152C106.298 35.4703 107.098 36.5426 108.208 37.3182L108.232 37.335C109.038 37.8965 109.865 38.4725 110.76 38.717C113.723 39.5235 116.391 38.9976 118.765 37.1392ZM110.599 35.2495C107.827 33.6836 106.796 30.0645 108.296 27.1659C109.796 24.2674 113.259 23.1871 116.03 24.753C118.802 26.319 119.833 29.9381 118.333 32.8366C116.833 35.7351 113.37 36.8154 110.599 35.2495Z"
            fill="#4CB7EC" />
        <path fill-rule="evenodd" clip-rule="evenodd"
            d="M159.29 37.6696C159.289 37.5116 159.301 37.3525 159.328 37.1923C159.351 37.0564 159.42 37.0227 159.534 37.0912C159.886 37.3045 160.209 37.5564 160.503 37.847C160.65 37.9913 160.823 38.0591 161 38.1282C161.127 38.1781 161.256 38.2287 161.379 38.3093C161.572 38.4364 161.8 38.543 162.062 38.6292C163.97 39.2623 165.864 39.2783 167.745 38.6773C170.305 37.8586 172.953 34.955 173.438 32.179C173.85 29.8223 173.687 27.3413 172.385 25.2796C171.248 23.4781 169.942 22.3147 168.034 21.5258C167.391 21.2607 166.674 21.0938 165.882 21.0253C165.027 20.9524 164.249 20.974 163.547 21.09C161.821 21.3772 160.334 22.1468 159.085 23.3986C158.349 24.1361 157.704 24.8918 157.232 25.8763C156.616 27.1656 156.301 28.5163 156.287 29.9284C156.234 35.53 156.225 40.4677 156.259 44.7413C156.265 45.5059 156.53 46.0821 157.055 46.4699C157.447 46.7605 157.902 46.7605 158.419 46.4699C159.226 46.0141 159.283 45.3462 159.29 44.4961C159.304 42.1438 159.304 39.8683 159.29 37.6696ZM170.67 30.0439C170.67 33.3326 168.119 35.9986 164.971 35.9986C161.824 35.9986 159.272 33.3326 159.272 30.0439C159.272 26.7552 161.824 24.0892 164.971 24.0892C168.119 24.0892 170.67 26.7552 170.67 30.0439Z"
            fill="#4CB7EC" />
        <path
            d="M84.8032 57.6899C87.85 57.775 91.3944 57.5819 94.3822 57.7243C94.8062 57.7439 95.1893 57.9175 95.3579 58.3186C95.7061 59.1426 95.5675 59.834 94.9421 60.3928C94.7838 60.5336 94.601 60.6182 94.3937 60.6466C93.6853 60.7437 92.959 60.7918 92.2146 60.7907C89.7785 60.7863 87.3632 60.7798 84.9686 60.771C84.9121 60.771 84.8579 60.7929 84.8175 60.8321C84.7771 60.8713 84.7538 60.9246 84.7525 60.9806C84.6794 63.5727 84.6821 66.2216 84.7607 68.9273C84.7683 69.1674 84.7661 69.4206 84.7541 69.687C84.7432 69.9402 84.705 70.1939 84.6395 70.4482C84.5587 70.7636 84.4561 71.0491 84.3317 71.3045C84.2379 71.4976 84.0938 71.6379 83.8995 71.7252C83.1715 72.0537 82.508 71.9899 81.9088 71.5337C81.3488 71.1064 81.3488 70.1503 81.3505 69.4627C81.3592 62.7973 81.3554 56.4064 81.339 50.29C81.3368 49.3885 81.3887 48.5655 81.4946 47.8212C81.5502 47.4283 81.7101 47.1472 81.9742 46.978C82.3409 46.7423 83.0367 46.7014 83.4722 46.6997C87.982 46.6965 92.6288 46.697 97.4126 46.7014C98.2197 46.703 99.1119 47.0026 99.2298 47.8916C99.3247 48.5999 99.1141 49.144 98.5978 49.5238C98.4134 49.6613 98.1766 49.7285 97.8873 49.7252C97.4322 49.7208 96.9869 49.7306 96.5514 49.7547C96.1399 49.7765 95.7127 49.789 95.2695 49.7923C91.8413 49.8163 88.4131 49.8169 84.9849 49.7939C84.8387 49.7929 84.765 49.8654 84.7639 50.0117L84.7181 57.6031C84.717 57.6599 84.7454 57.6888 84.8032 57.6899Z"
            fill="#FF3FD1" />
        <path
            d="M105.955 66.7191C106.042 67.4083 106.255 68.0321 106.836 68.4446C107.715 69.0733 109.141 68.3759 109.582 69.553C110.061 70.8365 109.4 71.7942 108.11 71.9203C105.307 72.1921 103.369 70.4567 102.863 67.7799C102.7 66.9199 102.618 66.0904 102.617 65.2915C102.609 59.8452 102.607 54.25 102.612 48.5058C102.614 47.2059 103.577 46.3955 104.903 46.7868C105.648 47.0061 105.856 47.7101 105.854 48.4043C105.841 53.6388 105.837 59.1794 105.842 65.0263C105.844 65.5676 105.881 66.1319 105.955 66.7191Z"
            fill="#FF3FD1" />
        <path
            d="M174.411 71.7138C173.969 71.9086 172.783 72.0281 172.533 71.4027C172.515 71.358 172.488 71.3198 172.451 71.2881C172.3 71.1637 172.222 71 172.217 70.797C172.147 68.0357 172.159 65.4048 172.253 62.9043C172.362 59.9394 173.991 57.2594 176.351 55.5257C177.255 54.861 178.262 54.3922 179.369 54.1193C180 53.9633 180.72 53.8481 181.529 53.7739C181.949 53.7357 182.347 53.8077 182.722 53.99C183.444 54.3387 183.723 55.1573 183.39 55.8809C183.006 56.7175 182.523 56.7044 181.722 56.8157C180.674 56.9598 179.554 57.2103 178.656 57.7375C178.014 58.1124 177.334 58.7558 176.843 59.2911C176.004 60.2035 175.503 61.3266 175.34 62.6604C175.288 63.0937 175.259 64.1578 175.254 65.8528C175.249 67.3852 175.245 68.9001 175.241 70.3975C175.239 71.0306 174.963 71.4693 174.411 71.7138Z"
            fill="#FF3FD1" />
        <path
            d="M138.995 67.1855C139.01 67.195 139.026 67.2007 139.044 67.202C139.061 67.2033 139.079 67.2003 139.095 67.1931C139.111 67.1859 139.125 67.1749 139.135 67.161C139.146 67.1471 139.153 67.1307 139.155 67.1135C139.185 66.9219 139.214 66.7206 139.319 66.5536C139.575 66.1557 139.702 65.699 139.917 65.2684C140.635 63.8288 141.32 62.333 141.971 60.781C142.639 59.1897 143.527 57.7048 144.168 56.1249C144.605 55.046 145.115 53.977 146.526 54.4337C146.92 54.5614 147.287 54.7383 147.416 55.1672C147.553 55.619 147.545 56.0332 147.392 56.4098C147.249 56.7601 147.073 57.129 146.865 57.5165C146.387 58.406 145.595 60.0819 144.491 62.5442C144.226 63.1357 143.958 63.7169 143.687 64.2877C142.583 66.6092 141.427 68.9334 140.22 71.2604C140.056 71.5758 139.815 71.7668 139.496 71.8334C138.392 72.0658 137.914 71.5943 137.459 70.7365C136.646 69.2041 136.051 67.5948 135.269 66.0903C134.187 64.0122 133.134 61.7905 132.109 59.4254C131.731 58.5534 131.257 57.5793 130.686 56.5031C130.477 56.1069 130.448 55.6747 130.601 55.2065C130.755 54.735 131.284 54.5418 131.701 54.3781C131.889 54.3039 132.086 54.3082 132.291 54.3912C132.635 54.532 133.083 54.6515 133.27 55.0035C134.081 56.5424 134.773 58.0196 135.346 59.4352C135.635 60.149 135.979 60.8879 136.377 61.6519C137.24 63.3055 137.992 64.9923 138.633 66.7124C138.712 66.9241 138.832 67.0818 138.995 67.1855Z"
            fill="#FF3FD1" />
        <path fill-rule="evenodd" clip-rule="evenodd"
            d="M164.558 69.4576C166.24 67.7757 167.185 65.4946 167.185 63.116C167.185 60.7375 166.24 58.4564 164.558 56.7745C162.876 55.0926 160.595 54.1477 158.217 54.1477C155.838 54.1477 153.557 55.0926 151.875 56.7745C150.193 58.4564 149.248 60.7375 149.248 63.116C149.248 65.4946 150.193 67.7757 151.875 69.4576C153.557 71.1395 155.838 72.0843 158.217 72.0843C160.595 72.0843 162.876 71.1395 164.558 69.4576ZM164.108 63.089C164.108 66.3458 161.468 68.986 158.211 68.986C154.954 68.986 152.314 66.3458 152.314 63.089C152.314 59.8321 154.954 57.1919 158.211 57.1919C161.468 57.1919 164.108 59.8321 164.108 63.089Z"
            fill="#FF3FD1" />
        <path fill-rule="evenodd" clip-rule="evenodd"
            d="M125.859 70.0682C125.879 70.0881 125.894 70.1126 125.902 70.1396C125.963 70.3349 126.008 70.5243 126.038 70.7077C126.227 71.8045 126.906 72.228 128.075 71.9781C128.485 71.8908 128.744 71.6179 128.851 71.1595C128.949 70.7415 128.999 70.3317 129.002 69.93C129.013 68.128 129.017 66.1045 129.016 63.8595C129.015 62.0177 128.836 59.9778 127.743 58.4323C126.874 57.2066 125.824 56.1779 124.594 55.3463C124.241 55.1073 123.854 54.9081 123.435 54.7487C121.797 54.1255 120.097 53.9738 118.336 54.2936C116.98 54.5392 115.648 55.1809 114.339 56.2189C112.942 57.3278 111.99 58.7772 111.482 60.5671C110.845 62.8177 111.04 65.0218 112.067 67.1796C112.362 67.7995 112.762 68.3818 113.269 68.9264C114.212 69.9447 115.179 70.8337 116.481 71.3609C118.368 72.126 120.378 72.2558 122.512 71.7505C123.699 71.4689 124.712 70.8419 125.631 70.0593C125.652 70.0411 125.677 70.0285 125.705 70.0226C125.732 70.0168 125.761 70.0179 125.788 70.0259C125.815 70.0338 125.839 70.0484 125.859 70.0682ZM125.96 63.1121C125.96 66.3617 123.325 68.996 120.076 68.996C116.826 68.996 114.192 66.3617 114.192 63.1121C114.192 59.8625 116.826 57.2282 120.076 57.2282C123.325 57.2282 125.96 59.8625 125.96 63.1121Z"
            fill="#FF3FD1" />
        <path
            d="M30.821 76.5849L30.8206 76.0988C30.8187 73.9908 30.8198 73.4095 30.8126 62.7091L64.4706 47.3013C64.488 65.7978 64.4968 76.4948 64.4968 76.5849C64.4968 76.7616 63.7484 76.7616 62.864 77.8807C61.9796 78.9999 62.3198 79.53 61.9796 79.53L33.4743 79.53C33.2702 79.53 33.6103 78.941 32.5218 77.8807C31.4333 76.8205 30.821 76.7616 30.821 76.5849Z"
            fill="url(#paint0_linear_3_14)" />
        <path
            d="M64.4575 20.1188L30.8126 35.5267C30.814 44.3633 30.819 54.7982 30.8249 63.5166L64.4829 48.1088C64.4731 37.6556 64.4638 26.9078 64.4575 20.1188Z"
            fill="url(#paint1_linear_3_14)" />
        <path fill-rule="evenodd" clip-rule="evenodd"
            d="M48.2507 -0.240392C51.1081 -0.94719 56.7499 -0.0965224 52.6728 3.35256C52.6728 3.35256 63.0136 3.76485 63.1497 4.11826C63.2071 4.26733 63.1725 4.40593 63.1317 4.56941C63.0757 4.79349 63.0081 5.06432 63.1497 5.47299C63.2798 5.84835 63.6363 6.10744 63.942 6.32963C64.2119 6.52583 64.4423 6.69327 64.4423 6.88662C64.4423 6.90829 64.4431 7.6531 64.4444 8.82694C64.4481 12.1611 64.4555 18.9567 64.4587 22.4737L30.8139 37.8816C30.8118 25.0482 30.809 6.99741 30.8346 6.88662C30.8622 6.76692 31.0636 6.6258 31.3091 6.45379C31.6677 6.20257 32.1203 5.88545 32.2629 5.47299C32.3899 5.10565 32.203 4.78257 32.0533 4.52398C31.9198 4.2934 31.8161 4.11411 31.9911 4.00046C32.3624 3.75936 44.4409 3.35255 44.4409 3.35255C44.8554 2.82699 45.1482 2.36189 45.4065 1.95147C46.0774 0.885666 46.5161 0.188678 48.2507 -0.240392ZM50.251 0.875631C49.5027 0.875631 46.9302 1.27776 46.7261 2.16601C46.4786 3.24351 50.192 3.04333 50.5315 2.95505C51.2147 2.7776 52.8478 2.22345 52.5769 1.6341C52.3047 1.04216 50.9994 0.875631 50.251 0.875631Z"
            fill="url(#paint2_linear_3_14)" />
    </g>
    <defs>
        <linearGradient id="paint0_linear_3_14" x1="64.497" y1="48.3773" x2="34.1615" y2="79.831"
            gradientUnits="userSpaceOnUse">
            <stop stop-color="#FFB54D" />
            <stop offset="1" stop-color="#FF7D6A" />
        </linearGradient>
        <linearGradient id="paint1_linear_3_14" x1="64.4829" y1="32.8993" x2="51.9694" y2="63.6362"
            gradientUnits="userSpaceOnUse">
            <stop stop-color="#FF579C" />
            <stop offset="1" stop-color="#C01597" />
        </linearGradient>
        <linearGradient id="paint2_linear_3_14" x1="63.5673" y1="8.68055" x2="51.6447" y2="34.36"
            gradientUnits="userSpaceOnUse">
            <stop stop-color="#4CB7EC" />
            <stop offset="1" stop-color="#5062E8" />
        </linearGradient>
        <clipPath id="clip0_3_14">
            <rect width="235" height="80" fill="white" />
        </clipPath>
    </defs>
</svg>