<svg width="235" height="80" viewBox="0 0 235 80" fill="none" xmlns="http://www.w3.org/2000/svg">
<path d="M16.0768 0.537056C16.1652 0.538978 16.2535 0.540899 16.3446 0.542879C16.5437 0.547599 16.7428 0.553463 16.9418 0.560264C17.2936 0.57218 17.6453 0.580849 17.9972 0.589121C28.3943 0.846712 39.5834 1.20152 57.1705 10.9889C57.2442 11.0636 57.3179 11.1382 57.3938 11.2152C57.4584 11.2811 57.5229 11.3469 57.5894 11.4148C57.8121 11.6277 58.0398 11.8289 58.273 12.0301C58.7494 12.4445 59.1958 12.883 59.6393 13.3321C59.7597 13.4532 59.7597 13.4532 59.8825 13.5766C60.2216 13.9176 60.5601 14.2593 60.8986 14.6008C61.1476 14.852 61.397 15.1028 61.6465 15.3536C61.7214 15.4294 61.7963 15.5053 61.8735 15.5834C62.3062 16.0184 62.7528 16.4277 63.2172 16.8286C63.5942 17.1626 63.9464 17.5203 64.3001 17.8786C64.4166 17.9958 64.4166 17.9958 64.5355 18.1154C64.8637 18.4454 65.1912 18.7761 65.5188 19.1068C65.7599 19.35 66.0014 19.5929 66.2429 19.8357C66.3153 19.9091 66.3877 19.9824 66.4623 20.058C66.8967 20.4947 67.3456 20.9066 67.8118 21.3092C68.0431 21.5108 68.2627 21.721 68.4786 21.9388C68.553 22.0136 68.6274 22.0884 68.7041 22.1654C68.7782 22.2405 68.8523 22.3155 68.9286 22.3929C69.0451 22.5101 69.0451 22.5101 69.1639 22.6297C69.3524 22.8195 69.5406 23.0096 69.7286 23.2C70.0641 23.0486 70.3012 22.8844 70.5607 22.6243C70.6666 22.5189 70.6666 22.5189 70.7746 22.4114C70.8498 22.3355 70.9249 22.2595 71.0023 22.1813C71.1202 22.0632 71.1202 22.0632 71.2406 21.9428C71.4069 21.7761 71.573 21.6091 71.7388 21.4419C71.9902 21.1885 72.2425 20.9359 72.4949 20.6835C72.657 20.5209 72.8189 20.3582 72.9809 20.1955C73.0925 20.0837 73.0925 20.0837 73.2064 19.9696C73.564 19.6084 73.9099 19.242 74.2421 18.8572C74.6469 18.389 75.0777 17.9526 75.5179 17.5179C75.6389 17.3975 75.6389 17.3975 75.7624 17.2747C76.1034 16.9356 76.445 16.5971 76.7866 16.2587C77.0378 16.0096 77.2886 15.7602 77.5393 15.5107C77.6152 15.4358 77.6911 15.3609 77.7692 15.2837C78.1313 14.9235 78.4805 14.5582 78.8143 14.1714C79.2187 13.703 79.6492 13.2668 80.0893 12.8321C80.2104 12.7118 80.2104 12.7118 80.3338 12.589C80.6748 12.2499 81.0164 11.9114 81.358 11.5729C81.6092 11.3239 81.86 11.0744 82.1108 10.825C82.2246 10.7126 82.2246 10.7126 82.3406 10.598C82.7028 10.2377 83.0519 9.87246 83.3858 9.48572C83.7901 9.01732 84.2206 8.58105 84.6608 8.14643C84.7818 8.02606 84.7818 8.02606 84.9053 7.90325C85.2462 7.56414 85.5879 7.22571 85.9295 6.88722C86.1806 6.63815 86.4314 6.38873 86.6822 6.13929C86.796 6.02693 86.796 6.02693 86.9121 5.91229C87.3466 5.48004 87.7565 5.03444 88.157 4.57058C88.7242 3.92549 89.3385 3.32194 89.9424 2.71139C90.1103 2.54096 90.2775 2.36982 90.4441 2.19799C90.6862 1.94819 90.9306 1.70069 91.1755 1.45357C91.2494 1.37645 91.3234 1.29932 91.3996 1.21985C91.729 0.891959 91.9186 0.705716 92.3811 0.609155C92.7765 0.70406 92.9035 0.828561 93.1572 1.14286C93.2105 1.43041 93.2105 1.43041 93.2049 1.75703C93.2038 1.87929 93.2028 2.00154 93.2018 2.12749C93.1983 2.25926 93.1947 2.39103 93.1911 2.52679C93.1892 2.66439 93.1872 2.802 93.1852 2.94377C93.1784 3.37213 93.1681 3.8003 93.1572 4.22857C93.1519 4.47909 93.1466 4.72962 93.1413 4.98014C93.1238 5.72984 93.0988 6.47917 93.0715 7.22857C93.0642 7.43151 93.0642 7.43151 93.0567 7.63854C92.6729 18.0627 92.1757 30.9766 85.8429 39.7714C85.7937 39.8404 85.7444 39.9093 85.6936 39.9803C84.9767 40.9699 84.1574 41.8288 83.2804 42.6777C83.0056 42.9463 82.7486 43.2226 82.499 43.5148C82.0921 43.9827 81.6626 44.4217 81.2215 44.8571C81.1043 44.9737 81.1043 44.9737 80.9847 45.0926C80.6546 45.4208 80.3239 45.7483 79.9932 46.0759C79.75 46.317 79.5072 46.5585 79.2643 46.8C79.191 46.8724 79.1176 46.9448 79.042 47.0194C78.6862 47.3734 78.3439 47.7328 78.0159 48.1127C77.611 48.5816 77.18 49.0184 76.7393 49.4536C76.6183 49.574 76.6183 49.574 76.4949 49.6968C76.1539 50.0359 75.8122 50.3743 75.4706 50.7128C75.2195 50.9619 74.9687 51.2113 74.7179 51.4607C74.6421 51.5356 74.5662 51.6105 74.488 51.6877C74.0487 52.1248 73.6342 52.5757 73.2293 53.0448C72.969 53.3413 72.6947 53.6182 72.4148 53.8964C72.3328 53.9782 72.3328 53.9782 72.2491 54.0616C72.0783 54.2318 71.907 54.4016 71.7358 54.5714C71.6183 54.6884 71.5008 54.8053 71.3833 54.9223C71.0987 55.2057 70.8138 55.4887 70.5286 55.7714C70.7117 56.2264 71.0295 56.532 71.3724 56.8701C71.4333 56.931 71.4942 56.9918 71.557 57.0546C71.686 57.1833 71.8154 57.3117 71.9449 57.4398C72.1404 57.6333 72.335 57.8276 72.5295 58.0221C72.6557 58.1477 72.7818 58.2732 72.9081 58.3987C72.9937 58.4841 72.9937 58.4841 73.081 58.5712C73.3981 58.8842 73.7232 59.1828 74.0605 59.474C74.5319 59.8829 74.9725 60.3169 75.4108 60.7607C75.491 60.8414 75.5713 60.9221 75.6539 61.0052C75.9931 61.3462 76.3315 61.6878 76.67 62.0294C76.919 62.2806 77.1685 62.5314 77.4179 62.7821C77.4928 62.858 77.5677 62.9339 77.6449 63.012C78.0052 63.3742 78.3705 63.7233 78.7572 64.0571C79.2256 64.4615 79.6619 64.892 80.0965 65.3322C80.1767 65.4128 80.257 65.4935 80.3397 65.5766C80.6788 65.9176 81.0172 66.2593 81.3557 66.6008C81.6048 66.852 81.8542 67.1028 82.1036 67.3536C82.1785 67.4294 82.2534 67.5053 82.3306 67.5834C82.7658 68.0209 83.215 68.4331 83.682 68.8363C84.013 69.1282 84.3227 69.4392 84.6322 69.7536C84.6972 69.819 84.7623 69.8845 84.8293 69.9519C85.1028 70.2274 85.3757 70.5035 85.6487 70.7795C85.8501 70.983 86.0518 71.1862 86.2536 71.3893C86.3135 71.4502 86.3734 71.511 86.4352 71.5737C86.7573 71.898 87.0875 72.2062 87.4335 72.5049C87.9047 72.9128 88.3445 73.346 88.7822 73.7893C88.8624 73.87 88.9427 73.9507 89.0254 74.0338C89.3645 74.3747 89.7029 74.7164 90.0414 75.058C90.2905 75.3091 90.5399 75.5599 90.7893 75.8107C90.8642 75.8866 90.9392 75.9624 91.0163 76.0406C91.4581 76.4847 91.9129 76.9056 92.3889 77.3129C92.7746 77.6515 93.0161 77.893 93.1001 78.4072C93.0288 78.8258 92.9141 78.9376 92.5858 79.2C92.2982 79.2533 92.2982 79.2533 91.9716 79.2477C91.8493 79.2466 91.7271 79.2456 91.6011 79.2446C91.4694 79.2411 91.3376 79.2376 91.2018 79.2339C91.0642 79.232 90.9266 79.23 90.7849 79.228C90.3565 79.2212 89.9283 79.211 89.5001 79.2C89.2495 79.1947 88.999 79.1894 88.7485 79.1842C87.9988 79.1666 87.2495 79.1416 86.5001 79.1143C86.2971 79.107 86.2971 79.107 86.0901 79.0996C75.8936 78.7241 63.7164 78.1975 50.6934 68.9665C50.6112 68.8827 50.529 68.7989 50.4443 68.7125C50.3723 68.6385 50.3004 68.5645 50.2263 68.4883C49.9979 68.2678 49.7649 68.0603 49.5248 67.853C49.049 67.4396 48.6035 67.0019 48.1608 66.5536C48.0404 66.4326 48.0404 66.4326 47.9176 66.3091C47.5785 65.9681 47.2401 65.6265 46.9016 65.2849C46.6525 65.0337 46.4031 64.7829 46.1536 64.5322C46.0787 64.4563 46.0038 64.3804 45.9266 64.3023C45.5664 63.9401 45.2011 63.591 44.8143 63.2571C44.3459 62.8528 43.9097 62.4223 43.4751 61.9821C43.3547 61.8611 43.3547 61.8611 43.2319 61.7377C42.8928 61.3967 42.5543 61.055 42.2159 60.7135C41.9668 60.4623 41.7174 60.2115 41.4679 59.9607C41.393 59.8849 41.3181 59.809 41.2409 59.7309C40.8004 59.288 40.346 58.8695 39.8731 58.4614C39.6421 58.2602 39.4228 58.0502 39.2072 57.8326C39.1328 57.7578 39.0584 57.6831 38.9818 57.606C38.9077 57.531 38.8335 57.4559 38.7572 57.3786C38.6796 57.3004 38.6019 57.2223 38.5219 57.1417C38.3334 56.9519 38.1452 56.7618 37.9572 56.5714C37.576 56.7373 37.3258 56.9462 37.0335 57.2402C36.9458 57.3281 36.8581 57.4161 36.7677 57.5067C36.677 57.5988 36.5863 57.6909 36.4929 57.7857C36.4036 57.8751 36.3142 57.9646 36.2222 58.0567C35.8233 58.4585 35.4355 58.8637 35.0656 59.2924C34.6526 59.767 34.2154 60.2117 33.7679 60.6536C33.6872 60.7338 33.6066 60.8141 33.5234 60.8968C33.1825 61.2359 32.8408 61.5743 32.4992 61.9128C32.2481 62.1619 31.9973 62.4113 31.7465 62.6607C31.6706 62.7356 31.5948 62.8105 31.5166 62.8877C31.1545 63.248 30.8053 63.6133 30.4715 64C30.0671 64.4684 29.6366 64.9047 29.1965 65.3393C29.1158 65.4195 29.0351 65.4998 28.952 65.5825C28.611 65.9216 28.2694 66.26 27.9278 66.5985C27.6766 66.8476 27.4258 67.097 27.1751 67.3464C27.0992 67.4213 27.0233 67.4963 26.9452 67.5734C26.583 67.9337 26.2339 68.299 25.9001 68.6857C25.4957 69.1541 25.0652 69.5904 24.6251 70.025C24.5444 70.1053 24.4637 70.1855 24.3806 70.2682C24.0396 70.6073 23.698 70.9457 23.3564 71.2842C23.1052 71.5333 22.8544 71.7827 22.6036 72.0322C22.5278 72.1071 22.4519 72.182 22.3738 72.2591C22.0116 72.6194 21.6625 72.9847 21.3286 73.3714C20.9243 73.8398 20.4937 74.2761 20.0536 74.7107C19.9729 74.791 19.8923 74.8712 19.8091 74.9539C19.4682 75.293 19.1265 75.6314 18.7849 75.9699C18.5338 76.219 18.283 76.4684 18.0322 76.7179C17.9563 76.7928 17.8805 76.8677 17.8023 76.9449C17.3601 77.3848 16.9409 77.8375 16.5356 78.3118C16.1717 78.7248 15.8729 79.0541 15.3072 79.1429C14.9564 79.0805 14.8498 79.026 14.6429 78.7429C14.4714 78.3999 14.5129 78.0492 14.5157 77.6732C14.5161 77.5833 14.5164 77.4934 14.5168 77.4008C14.5912 67.2816 14.9677 56.4239 19.4429 44.3429C19.5019 44.2054 19.5019 44.2054 19.562 44.0651C20.9392 40.8872 23.0342 38.4355 25.4808 36.0234C25.622 35.8837 25.622 35.8837 25.7661 35.7411C25.8915 35.6177 25.8915 35.6177 26.0194 35.4919C26.2477 35.2544 26.4637 35.0134 26.6787 34.7642C27.0911 34.2895 27.5278 33.8452 27.9751 33.4036C28.0961 33.2832 28.0961 33.2832 28.2195 33.1604C28.5605 32.8213 28.9022 32.4829 29.2438 32.1444C29.4949 31.8953 29.7457 31.6459 29.9965 31.3964C30.0723 31.3215 30.1482 31.2466 30.2264 31.1694C30.5885 30.8092 30.9376 30.4439 31.2715 30.0571C31.6758 29.5888 32.1064 29.1525 32.5465 28.7179C32.6675 28.5975 32.6675 28.5975 32.791 28.4747C33.1319 28.1356 33.4736 27.7971 33.8152 27.4587C34.0663 27.2096 34.3171 26.9602 34.5679 26.7107C34.6817 26.5984 34.6817 26.5984 34.7978 26.4837C35.242 26.0418 35.6634 25.587 36.0715 25.1115C36.2872 24.8633 36.5155 24.6304 36.7501 24.4C36.8277 24.3234 36.9053 24.2468 36.9853 24.1679C37.042 24.1125 37.0988 24.0571 37.1572 24C36.9741 23.545 36.6564 23.2394 36.3135 22.9013C36.2221 22.81 36.2221 22.81 36.1288 22.7169C35.9998 22.5882 35.8705 22.4598 35.7409 22.3316C35.5454 22.1382 35.3508 21.9438 35.1563 21.7493C35.0302 21.6238 34.904 21.4982 34.7777 21.3728C34.7207 21.3158 34.6636 21.2589 34.6048 21.2002C34.2877 20.8873 33.9626 20.5886 33.6253 20.2975C33.1539 19.8886 32.7134 19.4546 32.2751 19.0107C32.1547 18.8897 32.1547 18.8897 32.0319 18.7662C31.6928 18.4253 31.3543 18.0836 31.0159 17.742C30.7668 17.4909 30.5174 17.2401 30.2679 16.9893C30.193 16.9134 30.1181 16.8376 30.0409 16.7594C29.6807 16.3973 29.3154 16.0481 28.9286 15.7143C28.4602 15.31 28.024 14.8794 27.5893 14.4393C27.469 14.3183 27.469 14.3183 27.3462 14.1948C27.007 13.8538 26.6686 13.5122 26.3301 13.1706C26.0811 12.9194 25.8316 12.6686 25.5822 12.4179C25.5073 12.342 25.4324 12.2661 25.3552 12.188C24.9949 11.8259 24.6297 11.4767 24.2429 11.1429C23.7745 10.7385 23.3382 10.308 22.9036 9.86786C22.7833 9.74684 22.7833 9.74684 22.6605 9.62337C22.3213 9.28241 21.9829 8.94076 21.6444 8.59917C21.3953 8.34801 21.1459 8.09722 20.8965 7.84643C20.8216 7.77057 20.7467 7.69472 20.6695 7.61656C20.3095 7.25467 19.9445 6.90576 19.558 6.57218C19.085 6.16392 18.6447 5.72874 18.2059 5.28438C18.1248 5.20288 18.0437 5.12139 17.9602 5.03742C17.7042 4.77999 17.4485 4.52219 17.1929 4.26429C16.8547 3.92303 16.5161 3.58216 16.1773 3.24152C16.1006 3.16389 16.0239 3.08627 15.9449 3.00629C15.5651 2.62445 15.1796 2.27801 14.7572 1.94286C14.5929 1.61432 14.5993 1.39212 14.6429 1.02857C15.0855 0.559058 15.461 0.510572 16.0768 0.537056Z" fill="#00AD46"/>
<path d="M41.1571 23.7714C42.2941 24.3266 43.3001 24.9801 44.2429 25.8286C44.3 25.8796 44.3572 25.9307 44.4161 25.9833C44.8207 26.3453 45.2189 26.7136 45.6143 27.0857C45.6896 27.1561 45.7648 27.2266 45.8424 27.2991C46.3749 27.8131 46.8347 28.3824 47.2959 28.9602C47.4506 29.1525 47.6077 29.3426 47.7652 29.5326C48.652 30.6099 49.4391 31.736 50.1857 32.9143C50.2411 33.0016 50.2964 33.0889 50.3535 33.1788C51.3896 34.8275 52.2779 36.5501 53.1571 38.2857C53.0676 38.3706 52.978 38.4554 52.8857 38.5429C52.4046 39.0469 52.3277 39.3336 52.3429 40.0286C52.3449 40.1517 52.347 40.2749 52.3491 40.4018C52.3518 40.4955 52.3544 40.5892 52.3571 40.6857C52.2282 40.7441 52.0993 40.8024 51.9665 40.8625C48.9731 42.2366 46.108 43.9669 43.5571 46.0571C43.4989 46.1046 43.4406 46.152 43.3806 46.2008C42.9368 46.5636 42.5019 46.9357 42.0714 47.3143C42.0015 47.3756 41.9316 47.4369 41.8596 47.5001C39.9997 49.1448 37.5328 51.6836 37.3625 54.2996C37.3526 55.0023 37.3505 55.5 37.7286 56.1143C37.7286 56.5714 37.7286 56.5714 37.5314 56.8186C37.4408 56.9062 37.3501 56.9937 37.2567 57.0839C37.1572 57.1815 37.0577 57.279 36.9551 57.3795C36.8497 57.4805 36.7443 57.5816 36.6357 57.6857C36.4305 57.8848 36.2256 58.0842 36.021 58.2839C35.9294 58.372 35.8378 58.4601 35.7435 58.5508C35.5056 58.7932 35.2831 59.0381 35.0614 59.295C34.6503 59.7693 34.2143 60.2127 33.7679 60.6536C33.6468 60.7739 33.6468 60.7739 33.5234 60.8968C33.1824 61.2359 32.8408 61.5743 32.4992 61.9128C32.248 62.1619 31.9972 62.4113 31.7464 62.6607C31.6706 62.7356 31.5947 62.8105 31.5166 62.8877C31.1544 63.248 30.8053 63.6133 30.4714 64C30.0671 64.4684 29.6365 64.9047 29.1964 65.3393C29.0754 65.4597 29.0754 65.4597 28.9519 65.5825C28.611 65.9216 28.2693 66.26 27.9277 66.5985C27.6766 66.8476 27.4258 67.097 27.175 67.3464C27.0991 67.4213 27.0233 67.4962 26.9451 67.5734C26.583 67.9337 26.2338 68.299 25.9 68.6857C25.4957 69.1541 25.0651 69.5904 24.625 70.025C24.504 70.1454 24.504 70.1454 24.3805 70.2682C24.0395 70.6073 23.6979 70.9457 23.3563 71.2842C23.1051 71.5333 22.8544 71.7827 22.6036 72.0321C22.5277 72.1071 22.4519 72.182 22.3737 72.2591C22.0116 72.6194 21.6624 72.9847 21.3286 73.3714C20.9242 73.8398 20.4937 74.2761 20.0536 74.7107C19.9325 74.8311 19.9325 74.8311 19.8091 74.9539C19.4681 75.293 19.1265 75.6314 18.7849 75.9699C18.5337 76.219 18.2829 76.4684 18.0321 76.7179C17.9563 76.7928 17.8804 76.8677 17.8023 76.9449C17.36 77.3848 16.9408 77.8375 16.5356 78.3118C16.1717 78.7248 15.8728 79.0541 15.3071 79.1429C14.9564 79.0805 14.8497 79.026 14.6429 78.7429C14.4714 78.3999 14.5129 78.0492 14.5156 77.6732C14.516 77.5833 14.5164 77.4934 14.5168 77.4008C14.5911 67.2815 14.9676 56.4239 19.4429 44.3429C19.5018 44.2054 19.5018 44.2054 19.5619 44.0651C20.9391 40.8872 23.0341 38.4355 25.4807 36.0234C25.5749 35.9302 25.6691 35.8371 25.7661 35.7411C25.8496 35.6588 25.9332 35.5766 26.0193 35.4919C26.2477 35.2544 26.4636 35.0134 26.6787 34.7642C27.091 34.2895 27.5278 33.8452 27.975 33.4036C28.096 33.2832 28.096 33.2832 28.2195 33.1604C28.5605 32.8213 28.9021 32.4829 29.2437 32.1444C29.4948 31.8953 29.7456 31.6459 29.9964 31.3964C30.0723 31.3215 30.1481 31.2466 30.2263 31.1694C30.5884 30.8092 30.9376 30.4439 31.2714 30.0571C31.6758 29.5887 32.1063 29.1525 32.5464 28.7179C32.6271 28.6376 32.7078 28.5574 32.7909 28.4747C33.1319 28.1356 33.4735 27.7971 33.8151 27.4587C34.0663 27.2096 34.3171 26.9602 34.5679 26.7107C34.6437 26.6358 34.7196 26.5609 34.7977 26.4837C35.2419 26.0419 35.6636 25.587 36.0722 25.112C37.5633 23.3849 38.9448 22.7665 41.1571 23.7714Z" fill="#017CED"/>
<path d="M92.3811 0.609161C92.7765 0.704067 92.9035 0.828568 93.1572 1.14287C93.2105 1.43042 93.2105 1.43042 93.2049 1.75704C93.2038 1.87929 93.2028 2.00154 93.2018 2.1275C93.1983 2.25927 93.1947 2.39103 93.1911 2.5268C93.1892 2.6644 93.1872 2.80201 93.1852 2.94378C93.1784 3.37214 93.1681 3.80031 93.1572 4.22858C93.1519 4.4791 93.1466 4.72962 93.1413 4.98014C93.1238 5.72984 93.0988 6.47918 93.0715 7.22858C93.0642 7.43152 93.0642 7.43152 93.0567 7.63855C92.6729 18.0627 92.1757 30.9766 85.8429 39.7714C85.7937 39.8404 85.7444 39.9093 85.6936 39.9803C84.9767 40.9699 84.1574 41.8288 83.2804 42.6777C83.0055 42.9463 82.7486 43.2226 82.499 43.5148C82.0921 43.9827 81.6626 44.4217 81.2215 44.8572C81.1043 44.9737 81.1043 44.9737 80.9847 45.0926C80.6546 45.4208 80.3239 45.7483 79.9932 46.0759C79.75 46.317 79.5072 46.5585 79.2643 46.8C79.191 46.8724 79.1176 46.9448 79.042 47.0194C78.6862 47.3734 78.3439 47.7328 78.0159 48.1127C77.611 48.5816 77.18 49.0185 76.7393 49.4536C76.6183 49.574 76.6183 49.574 76.4948 49.6968C76.1539 50.0359 75.8122 50.3743 75.4706 50.7128C75.2195 50.9619 74.9687 51.2113 74.7179 51.4607C74.6421 51.5356 74.5662 51.6105 74.488 51.6877C74.0493 52.1242 73.635 52.5743 73.2306 53.0427C72.7946 53.5408 72.3216 54.0042 71.8546 54.4729C71.671 54.6576 71.4887 54.8435 71.3063 55.0295C71.1876 55.1489 71.0689 55.2682 70.9501 55.3875C70.8444 55.4942 70.7388 55.6009 70.63 55.7108C69.8479 56.3963 69.1693 56.5494 68.1367 56.5085C67.4576 56.4519 66.8976 56.2013 66.3001 55.8857C66.1972 55.8361 66.0944 55.7864 65.9884 55.7353C64.4945 54.9797 63.2713 53.8332 62.0715 52.6857C61.994 52.613 61.9165 52.5402 61.8367 52.4652C61.3065 51.9546 60.8496 51.3874 60.3909 50.8127C60.2329 50.6162 60.0729 50.4214 59.9126 50.2268C59.1183 49.257 58.4017 48.2572 57.7286 47.2C57.6567 47.0886 57.5848 46.9773 57.5108 46.8625C56.975 46.0135 56.4845 45.1393 55.9929 44.2643C55.925 44.1434 55.857 44.0226 55.787 43.8981C55.594 43.5522 55.4035 43.2051 55.2143 42.8572C55.155 42.7495 55.0957 42.6419 55.0346 42.531C54.9812 42.4305 54.9278 42.3299 54.8728 42.2264C54.8255 42.1383 54.7781 42.0502 54.7294 41.9595C54.6258 41.6657 54.6402 41.5432 54.7572 41.2572C54.9453 41.0267 55.1358 40.798 55.3286 40.5714C55.4435 40.2269 55.4547 39.9952 55.4501 39.6357C55.449 39.5327 55.448 39.4298 55.4469 39.3237C55.4456 39.2452 55.4443 39.1666 55.4429 39.0857C55.5059 39.0554 55.5689 39.0251 55.6338 38.9939C61.1303 36.3352 67.8229 32.3759 70.2014 26.4174C70.3187 25.9891 70.3421 25.5836 70.3429 25.1429C70.3457 25.0645 70.3485 24.9861 70.3514 24.9054C70.3549 24.2963 70.2074 24.0039 69.8429 23.5429C69.9962 23.2012 70.1649 22.9646 70.4309 22.7021C70.5038 22.6296 70.5768 22.5571 70.6519 22.4824C70.7701 22.3665 70.7701 22.3665 70.8907 22.2482C71.0129 22.1269 71.0129 22.1269 71.1376 22.0031C71.3984 21.7444 71.6599 21.4864 71.9215 21.2286C72.181 20.9723 72.4403 20.7158 72.6992 20.459C72.8602 20.2994 73.0215 20.1401 73.1831 19.9812C73.6235 19.5452 74.0375 19.0958 74.4421 18.6267C74.7842 18.2406 75.151 17.8802 75.5179 17.5179C75.6389 17.3975 75.6389 17.3975 75.7624 17.2747C76.1034 16.9356 76.445 16.5971 76.7866 16.2587C77.0378 16.0096 77.2886 15.7602 77.5393 15.5107C77.6531 15.3984 77.6531 15.3984 77.7692 15.2837C78.1313 14.9235 78.4805 14.5582 78.8143 14.1714C79.2187 13.703 79.6492 13.2668 80.0893 12.8322C80.2104 12.7118 80.2104 12.7118 80.3338 12.589C80.6748 12.2499 81.0164 11.9114 81.358 11.5729C81.6092 11.3239 81.86 11.0745 82.1108 10.825C82.1866 10.7501 82.2625 10.6752 82.3406 10.598C82.7028 10.2378 83.0519 9.87247 83.3858 9.48572C83.7901 9.01733 84.2206 8.58106 84.6608 8.14644C84.7415 8.06619 84.8221 7.98594 84.9053 7.90326C85.2462 7.56414 85.5879 7.22572 85.9295 6.88723C86.1806 6.63816 86.4314 6.38874 86.6822 6.1393C86.7581 6.06439 86.8339 5.98948 86.9121 5.9123C87.3466 5.48005 87.7565 5.03444 88.157 4.57059C88.7242 3.92549 89.3385 3.32195 89.9424 2.71139C90.1103 2.54097 90.2775 2.36982 90.4441 2.198C90.6862 1.9482 90.9306 1.70069 91.1755 1.45358C91.2494 1.37645 91.3234 1.29933 91.3996 1.21986C91.729 0.891966 91.9186 0.705722 92.3811 0.609161Z" fill="#00C6D3"/>
<path d="M16.0768 0.537056C16.1651 0.538978 16.2535 0.540899 16.3445 0.542879C16.5436 0.547599 16.7427 0.553463 16.9418 0.560264C17.2935 0.57218 17.6453 0.580849 17.9971 0.589121C28.3942 0.846712 39.5834 1.20152 57.1705 10.9889C57.2441 11.0636 57.3178 11.1382 57.3938 11.2152C57.4583 11.2811 57.5228 11.3469 57.5893 11.4148C57.812 11.6277 58.0398 11.8289 58.2729 12.0301C58.7494 12.4445 59.1958 12.883 59.6393 13.3321C59.7597 13.4532 59.7597 13.4532 59.8825 13.5766C60.2216 13.9176 60.56 14.2592 60.8985 14.6008C61.1476 14.852 61.397 15.1028 61.6464 15.3536C61.7213 15.4294 61.7963 15.5053 61.8734 15.5834C62.3062 16.0184 62.7528 16.4277 63.2172 16.8286C63.5941 17.1626 63.9463 17.5203 64.3 17.8786C64.4166 17.9958 64.4166 17.9958 64.5355 18.1154C64.8637 18.4454 65.1912 18.7761 65.5188 19.1068C65.7599 19.35 66.0014 19.5929 66.2429 19.8357C66.3153 19.9091 66.3877 19.9824 66.4623 20.058C66.8967 20.4947 67.3453 20.9071 67.8115 21.3097C68.2077 21.6536 68.5778 22.0235 68.95 22.3929C69.0283 22.4688 69.1066 22.5447 69.1873 22.623C69.7995 23.2305 70.3404 23.799 70.4902 24.6696C70.4797 25.7142 70.3385 26.4887 69.8429 27.4286C69.7945 27.5301 69.7462 27.6316 69.6964 27.7362C68.9277 29.2715 67.7064 30.5418 66.5286 31.7714C66.407 31.9 66.407 31.9 66.283 32.0313C65.686 32.6478 65.0337 33.1877 64.3571 33.7143C64.2763 33.7773 64.1955 33.8402 64.1123 33.9051C62.7574 34.9549 61.3717 35.9214 59.9 36.8C59.8032 36.8579 59.7064 36.9158 59.6066 36.9754C58.217 37.8007 56.8009 38.5337 55.3286 39.2C55.1879 39.0265 55.0472 38.8531 54.9066 38.6796C54.6808 38.4298 54.5156 38.359 54.1857 38.2857C53.9886 38.2808 53.7914 38.2797 53.5942 38.2813C53.491 38.2819 53.3879 38.2825 53.2816 38.2832C53.1634 38.2844 53.1634 38.2844 53.0429 38.2857C53.0126 38.2227 52.9823 38.1597 52.951 38.0948C50.3123 32.6397 46.4447 26.1036 40.5857 23.6571C39.7759 23.3824 38.7496 23.2022 37.9299 23.5313C37.7241 23.6624 37.7241 23.6624 37.5 23.8857C37.033 23.701 36.7241 23.3655 36.3804 23.0129C36.3172 22.9492 36.2541 22.8855 36.189 22.8198C35.9874 22.6161 35.7865 22.4117 35.5857 22.2071C35.3865 22.0047 35.1871 21.8025 34.9873 21.6006C34.8633 21.4752 34.7396 21.3496 34.6163 21.2235C34.2967 20.8997 33.9687 20.5928 33.6242 20.2954C33.1528 19.8875 32.7129 19.4541 32.275 19.0107C32.1546 18.8897 32.1546 18.8897 32.0318 18.7662C31.6927 18.4253 31.3543 18.0836 31.0158 17.742C30.7667 17.4909 30.5173 17.2401 30.2679 16.9893C30.193 16.9134 30.118 16.8376 30.0409 16.7594C29.6806 16.3973 29.3153 16.0481 28.9286 15.7143C28.4602 15.3099 28.0239 14.8794 27.5893 14.4393C27.4689 14.3183 27.4689 14.3183 27.3461 14.1948C27.007 13.8538 26.6686 13.5122 26.3301 13.1706C26.081 12.9194 25.8316 12.6686 25.5821 12.4179C25.5072 12.342 25.4323 12.2661 25.3552 12.188C24.9949 11.8259 24.6296 11.4767 24.2429 11.1429C23.7745 10.7385 23.3382 10.308 22.9036 9.86786C22.7832 9.74684 22.7832 9.74684 22.6604 9.62337C22.3213 9.28241 21.9829 8.94076 21.6444 8.59917C21.3953 8.34801 21.1459 8.09722 20.8964 7.84643C20.8215 7.77057 20.7466 7.69472 20.6694 7.61656C20.3094 7.25467 19.9444 6.90576 19.5579 6.57218C19.0849 6.16392 18.6447 5.72874 18.2058 5.28438C18.1247 5.20288 18.0437 5.12139 17.9602 5.03742C17.7041 4.77999 17.4484 4.52219 17.1929 4.26429C16.8547 3.92303 16.5161 3.58216 16.1772 3.24152C16.1006 3.16389 16.0239 3.08627 15.9449 3.00629C15.565 2.62445 15.1796 2.27801 14.7571 1.94286C14.5929 1.61432 14.5992 1.39212 14.6429 1.02857C15.0855 0.559058 15.461 0.510572 16.0768 0.537056Z" fill="#E33921"/>
<path d="M159.75 33.1071C159.899 33.1038 160.048 33.1005 160.202 33.0971C160.346 33.0961 160.489 33.0952 160.637 33.0942C160.832 33.0917 160.832 33.0917 161.031 33.0891C161.462 33.1544 161.648 33.299 161.957 33.6C162.135 33.956 162.102 34.3309 162.107 34.7214C162.112 34.8435 162.112 34.8435 162.117 34.9681C162.122 35.3901 162.087 35.6329 161.862 35.9942C161.459 36.3758 161.107 36.3575 160.574 36.3629C160.436 36.3657 160.297 36.3684 160.154 36.3712C159.864 36.3761 159.573 36.3797 159.283 36.3819C158.47 36.4004 157.728 36.4355 157.043 36.9143C155.944 38.2061 156.194 39.8405 156.129 41.4857C158.731 41.4857 161.333 41.4857 164.014 41.4857C163.987 38.9538 163.987 38.9538 163.953 36.422C163.949 35.9313 163.949 35.9313 163.949 35.7012C163.948 35.5413 163.945 35.3813 163.942 35.2213C163.914 33.8832 163.914 33.8832 164.152 33.4814C164.476 33.1887 164.817 33.0706 165.247 33.071C165.345 33.0708 165.444 33.0705 165.545 33.0703C165.646 33.073 165.746 33.0758 165.85 33.0786C165.951 33.0773 166.052 33.0761 166.157 33.0748C166.642 33.0802 166.916 33.0992 167.335 33.3612C167.763 33.8211 167.688 34.2709 167.687 34.8682C167.687 34.9773 167.687 35.0864 167.688 35.1988C167.688 35.5666 167.688 35.9344 167.688 36.3022C167.688 36.5649 167.689 36.8277 167.689 37.0905C167.69 37.8059 167.691 38.5214 167.691 39.2369C167.691 39.8333 167.691 40.4297 167.692 41.0262C167.692 42.3525 167.693 43.6788 167.693 45.0052C167.693 45.0848 167.693 45.1644 167.693 45.2465C167.693 45.3262 167.693 45.4059 167.693 45.4881C167.693 46.7803 167.694 48.0726 167.695 49.3648C167.697 50.6909 167.698 52.0169 167.698 53.343C167.698 54.0878 167.698 54.8326 167.699 55.5774C167.7 56.2778 167.7 56.9781 167.699 57.6784C167.699 57.9359 167.7 58.1933 167.7 58.4508C167.701 58.8014 167.701 59.1521 167.7 59.5027C167.7 59.6053 167.701 59.7079 167.702 59.8135C167.701 59.9075 167.7 60.0014 167.7 60.0982C167.7 60.2196 167.7 60.2196 167.7 60.3434C167.666 60.6141 167.584 60.796 167.443 61.0286C166.965 61.3461 166.468 61.295 165.914 61.2929C165.819 61.2947 165.723 61.2965 165.624 61.2984C165.041 61.2989 164.631 61.2423 164.129 60.9143C163.977 60.6117 164 60.3855 164.001 60.0465C164 59.8426 164 59.8426 164 59.6346C164.001 59.4848 164.001 59.3349 164.001 59.1805C164.001 59.0217 164.001 58.8629 164.001 58.7041C164.001 58.2723 164.002 57.8404 164.003 57.4086C164.003 56.9576 164.004 56.5065 164.004 56.0555C164.004 55.2011 164.005 54.3467 164.006 53.4922C164.008 52.3379 164.008 51.1835 164.009 50.0292C164.01 48.2099 164.012 46.3907 164.014 44.5714C161.412 44.5714 158.81 44.5714 156.129 44.5714C156.133 45.7116 156.137 46.8517 156.141 48.0263C156.142 48.7477 156.144 49.469 156.145 50.1904C156.147 51.3359 156.15 52.4814 156.154 53.6269C156.158 54.4612 156.16 55.2954 156.161 56.1296C156.161 56.5713 156.162 57.013 156.165 57.4548C156.167 57.8706 156.168 58.2864 156.167 58.7022C156.168 58.9275 156.169 59.1527 156.171 59.3779C156.171 59.5124 156.17 59.6468 156.17 59.7853C156.17 59.902 156.17 60.0186 156.171 60.1387C156.121 60.5143 156.01 60.7251 155.786 61.0286C155.3 61.3522 154.885 61.2949 154.314 61.2929C154.16 61.2956 154.16 61.2956 154.003 61.2984C153.436 61.2989 153.047 61.283 152.586 60.9143C152.471 60.8 152.471 60.8 152.457 60.5325C152.458 60.4129 152.458 60.2934 152.458 60.1702C152.458 60.0335 152.457 59.8967 152.457 59.7559C152.458 59.603 152.458 59.4502 152.458 59.2973C152.459 59.1374 152.459 58.9775 152.458 58.8176C152.458 58.3822 152.459 57.9468 152.46 57.5114C152.461 57.0569 152.461 56.6023 152.461 56.1478C152.461 55.2865 152.462 54.4252 152.463 53.5638C152.465 52.5835 152.465 51.6032 152.466 50.6229C152.467 48.6057 152.469 46.5886 152.471 44.5714C152.367 44.5738 152.263 44.5762 152.155 44.5787C151.767 44.5865 151.378 44.5922 150.989 44.5965C150.821 44.5988 150.653 44.6019 150.485 44.6059C150.243 44.6115 150.001 44.6141 149.759 44.6161C149.614 44.6185 149.469 44.6209 149.319 44.6233C148.863 44.5627 148.678 44.4373 148.357 44.1143C148.283 43.8826 148.283 43.8826 148.281 43.6397C148.281 43.551 148.28 43.4622 148.279 43.3708C148.281 43.2791 148.283 43.1873 148.286 43.0929C148.282 42.956 148.282 42.956 148.279 42.8163C148.28 42.7274 148.281 42.6385 148.281 42.5469C148.282 42.4666 148.283 42.3863 148.283 42.3036C148.402 41.909 148.607 41.7356 148.929 41.4857C149.319 41.4208 149.319 41.4208 149.759 41.4299C149.837 41.4307 149.915 41.4315 149.995 41.4324C150.242 41.4355 150.489 41.4427 150.736 41.45C150.904 41.4529 151.072 41.4555 151.24 41.4578C151.651 41.4641 152.061 41.4739 152.471 41.4857C152.469 41.3908 152.467 41.2959 152.464 41.1982C152.363 36.5659 152.363 36.5659 153.969 34.8254C155.584 33.2929 157.627 33.123 159.75 33.1071Z" fill="#1E1E1E"/>
<path d="M194.579 41.4357C194.74 41.4323 194.74 41.4323 194.905 41.4288C195.009 41.4289 195.113 41.4289 195.221 41.429C195.316 41.4288 195.41 41.4286 195.508 41.4284C195.89 41.5073 196.073 41.678 196.357 41.9429C196.496 42.2296 196.496 42.2296 196.593 42.5588C196.631 42.6843 196.669 42.8097 196.708 42.939C196.747 43.0764 196.786 43.2138 196.827 43.3554C196.87 43.5023 196.914 43.6491 196.958 43.7959C197.053 44.1138 197.146 44.4321 197.239 44.7506C197.389 45.2681 197.542 45.7846 197.695 46.3011C197.995 47.315 198.292 48.3298 198.589 49.3449C198.728 49.8209 198.867 50.2968 199.006 50.7728C199.164 51.3107 199.321 51.8486 199.478 52.3866C199.808 53.5153 200.139 54.6435 200.471 55.7714C200.669 55.4033 200.801 55.0316 200.93 54.6342C200.974 54.4958 201.019 54.3574 201.065 54.2149C201.114 54.0627 201.163 53.9106 201.212 53.7585C201.263 53.5994 201.315 53.4403 201.366 53.2813C201.476 52.9424 201.585 52.6034 201.694 52.2644C201.836 51.8235 201.978 51.3828 202.121 50.9421C202.669 49.2476 203.213 47.5522 203.746 45.8527C203.824 45.6032 203.903 45.3537 203.981 45.1042C204.125 44.6491 204.266 44.1935 204.406 43.7376C204.47 43.5347 204.534 43.3319 204.597 43.129C204.625 43.0391 204.652 42.9493 204.68 42.8567C204.839 42.3547 205.015 41.9891 205.386 41.6C205.785 41.4006 206.232 41.4501 206.671 41.4429C206.768 41.4386 206.865 41.4343 206.965 41.4299C207.059 41.4286 207.154 41.4273 207.252 41.4259C207.381 41.4225 207.381 41.4225 207.512 41.419C207.948 41.5254 208.207 41.7036 208.471 42.0572C208.714 42.5977 208.882 43.1583 209.053 43.7241C209.106 43.8934 209.16 44.0626 209.213 44.2317C209.356 44.6841 209.496 45.1373 209.635 45.5907C209.779 46.0587 209.926 46.5259 210.073 46.9931C210.307 47.7395 210.54 48.4863 210.772 49.2334C211.177 50.5355 211.589 51.8349 212.004 53.1337C212.113 53.4738 212.221 53.8141 212.328 54.1544C212.392 54.3564 212.456 54.5583 212.521 54.7603C212.549 54.8511 212.578 54.9418 212.607 55.0354C212.71 55.435 212.71 55.435 212.929 55.7714C213.166 54.976 213.404 54.1804 213.642 53.3849C213.75 53.0222 213.858 52.6596 213.967 52.297C214.44 50.7114 214.911 49.1249 215.375 47.5363C215.446 47.2942 215.517 47.0521 215.588 46.81C215.611 46.7311 215.634 46.6523 215.658 46.571C215.704 46.4133 215.75 46.2557 215.796 46.098C215.931 45.6353 216.066 45.1723 216.2 44.7092C216.304 44.3518 216.409 43.9947 216.513 43.6375C216.55 43.5086 216.588 43.3797 216.626 43.247C216.661 43.1282 216.696 43.0095 216.732 42.8872C216.762 42.7842 216.792 42.6813 216.822 42.5753C217.003 42.0828 217.174 41.779 217.614 41.4857C218.01 41.4364 218.408 41.4487 218.807 41.45C218.971 41.4472 218.971 41.4472 219.138 41.4444C219.243 41.4444 219.348 41.4443 219.457 41.4442C219.553 41.4439 219.649 41.4435 219.748 41.4432C220.083 41.4967 220.234 41.5863 220.471 41.8286C220.686 42.3539 220.496 42.8252 220.335 43.3415C220.306 43.4375 220.278 43.5334 220.248 43.6323C220.15 43.9577 220.05 44.2824 219.95 44.6072C219.879 44.8412 219.808 45.0753 219.737 45.3094C219.534 45.9789 219.33 46.6478 219.125 47.3167C218.978 47.7974 218.831 48.2782 218.685 48.7591C218.646 48.8862 218.646 48.8862 218.607 49.0158C218.554 49.1897 218.501 49.3636 218.448 49.5375C218.095 50.6973 217.741 51.8569 217.385 53.0159C217.358 53.1033 217.332 53.1907 217.304 53.2808C217.198 53.6273 217.091 53.9739 216.985 54.3204C216.661 55.3769 216.34 56.4345 216.025 57.4938C215.933 57.8026 215.84 58.1114 215.748 58.4202C215.693 58.6038 215.639 58.7875 215.585 58.9715C215.514 59.2163 215.441 59.4604 215.367 59.7045C215.329 59.8352 215.291 59.966 215.251 60.1007C215.065 60.5392 214.858 60.7992 214.529 61.1429C214.057 61.3 213.615 61.2827 213.121 61.2857C212.977 61.2893 212.977 61.2893 212.83 61.2929C212.249 61.2965 211.809 61.2749 211.329 60.9143C210.934 60.2925 210.714 59.5832 210.491 58.8866C210.439 58.7253 210.439 58.7253 210.385 58.5606C210.27 58.2073 210.157 57.8537 210.043 57.5C209.963 57.2523 209.882 57.0047 209.802 56.7571C209.133 54.6913 208.471 52.6232 207.812 50.5543C207.295 48.931 207.295 48.931 206.757 47.3143C206.521 47.6688 206.415 47.9638 206.285 48.3684C206.25 48.4763 206.25 48.4763 206.214 48.5864C206.137 48.8257 206.06 49.0653 205.984 49.3049C205.929 49.4741 205.874 49.6432 205.82 49.8124C205.704 50.1717 205.588 50.5312 205.473 50.8907C205.293 51.4494 205.113 52.0077 204.932 52.5661C204.46 54.0295 203.988 55.4932 203.521 56.9585C203.385 57.3852 203.249 57.8116 203.112 58.2379C203.024 58.5146 202.937 58.7916 202.849 59.0686C202.797 59.2328 202.744 59.397 202.692 59.5612C202.648 59.6975 202.605 59.8337 202.561 59.9741C202.369 60.4576 202.158 60.9042 201.707 61.1835C201.256 61.2868 200.825 61.2947 200.364 61.2929C200.275 61.2947 200.185 61.2965 200.092 61.2984C199.528 61.2989 199.116 61.2523 198.643 60.9143C198.296 60.3717 198.071 59.8375 197.887 59.22C197.847 59.0906 197.847 59.0906 197.806 58.9586C197.719 58.6731 197.633 58.3873 197.546 58.1013C197.484 57.8974 197.422 57.6934 197.359 57.4895C197.192 56.9424 197.026 56.3948 196.86 55.8472C196.688 55.2793 196.515 54.7117 196.342 54.144C196.132 53.4538 195.922 52.7635 195.713 52.073C195.302 50.7174 194.887 49.3629 194.468 48.0096C194.306 47.4851 194.145 46.9605 193.984 46.4357C193.859 46.0289 193.733 45.6223 193.606 45.216C193.468 44.7704 193.331 44.3241 193.195 43.8777C193.154 43.7482 193.113 43.6186 193.071 43.4852C193.035 43.3663 192.999 43.2474 192.962 43.125C192.931 43.0228 192.899 42.9207 192.867 42.8154C192.804 42.4543 192.841 42.1831 192.929 41.8286C193.393 41.3415 193.949 41.431 194.579 41.4357Z" fill="#1E1E1E"/>
<path d="M111.593 34.6C111.72 34.5976 111.848 34.5953 111.979 34.5929C112.687 34.5895 113.229 34.6035 113.843 34.9714C114.097 35.2697 114.254 35.5541 114.391 35.9198C114.428 36.017 114.465 36.1143 114.503 36.2145C114.542 36.32 114.582 36.4256 114.622 36.5344C114.664 36.6458 114.706 36.7573 114.749 36.8722C114.841 37.1138 114.931 37.3556 115.022 37.5974C115.167 37.9844 115.312 38.371 115.458 38.7575C115.609 39.1582 115.76 39.5588 115.911 39.9596C116.352 41.1309 116.798 42.3 117.247 43.4684C117.459 44.021 117.671 44.5737 117.883 45.1263C117.926 45.2383 117.968 45.3503 118.013 45.4657C118.793 47.5009 119.569 49.5374 120.346 51.5736C120.699 52.4967 121.051 53.4196 121.403 54.3426C121.597 54.8483 121.79 55.354 121.983 55.8598C122.089 56.1365 122.194 56.4133 122.3 56.69C122.447 57.0742 122.594 57.4583 122.74 57.8424C122.783 57.9552 122.826 58.068 122.871 58.1842C122.95 58.391 123.029 58.5979 123.107 58.8048C123.177 58.987 123.247 59.169 123.318 59.3507C123.515 59.8611 123.642 60.2498 123.557 60.8C123.307 61.0899 123.105 61.2381 122.723 61.2989C122.409 61.3146 122.1 61.3138 121.786 61.3071C121.679 61.308 121.572 61.3088 121.461 61.3096C120.454 61.3003 120.454 61.3003 120.014 60.9143C119.665 60.4062 119.462 59.8458 119.242 59.2741C119.202 59.1717 119.162 59.0693 119.121 58.9639C118.995 58.638 118.869 58.3119 118.743 57.9857C118.657 57.7655 118.572 57.5452 118.486 57.325C118.33 56.9225 118.174 56.5199 118.018 56.1171C117.987 56.0364 117.956 55.9556 117.924 55.8724C117.854 55.6879 117.791 55.5013 117.729 55.3143C113.693 55.3143 109.658 55.3143 105.5 55.3143C104.897 56.8606 104.293 58.4069 103.671 60C103.129 61.0846 103.129 61.0846 102.643 61.2571C102.242 61.3093 101.847 61.3154 101.443 61.3143C101.336 61.3175 101.229 61.3208 101.118 61.3241C100.601 61.3256 100.322 61.3094 99.8822 61.0179C99.6129 60.5933 99.6316 60.3851 99.6715 59.8857C99.764 59.5454 99.8919 59.223 100.024 58.8964C100.062 58.8007 100.099 58.7049 100.138 58.6063C100.262 58.2894 100.388 57.9733 100.514 57.6571C100.603 57.4319 100.691 57.2066 100.78 56.9812C100.918 56.629 101.056 56.2768 101.195 55.9247C101.636 54.8055 102.067 53.6825 102.496 52.5585C102.71 51.9972 102.925 51.4361 103.139 50.875C103.183 50.7616 103.226 50.6483 103.271 50.5315C103.776 49.2108 104.285 47.8912 104.793 46.5714C105.4 44.9957 106.005 43.4194 106.607 41.842C106.634 41.7712 106.661 41.7004 106.689 41.6275C107.024 40.7493 107.359 39.8709 107.694 38.9924C107.786 38.7502 107.879 38.5081 107.972 38.266C108.18 37.724 108.386 37.1816 108.584 36.6358C108.637 36.493 108.637 36.493 108.69 36.3472C108.755 36.1733 108.818 35.9989 108.879 35.8238C109.069 35.3152 109.266 35.0303 109.729 34.7429C110.307 34.5253 110.984 34.6028 111.593 34.6ZM111.557 38.6286C111.507 38.7618 111.458 38.8951 111.406 39.0324C110.247 42.1372 109.075 45.2372 107.889 48.3322C107.84 48.4609 107.791 48.5896 107.74 48.7223C107.649 48.9613 107.557 49.2004 107.465 49.4393C107.254 49.9905 107.045 50.5424 106.84 51.0958C106.802 51.1981 106.765 51.3003 106.725 51.4057C106.631 51.6492 106.631 51.6492 106.643 51.8857C109.924 51.8857 113.205 51.8857 116.586 51.8857C116.487 51.39 116.348 50.9485 116.17 50.4795C116.138 50.3959 116.107 50.3123 116.075 50.2261C115.969 49.9458 115.863 49.6658 115.757 49.3857C115.682 49.1865 115.607 48.9872 115.532 48.7879C114.756 46.73 113.97 44.6756 113.184 42.6215C112.675 41.2922 112.168 39.9624 111.671 38.6286C111.634 38.6286 111.596 38.6286 111.557 38.6286Z" fill="#1E1E1E"/>
<path d="M41.1571 23.7714C42.2941 24.3266 43.3001 24.9801 44.2429 25.8286C44.3286 25.9051 44.3286 25.9051 44.4161 25.9833C44.8207 26.3453 45.2189 26.7136 45.6143 27.0857C45.6896 27.1561 45.7649 27.2266 45.8424 27.2991C46.3749 27.8131 46.8347 28.3824 47.2959 28.9602C47.4506 29.1525 47.6077 29.3426 47.7652 29.5326C48.652 30.6099 49.4391 31.736 50.1857 32.9143C50.2411 33.0016 50.2964 33.0889 50.3535 33.1788C51.3896 34.8275 52.278 36.5501 53.1571 38.2857C52.8905 38.5524 52.6238 38.8191 52.3571 39.0857C51.8517 39.0434 51.4052 38.8218 50.9473 38.6174C50.7805 38.5443 50.6136 38.4712 50.4467 38.3982C50.3598 38.36 50.2729 38.3218 50.1834 38.2824C48.6293 37.6004 47.0744 36.9607 45.4577 36.4398C45.1493 36.3403 44.8421 36.2378 44.5348 36.1348C42.0814 35.3222 39.6057 34.7401 37.0429 34.4C36.9557 34.3881 36.8685 34.3761 36.7787 34.3638C35.8939 34.2582 35.0038 34.2604 34.1139 34.2583C33.839 34.2572 33.5643 34.2536 33.2895 34.25C31.7303 34.2393 30.1963 34.4076 28.7143 34.9214C28.6313 34.9498 28.5483 34.9782 28.4628 35.0074C27.0126 35.5284 25.5333 36.2299 24.4714 37.3714C24.396 37.3337 24.3206 37.296 24.2429 37.2571C24.301 37.1996 24.3591 37.1421 24.419 37.0828C24.6868 36.8174 24.9541 36.5516 25.2214 36.2857C25.3128 36.1953 25.4043 36.1048 25.4984 36.0116C25.6338 35.8768 25.6338 35.8768 25.7719 35.7393C25.8539 35.6579 25.9359 35.5765 26.0203 35.4926C26.2477 35.2547 26.4635 35.0132 26.6783 34.7643C27.0908 34.2896 27.5277 33.8453 27.975 33.4036C28.096 33.2832 28.096 33.2832 28.2195 33.1604C28.5605 32.8213 28.9021 32.4829 29.2437 32.1444C29.4948 31.8953 29.7456 31.6459 29.9964 31.3964C30.0723 31.3215 30.1481 31.2466 30.2263 31.1694C30.5884 30.8092 30.9376 30.4439 31.2714 30.0571C31.6758 29.5887 32.1063 29.1525 32.5464 28.7179C32.6271 28.6376 32.7078 28.5574 32.7909 28.4747C33.1319 28.1356 33.4735 27.7971 33.8151 27.4587C34.0663 27.2096 34.3171 26.9602 34.5679 26.7107C34.6437 26.6358 34.7196 26.5609 34.7977 26.4837C35.2419 26.0419 35.6636 25.587 36.0722 25.112C37.5633 23.3849 38.9448 22.7665 41.1571 23.7714Z" fill="#0CB5FE"/>
<path d="M52.4714 40.6857C52.7929 40.9928 52.7929 40.9928 53.0429 41.3714C53.0023 41.8336 52.82 42.2305 52.6366 42.6531C52.5757 42.7948 52.5149 42.9366 52.4541 43.0784C52.422 43.1528 52.3899 43.2271 52.3569 43.3038C50.3182 48.0444 48.2647 53.2942 48.2156 58.5308C48.2142 58.6765 48.2142 58.6765 48.2128 58.8251C48.2113 59.03 48.21 59.2348 48.2091 59.4397C48.2078 59.6443 48.2055 59.8489 48.2021 60.0535C48.1699 61.9953 48.3886 63.8783 49.1214 65.6928C49.1599 65.7911 49.1984 65.8893 49.238 65.9906C49.6449 66.993 50.1624 68.1818 50.9857 68.9143C50.948 68.9897 50.9103 69.0651 50.8714 69.1428C50.816 69.0861 50.7606 69.0294 50.7036 68.971C50.627 68.8933 50.5504 68.8157 50.4714 68.7357C50.3601 68.6223 50.3601 68.6223 50.2464 68.5067C50.015 68.2842 49.7804 68.0748 49.5371 67.8659C49.0577 67.4476 48.6076 67.0061 48.1607 66.5536C48.0403 66.4325 48.0403 66.4325 47.9175 66.3091C47.5784 65.9681 47.24 65.6265 46.9015 65.2849C46.6524 65.0337 46.403 64.7829 46.1536 64.5321C46.0787 64.4563 46.0038 64.3804 45.9266 64.3023C45.5663 63.9401 45.201 63.591 44.8143 63.2571C44.3459 62.8528 43.9096 62.4222 43.475 61.9821C43.3948 61.9014 43.3145 61.8208 43.2318 61.7376C42.8927 61.3967 42.5543 61.055 42.2158 60.7134C41.9667 60.4623 41.7173 60.2115 41.4679 59.9607C41.393 59.8848 41.318 59.809 41.2409 59.7308C40.8004 59.2881 40.3463 58.8694 39.8736 58.4614C39.474 58.1141 39.1029 57.7383 38.7286 57.3643C38.6493 57.2864 38.5701 57.2086 38.4884 57.1283C37.7534 56.3955 37.2583 55.8153 37.2429 54.7357C37.2809 52.077 39.389 49.8059 41.1571 48C41.3814 47.7898 41.6094 47.5886 41.8451 47.3915C42.0008 47.2597 42.1528 47.1233 42.3013 46.9835C44.8199 44.6144 47.887 42.8521 50.9214 41.2357C51.0236 41.1806 51.1258 41.1255 51.2311 41.0687C51.3268 41.0185 51.4224 40.9683 51.521 40.9165C51.6053 40.8718 51.6896 40.8272 51.7765 40.7812C52.0143 40.6857 52.0143 40.6857 52.4714 40.6857Z" fill="#03D559"/>
<path d="M55.5935 40.7103C55.9259 40.8076 56.2308 40.9301 56.5473 41.071C56.7374 41.1545 56.7374 41.1545 56.9312 41.2396C57.0671 41.2996 57.2029 41.3596 57.3429 41.4214C58.9347 42.1159 60.5482 42.7353 62.1857 43.3143C62.2931 43.3524 62.4004 43.3906 62.511 43.4299C64.0568 43.9749 65.6213 44.4158 67.2143 44.8C67.3064 44.8225 67.3986 44.8451 67.4935 44.8683C72.2642 46.0175 77.3396 46.0805 81.7259 43.6522C82.099 43.4107 82.4221 43.1485 82.7572 42.8571C82.8326 42.8949 82.908 42.9326 82.9857 42.9714C82.0969 43.9972 81.1353 44.9456 80.1715 45.9C79.8577 46.2107 79.5444 46.5217 79.2313 46.833C79.1611 46.9022 79.091 46.9714 79.0187 47.0427C78.6713 47.3882 78.3381 47.7397 78.0179 48.1107C77.6122 48.5801 77.1806 49.0178 76.7393 49.4536C76.6183 49.5739 76.6183 49.5739 76.4948 49.6967C76.1539 50.0359 75.8122 50.3743 75.4706 50.7128C75.2195 50.9618 74.9687 51.2113 74.7179 51.4607C74.642 51.5356 74.5662 51.6105 74.488 51.6877C74.0493 52.1242 73.6349 52.5743 73.2306 53.0427C72.7946 53.5407 72.3216 54.0042 71.8546 54.4729C71.671 54.6576 71.4886 54.8435 71.3063 55.0295C71.1876 55.1489 71.0689 55.2682 70.95 55.3875C70.8444 55.4942 70.7388 55.6009 70.6299 55.7108C69.8479 56.3963 69.1693 56.5494 68.1366 56.5085C67.4576 56.4519 66.8976 56.2012 66.3 55.8857C66.1972 55.8361 66.0944 55.7864 65.9884 55.7353C64.4945 54.9797 63.2713 53.8332 62.0715 52.6857C61.994 52.6129 61.9165 52.5402 61.8366 52.4652C61.3065 51.9546 60.8496 51.3874 60.3909 50.8127C60.2329 50.6162 60.0729 50.4214 59.9125 50.2268C59.1183 49.257 58.4017 48.2571 57.7286 47.2C57.6567 47.0886 57.5848 46.9772 57.5107 46.8625C56.975 46.0135 56.4845 45.1393 55.9929 44.2643C55.9249 44.1434 55.857 44.0226 55.787 43.898C55.5939 43.5522 55.4035 43.2051 55.2143 42.8571C55.155 42.7495 55.0957 42.6419 55.0346 42.531C54.9812 42.4304 54.9278 42.3299 54.8728 42.2263C54.8255 42.1383 54.7781 42.0502 54.7294 41.9595C54.6261 41.6666 54.6418 41.5425 54.7572 41.2571C55.2222 40.6758 55.2222 40.6758 55.5935 40.7103Z" fill="#10E0ED"/>
<path d="M56.5857 10.5143C57.1302 10.9745 57.6617 11.4459 58.1826 11.9326C58.2562 12.0013 58.3297 12.07 58.4055 12.1408C59.2445 12.9293 60.0546 13.746 60.8643 14.5643C61.159 14.8621 61.4542 15.1595 61.7495 15.4567C61.8144 15.5225 61.8793 15.5884 61.9462 15.6562C62.2805 15.9925 62.6219 16.3137 62.9808 16.6237C63.4417 17.0223 63.8721 17.4451 64.3 17.8786C64.3777 17.9567 64.4554 18.0349 64.5355 18.1154C64.8637 18.4454 65.1912 18.7761 65.5187 19.1068C65.7599 19.35 66.0014 19.5929 66.2428 19.8357C66.3153 19.9091 66.3877 19.9824 66.4623 20.058C66.8966 20.4947 67.3453 20.9071 67.8115 21.3097C68.2077 21.6536 68.5777 22.0235 68.95 22.3929C69.0283 22.4688 69.1066 22.5447 69.1873 22.623C69.7995 23.2305 70.3404 23.799 70.4902 24.6696C70.4797 25.7142 70.3385 26.4887 69.8429 27.4286C69.7945 27.5301 69.7462 27.6316 69.6964 27.7362C68.9277 29.2715 67.7064 30.5418 66.5286 31.7714C66.4475 31.8572 66.3665 31.9429 66.283 32.0312C65.686 32.6478 65.0337 33.1877 64.3571 33.7143C64.2763 33.7773 64.1955 33.8402 64.1123 33.9051C62.7574 34.9549 61.3717 35.9214 59.9 36.8C59.8032 36.8579 59.7064 36.9158 59.6066 36.9754C58.2169 37.8007 56.8008 38.5337 55.3286 39.2C55.2098 39.0806 55.0936 38.9586 54.9786 38.8357C54.8811 38.7343 54.8811 38.7343 54.7817 38.6308C54.6428 38.4 54.6428 38.4 54.6595 38.1331C54.7747 37.7737 54.9152 37.4359 55.0692 37.0911C55.1331 36.9466 55.1969 36.8021 55.2608 36.6576C55.2941 36.5828 55.3274 36.508 55.3617 36.4309C55.8853 35.2525 56.3892 34.0752 56.7973 32.8509C56.8879 32.579 56.9846 32.3091 57.0862 32.0411C57.9071 29.8697 58.5203 27.6436 58.9857 25.3714C59.0048 25.2789 59.0239 25.1863 59.0436 25.0909C59.9556 20.5832 59.9465 15.6354 57.35 11.6643C57.156 11.3846 56.9741 11.1302 56.7308 10.8924C56.5857 10.7429 56.5857 10.7429 56.5857 10.5143Z" fill="#FE7457"/>
<path d="M181.157 41.1143C181.299 41.1119 181.44 41.1096 181.586 41.1072C183.928 41.0974 186.054 41.8256 187.757 43.4572C189.459 45.2342 190.196 47.5442 190.209 49.9741C190.21 50.0749 190.21 50.1757 190.211 50.2796C190.212 50.4926 190.213 50.7057 190.213 50.9187C190.214 51.238 190.218 51.5571 190.221 51.8763C190.238 54.6587 189.715 57.2668 187.721 59.3357C186.644 60.4008 185.372 61.0205 183.9 61.3714C183.747 61.4099 183.747 61.4099 183.591 61.4491C180.983 61.9937 178.095 61.6188 175.836 60.196C173.873 58.815 172.832 56.824 172.357 54.5143C172.263 53.848 172.225 53.1889 172.224 52.5165C172.223 52.4279 172.223 52.3393 172.222 52.248C172.222 52.0618 172.222 51.8756 172.222 51.6894C172.221 51.4098 172.219 51.1303 172.217 50.8507C172.207 47.9761 172.825 45.4185 174.882 43.2964C176.653 41.6307 178.791 41.1239 181.157 41.1143ZM177.133 46.0013C176.052 47.5047 175.993 49.319 175.993 51.1034C175.993 51.3333 175.991 51.5632 175.989 51.7931C175.986 53.7782 176.17 55.7663 177.614 57.2572C178.627 58.2386 179.841 58.5603 181.221 58.6572C182.541 58.6315 183.748 58.2657 184.725 57.367C185.995 56.0278 186.426 54.2924 186.437 52.4826C186.438 52.3993 186.439 52.316 186.439 52.2301C186.441 52.0543 186.441 51.8784 186.442 51.7025C186.443 51.44 186.446 51.1775 186.45 50.915C186.461 49.4713 186.383 47.9677 185.686 46.6714C185.621 46.5474 185.557 46.4233 185.49 46.2955C184.788 45.1629 183.877 44.5495 182.596 44.1938C180.498 43.7875 178.526 44.3508 177.133 46.0013Z" fill="#1E1E1E"/>
<path d="M137.286 41.4098C137.395 41.4091 137.504 41.4084 137.616 41.4076C137.729 41.4098 137.841 41.412 137.957 41.4143C138.126 41.411 138.126 41.411 138.298 41.4076C138.824 41.4111 139.127 41.428 139.573 41.7237C139.835 42.1339 139.865 42.4087 139.879 42.8929C139.884 43.0362 139.889 43.1795 139.895 43.3272C139.897 43.4361 139.898 43.545 139.9 43.6571C139.944 43.5991 139.989 43.5411 140.035 43.4813C141.027 42.2605 142.374 41.7089 143.9 41.4857C144.41 41.4497 144.917 41.4434 145.429 41.4429C145.561 41.4401 145.694 41.4373 145.831 41.4344C146.022 41.4337 146.022 41.4337 146.217 41.433C146.332 41.4321 146.447 41.4312 146.565 41.4302C146.953 41.5004 147.084 41.6415 147.329 41.9429C147.514 42.3131 147.469 42.7151 147.471 43.1214C147.474 43.2083 147.476 43.2951 147.479 43.3846C147.482 43.9132 147.442 44.256 147.1 44.6857C146.791 44.8401 146.543 44.8185 146.197 44.8241C146.06 44.8274 145.922 44.8306 145.781 44.8339C145.493 44.8398 145.206 44.8449 144.918 44.8491C143.455 44.8864 142.053 45.0969 140.95 46.1384C139.77 47.5372 139.949 49.4385 139.953 51.1469C139.952 51.4178 139.95 51.6888 139.949 51.9597C139.945 52.6688 139.944 53.3779 139.943 54.0869C139.942 55.2253 139.938 56.3637 139.933 57.5021C139.931 57.8992 139.931 58.2962 139.932 58.6933C139.931 58.9357 139.93 59.1781 139.929 59.4206C139.93 59.5309 139.93 59.6413 139.931 59.755C139.93 59.8564 139.929 59.9578 139.929 60.0622C139.929 60.194 139.929 60.194 139.929 60.3284C139.896 60.6073 139.817 60.7897 139.671 61.0286C139.169 61.3675 138.605 61.2948 138.021 61.2929C137.914 61.2947 137.806 61.2965 137.695 61.2984C136.699 61.2991 136.699 61.2991 136.243 60.9143C136.081 60.5903 136.113 60.3173 136.111 59.9549C136.11 59.879 136.11 59.8031 136.109 59.725C136.108 59.4696 136.107 59.2142 136.107 58.9588C136.106 58.7762 136.105 58.5935 136.104 58.4109C136.101 57.8101 136.099 57.2093 136.097 56.6085C136.097 56.4018 136.096 56.1952 136.095 55.9885C136.093 55.129 136.091 54.2695 136.09 53.41C136.088 52.1773 136.084 50.9447 136.077 49.7121C136.073 48.8458 136.071 47.9796 136.07 47.1133C136.07 46.5957 136.068 46.0781 136.065 45.5605C136.061 45.0736 136.06 44.5867 136.062 44.0997C136.062 43.921 136.061 43.7423 136.059 43.5636C136.056 43.3195 136.057 43.0756 136.059 42.8315C136.059 42.695 136.058 42.5584 136.058 42.4178C136.189 41.7511 136.619 41.4142 137.286 41.4098Z" fill="#1E1E1E"/>
<path d="M128.143 41.425C128.306 41.4241 128.306 41.4241 128.473 41.4232C128.586 41.425 128.698 41.4268 128.814 41.4286C128.983 41.4259 128.983 41.4259 129.155 41.4232C129.264 41.4238 129.373 41.4244 129.486 41.425C129.584 41.4255 129.683 41.426 129.785 41.4266C130.179 41.508 130.359 41.6585 130.643 41.9429C130.714 42.2905 130.714 42.2905 130.714 42.7063C130.715 42.8212 130.715 42.8212 130.716 42.9384C130.718 43.195 130.716 43.4514 130.713 43.708C130.714 43.892 130.714 44.076 130.715 44.26C130.717 44.7596 130.715 45.2592 130.712 45.7589C130.71 46.2815 130.71 46.8042 130.711 47.3268C130.711 48.2046 130.708 49.0823 130.705 49.96C130.701 50.9751 130.7 51.9902 130.7 53.0052C130.701 53.9813 130.7 54.9574 130.698 55.9335C130.697 56.3491 130.696 56.7647 130.697 57.1803C130.697 57.6696 130.695 58.1588 130.692 58.6481C130.691 58.8278 130.691 59.0075 130.691 59.1871C130.692 59.4322 130.69 59.6772 130.688 59.9223C130.688 60.0595 130.687 60.1967 130.687 60.338C130.639 60.7182 130.57 60.8755 130.3 61.1429C129.811 61.306 129.341 61.2828 128.829 61.2857C128.675 61.2893 128.675 61.2893 128.517 61.2929C127.954 61.2962 127.553 61.2918 127.1 60.9143C126.937 60.5891 126.97 60.3135 126.968 59.9498C126.968 59.8733 126.967 59.7969 126.967 59.7182C126.965 59.461 126.964 59.2037 126.964 58.9465C126.963 58.7625 126.962 58.5786 126.961 58.3946C126.958 57.7896 126.956 57.1845 126.954 56.5795C126.954 56.3714 126.953 56.1633 126.953 55.9552C126.95 55.0899 126.948 54.2246 126.947 53.3593C126.945 52.118 126.941 50.8768 126.935 49.6355C126.93 48.7634 126.928 47.8912 126.927 47.019C126.927 46.4978 126.926 45.9766 126.922 45.4553C126.918 44.9651 126.918 44.4749 126.919 43.9847C126.919 43.8046 126.918 43.6246 126.916 43.4445C126.913 43.1989 126.914 42.9535 126.916 42.7078C126.916 42.5703 126.915 42.4329 126.915 42.2912C126.986 41.9429 126.986 41.9429 127.258 41.6702C127.586 41.4678 127.761 41.427 128.143 41.425Z" fill="#1E1E1E"/>
<path d="M107.95 15.6143C108.144 15.6094 108.144 15.6094 108.342 15.6045C108.798 15.6716 108.872 15.7538 109.157 16.1143C109.339 16.4909 109.481 16.8801 109.625 17.2723C109.69 17.446 109.69 17.446 109.757 17.6232C109.899 18.0008 110.039 18.3789 110.179 18.7571C110.275 19.0165 110.372 19.2758 110.47 19.5351C110.616 19.926 110.762 20.3169 110.908 20.7079C111.201 21.4918 111.499 22.2728 111.806 23.0513C111.876 23.2313 111.947 23.4113 112.017 23.5912C112.115 23.84 112.213 24.0885 112.312 24.3365C112.402 24.5603 112.489 24.7847 112.577 25.0094C112.626 25.1328 112.675 25.2562 112.725 25.3834C112.821 25.7397 112.811 25.937 112.7 26.2857C112.586 26.4 112.586 26.4 112.275 26.4112C112.086 26.4092 112.086 26.4092 111.893 26.4071C111.767 26.4061 111.64 26.4051 111.51 26.404C111.413 26.4027 111.315 26.4014 111.214 26.4C110.3 24.6694 110.3 24.6694 110.3 24C108.754 24 107.207 24 105.614 24C105.501 24.3771 105.388 24.7543 105.271 25.1429C105.197 25.3561 105.119 25.5685 105.036 25.7786C104.999 25.873 104.962 25.9674 104.925 26.0647C104.814 26.2857 104.814 26.2857 104.586 26.4C104.377 26.4139 104.167 26.42 103.957 26.4214C103.845 26.423 103.733 26.4247 103.618 26.4263C103.329 26.4 103.329 26.4 103.1 26.1714C103.128 25.4116 103.434 24.7321 103.706 24.0308C103.756 23.9009 103.806 23.771 103.857 23.6371C103.991 23.2889 104.125 22.9409 104.26 22.5932C104.398 22.2354 104.536 21.8773 104.674 21.5193C104.89 20.9594 105.106 20.3998 105.323 19.8403C105.532 19.299 105.74 18.7572 105.947 18.2147C106.087 17.8452 106.23 17.4762 106.371 17.1071C106.419 16.9809 106.467 16.8547 106.516 16.7247C106.559 16.6133 106.603 16.5018 106.647 16.3871C106.683 16.2942 106.719 16.2013 106.755 16.1057C107.025 15.5955 107.432 15.6202 107.95 15.6143ZM107.9 17.8286C107.656 18.4611 107.412 19.0938 107.168 19.7266C107.085 19.942 107.001 20.1574 106.918 20.3728C106.799 20.6816 106.68 20.9906 106.561 21.2996C106.523 21.3965 106.486 21.4934 106.447 21.5932C106.267 21.9864 106.267 21.9864 106.186 22.4C107.355 22.4 108.524 22.4 109.729 22.4C109.531 21.8579 109.333 21.3157 109.129 20.7571C109.067 20.5885 109.006 20.42 108.942 20.2463C108.645 19.4352 108.343 18.6276 108.014 17.8286C107.977 17.8286 107.939 17.8286 107.9 17.8286Z" fill="#1E1E1E"/>
<path d="M119.814 18.7071C120.664 19.4065 121.061 20.2218 121.211 21.3049C121.349 22.8352 121.254 24.3029 120.357 25.6C119.655 26.3066 118.925 26.5609 117.936 26.5643C117.807 26.5648 117.807 26.5648 117.676 26.5654C116.931 26.5494 116.217 26.3737 115.671 25.8286C115.669 25.9243 115.667 26.0201 115.665 26.1187C115.656 26.4736 115.646 26.8284 115.635 27.1832C115.629 27.4124 115.623 27.6417 115.618 27.871C115.611 28.0864 115.611 28.0864 115.604 28.3063C115.601 28.4391 115.597 28.572 115.594 28.7089C115.557 29.0286 115.557 29.0286 115.329 29.2571C115.068 29.2915 115.068 29.2915 114.764 29.2929C114.664 29.2948 114.564 29.2967 114.461 29.2987C114.186 29.2571 114.186 29.2571 114 29.1436C113.748 28.776 113.796 28.3772 113.8 27.9471C113.8 27.8484 113.799 27.7497 113.799 27.648C113.798 27.3213 113.8 26.9946 113.801 26.6679C113.801 26.4411 113.801 26.2144 113.801 25.9877C113.801 25.5123 113.802 25.0369 113.804 24.5616C113.807 23.9516 113.807 23.3417 113.806 22.7318C113.806 22.2636 113.807 21.7953 113.808 21.3271C113.808 21.1022 113.808 20.8773 113.808 20.6523C113.808 20.3382 113.81 20.0242 113.811 19.71C113.811 19.6167 113.811 19.5234 113.811 19.4272C113.815 18.9869 113.821 18.775 114.071 18.4C114.394 18.3665 114.394 18.3665 114.771 18.3786C114.959 18.3832 114.959 18.3832 115.151 18.3879C115.295 18.3939 115.295 18.3939 115.443 18.4C115.481 18.5886 115.518 18.7771 115.557 18.9714C115.613 18.9328 115.668 18.8942 115.725 18.8545C116.942 18.0446 118.561 17.8235 119.814 18.7071ZM116.079 20.4384C115.453 21.3636 115.446 22.4281 115.629 23.5071C115.791 24.1562 116.172 24.6138 116.736 24.9643C117.336 25.09 117.866 25.0984 118.45 24.9C118.999 24.5166 119.215 24.0837 119.357 23.4429C119.531 22.403 119.508 21.3572 119.007 20.4071C118.661 20.0012 118.435 19.8024 117.894 19.7353C117.105 19.7022 116.589 19.7851 116.079 20.4384Z" fill="#1E1E1E"/>
<path d="M140.014 15.5071C140.137 15.5052 140.259 15.5033 140.386 15.5013C140.489 15.515 140.593 15.5287 140.7 15.5429C140.962 15.9357 140.962 16.1052 140.976 16.5692C140.98 16.7022 140.985 16.8351 140.989 16.9721C140.993 17.111 140.996 17.2498 141 17.3929C141.004 17.533 141.009 17.6732 141.013 17.8176C141.024 18.1641 141.034 18.5106 141.043 18.8571C141.113 18.817 141.183 18.7768 141.256 18.7354C141.348 18.6832 141.44 18.631 141.535 18.5772C141.627 18.5253 141.718 18.4733 141.812 18.4198C142.134 18.2535 142.396 18.1945 142.757 18.1714C142.899 18.162 143.04 18.1526 143.186 18.1429C144.12 18.1625 144.863 18.4501 145.536 19.0996C146.374 20.0333 146.45 21.1959 146.445 22.4067C146.445 22.5108 146.445 22.6149 146.445 22.7222C146.445 22.9399 146.445 23.1576 146.444 23.3753C146.443 23.7091 146.444 24.0428 146.446 24.3766C146.445 24.589 146.445 24.8014 146.445 25.0138C146.445 25.1135 146.446 25.2131 146.446 25.3158C146.445 25.4544 146.445 25.4544 146.444 25.5957C146.444 25.6768 146.443 25.7579 146.443 25.8414C146.414 26.0571 146.414 26.0571 146.186 26.4C145.871 26.4415 145.871 26.4415 145.5 26.4357C145.316 26.4351 145.316 26.4351 145.129 26.4344C144.814 26.4 144.814 26.4 144.586 26.1714C144.562 25.8229 144.551 25.484 144.55 25.1353C144.548 24.922 144.545 24.7086 144.542 24.4953C144.538 24.1593 144.536 23.8233 144.534 23.4873C144.531 23.1628 144.527 22.8383 144.522 22.5138C144.522 22.4149 144.522 22.3159 144.522 22.2139C144.509 21.417 144.417 20.6385 143.843 20.05C143.216 19.7925 142.592 19.7617 141.939 19.9612C141.491 20.1806 141.291 20.4501 141.11 20.904C140.982 21.3581 140.992 21.815 140.992 22.2839C140.991 22.3911 140.989 22.4982 140.988 22.6086C140.983 22.9486 140.981 23.2885 140.979 23.6286C140.976 23.9702 140.973 24.3118 140.968 24.6535C140.965 24.8655 140.964 25.0775 140.963 25.2896C140.962 25.3853 140.961 25.4811 140.96 25.5798C140.959 25.6639 140.959 25.7481 140.958 25.8347C140.929 26.0571 140.929 26.0571 140.7 26.4C140.386 26.4415 140.386 26.4415 140.014 26.4357C139.83 26.4351 139.83 26.4351 139.643 26.4344C139.329 26.4 139.329 26.4 139.1 26.1714C139.077 25.8421 139.069 25.5238 139.07 25.1944C139.07 25.0933 139.07 24.9922 139.069 24.888C139.068 24.5527 139.069 24.2175 139.07 23.8821C139.069 23.6499 139.069 23.4176 139.069 23.1853C139.069 22.698 139.069 22.2107 139.07 21.7234C139.072 21.0977 139.071 20.472 139.069 19.8463C139.069 19.3665 139.069 18.8867 139.069 18.4069C139.07 18.1762 139.069 17.9454 139.069 17.7147C139.068 17.3926 139.069 17.0705 139.07 16.7484C139.07 16.6524 139.069 16.5563 139.069 16.4573C139.075 15.6486 139.217 15.51 140.014 15.5071Z" fill="#1E1E1E"/>
<path d="M128.153 18.8027C128.775 19.3162 129.016 19.8994 129.157 20.6857C129.189 21.1034 129.189 21.5192 129.188 21.9379C129.188 22.1136 129.188 22.1136 129.188 22.2928C129.188 22.5388 129.188 22.7848 129.187 23.0308C129.186 23.408 129.187 23.7851 129.188 24.1623C129.188 24.4018 129.188 24.6413 129.188 24.8808C129.188 24.9937 129.188 25.1065 129.189 25.2228C129.188 25.3274 129.187 25.4319 129.187 25.5396C129.187 25.6315 129.186 25.7235 129.186 25.8181C129.157 26.0571 129.157 26.0571 128.929 26.4C128.507 26.4743 128.095 26.4594 127.671 26.4C127.364 26.1714 127.364 26.1714 127.214 25.9429C127.089 26.0159 126.964 26.089 126.836 26.1643C126.016 26.644 125.055 26.6138 124.129 26.5143C123.34 26.2951 122.73 25.84 122.3 25.1429C122.053 24.5513 122.015 24.0413 122.186 23.4286C122.641 22.5538 123.35 22.0117 124.274 21.7004C125.275 21.4645 126.307 21.3689 127.329 21.2571C127.296 21.0927 127.263 20.9284 127.229 20.7643C127.21 20.6728 127.191 20.5813 127.172 20.4871C127.106 20.1997 127.106 20.1997 126.871 19.8857C126.178 19.6546 125.411 19.6514 124.75 19.9643C124.456 20.2099 124.456 20.2099 124.329 20.5429C124.129 20.8 124.129 20.8 123.866 20.8442C123.074 20.8591 123.074 20.8591 122.643 20.5714C122.693 19.9455 122.799 19.5621 123.214 19.0857C124.643 18.0088 126.625 17.762 128.153 18.8027ZM124.014 23.5429C123.858 23.6751 123.858 23.6751 123.864 24.0357C123.863 24.4545 123.863 24.4545 124.093 24.7214C124.63 25.1133 125.064 25.2001 125.729 25.1429C126.321 24.9489 126.706 24.7129 127.1 24.2286C127.353 23.6857 127.349 23.2156 127.329 22.6286C126.161 22.6286 124.944 22.8069 124.014 23.5429Z" fill="#1E1E1E"/>
<path d="M153.72 18.8839C154.595 19.6286 154.999 20.585 155.1 21.7143C155.15 22.5539 155.15 22.5539 154.871 22.9714C154.644 23.0127 154.644 23.0127 154.363 23.0103C154.258 23.0103 154.152 23.0103 154.044 23.0103C153.93 23.0085 153.816 23.0067 153.699 23.0049C153.583 23.0044 153.466 23.0039 153.347 23.0034C152.974 23.0015 152.601 22.9972 152.229 22.9929C151.976 22.9911 151.724 22.9896 151.472 22.9882C150.853 22.9844 150.233 22.9786 149.614 22.9714C149.668 23.155 149.722 23.3385 149.776 23.5219C149.806 23.624 149.837 23.7262 149.868 23.8315C150.025 24.3277 150.173 24.5997 150.607 24.8929C151.256 25.1256 151.761 25.1219 152.379 24.8357C152.697 24.6642 152.842 24.5393 153.086 24.2571C153.485 23.9153 153.755 23.9444 154.265 23.9576C154.529 24 154.529 24 154.871 24.2286C154.839 24.7749 154.753 25.1428 154.375 25.5527C153.275 26.494 152.033 26.6068 150.65 26.5361C150.157 26.4905 149.788 26.3376 149.386 26.0571C149.305 26.0029 149.225 25.9487 149.142 25.8929C148.376 25.3048 147.988 24.4761 147.786 23.5429C147.659 22.024 147.697 20.5464 148.7 19.3143C150.055 17.9387 152.154 17.7575 153.72 18.8839ZM149.986 20.3C149.641 20.7524 149.641 20.7524 149.614 21.7143C150.821 21.7143 152.028 21.7143 153.271 21.7143C153.164 20.8549 153.026 20.3242 152.357 19.7714C151.409 19.4552 150.696 19.6225 149.986 20.3Z" fill="#1E1E1E"/>
<path d="M136.929 19.0857C137.462 19.67 137.742 20.2336 137.729 21.0286C137.544 21.2908 137.434 21.3617 137.118 21.425C136.314 21.4347 136.314 21.4347 135.971 21.1286C135.91 21.0201 135.849 20.9117 135.786 20.8C135.352 20.1113 135.352 20.1113 134.621 19.8C133.949 19.7559 133.479 19.8375 132.943 20.2571C132.437 20.9113 132.43 21.5842 132.429 22.3786C132.426 22.4759 132.423 22.5732 132.42 22.6734C132.417 23.384 132.554 23.961 132.929 24.5714C133.493 25.0255 134.179 24.9875 134.871 24.9143C135.365 24.7533 135.509 24.4801 135.75 24.0429C135.795 23.9518 135.84 23.8608 135.887 23.767C136.014 23.5429 136.014 23.5429 136.243 23.4286C136.452 23.4118 136.662 23.4033 136.871 23.4C137.039 23.3956 137.039 23.3956 137.211 23.3911C137.306 23.4034 137.402 23.4158 137.5 23.4286C137.729 23.7714 137.729 23.7714 137.714 24.1429C137.504 25.0442 137.011 25.6647 136.243 26.1714C135.587 26.4969 134.982 26.5734 134.257 26.5643C134.162 26.5635 134.066 26.5627 133.968 26.5619C133.038 26.5377 132.194 26.3313 131.486 25.6857C130.438 24.3561 130.437 22.8656 130.529 21.2571C130.66 20.3364 131.083 19.4622 131.82 18.8772C133.416 17.8533 135.428 17.8933 136.929 19.0857Z" fill="#1E1E1E"/>
<path d="M128.807 33.9214C128.92 33.92 129.033 33.9186 129.15 33.9172C129.259 33.917 129.369 33.9167 129.482 33.9165C129.581 33.916 129.681 33.9156 129.783 33.9151C130.225 33.9577 130.529 34.0583 130.847 34.375C131.119 34.8728 131.039 35.4457 131.036 36C131.039 36.1874 131.039 36.1874 131.043 36.3786C131.043 36.4988 131.042 36.619 131.042 36.7428C131.043 36.9073 131.043 36.9073 131.043 37.075C130.97 37.454 130.823 37.5871 130.529 37.8286C130.035 38.0751 129.377 37.9691 128.836 37.9714C128.632 37.975 128.632 37.975 128.424 37.9786C128.293 37.9791 128.162 37.9797 128.026 37.9803C127.906 37.9814 127.786 37.9825 127.663 37.9836C127.277 37.9366 127.064 37.8349 126.757 37.6C126.578 37.0624 126.612 36.5203 126.607 35.9571C126.604 35.8381 126.601 35.7191 126.597 35.5964C126.59 34.7234 126.59 34.7234 126.845 34.267C127.401 33.8093 128.121 33.9219 128.807 33.9214Z" fill="#1E1E1E"/>
<path d="M54.1858 38.1714C54.8344 38.4049 55.2485 38.8111 55.5572 39.4286C55.6034 40.0288 55.5446 40.4079 55.2143 40.9143C54.7598 41.4013 54.4163 41.577 53.7487 41.6152C53.2084 41.5822 52.9032 41.3556 52.55 40.9643C52.1752 40.4229 52.1867 39.9609 52.2429 39.3143C52.603 38.4425 53.287 38.1115 54.1858 38.1714Z" fill="#4A4948"/>
</svg>
