<svg width="527" height="86" viewBox="0 0 527 86" fill="none" xmlns="http://www.w3.org/2000/svg">
<path d="M82.0389 0L66.2071 24.8474L64.4984 18.1656L58.2396 36.3508L71.2167 30.3467L71.2623 36.3637L97.5727 25.9521L82.9059 25.5495L92.8025 11.5102L77.5854 19.5328L82.0389 0ZM39.9615 6.57914L33.3337 9.52369L36.8286 20.8996L0 37.2576L2.60225 42.9553L39.4304 26.5909L45.7281 36.7024L55.9418 32.1668L51.5211 17.7889L39.9615 6.57914ZM37.3462 40.2405V44.399H18.932C22.2447 52.331 29.5417 57.7727 37.3462 59.5816V66.3206H49.4755C46.9657 72.5605 42.536 77.7023 37.3652 82.1806H32.0909V86H90.9834V82.1808H85.3071C79.3557 77.7056 74.9397 72.5705 72.5433 66.3206H85.7281V60.3547C89.8184 58.9249 93.9094 56.3669 98 52.8559C93.8965 49.2743 89.8747 47.2861 85.7281 46.3279V40.2409L37.3462 40.2405Z" fill="#F07217"/>
<path d="M120.52 62.5V26.436H130.768L139.728 44.748L148.632 26.436H158.824V62.5H148.296V44.468L142.528 56.34H136.872L131.048 44.468V62.5H120.52ZM181.191 63.06C175.218 63.06 170.645 61.604 167.471 58.692C164.335 55.78 162.767 51.076 162.767 44.58C162.767 40.1 163.477 36.4973 164.895 33.772C166.314 31.0093 168.386 29.012 171.111 27.78C173.874 26.5107 177.234 25.876 181.191 25.876C185.149 25.876 188.49 26.5107 191.215 27.78C193.978 29.012 196.069 31.0093 197.487 33.772C198.906 36.4973 199.615 40.1 199.615 44.58C199.615 51.076 198.029 55.78 194.855 58.692C191.682 61.604 187.127 63.06 181.191 63.06ZM181.191 54.1C183.879 54.1 185.821 53.3533 187.015 51.86C188.247 50.3293 188.863 47.9027 188.863 44.58C188.863 41.0333 188.247 38.532 187.015 37.076C185.821 35.5827 183.879 34.836 181.191 34.836C178.503 34.836 176.543 35.5827 175.311 37.076C174.117 38.532 173.519 41.0333 173.519 44.58C173.519 47.9027 174.117 50.3293 175.311 51.86C176.543 53.3533 178.503 54.1 181.191 54.1ZM222.52 63.06C215.986 63.06 211.002 61.4547 207.568 58.244C204.133 55.0333 202.416 50.4973 202.416 44.636C202.416 38.588 204.096 33.9587 207.456 30.748C210.816 27.5 215.818 25.876 222.464 25.876C224.704 25.876 226.701 26.044 228.456 26.38C230.21 26.716 231.89 27.1827 233.496 27.78V36.964C230.285 35.5453 226.85 34.836 223.192 34.836C219.794 34.836 217.274 35.62 215.632 37.188C213.989 38.7187 213.168 41.2013 213.168 44.636C213.168 47.996 214.026 50.4227 215.744 51.916C217.498 53.372 220.018 54.1 223.304 54.1C225.096 54.1 226.832 53.932 228.512 53.596C230.229 53.26 231.928 52.7373 233.608 52.028V61.268C232.002 61.828 230.304 62.2573 228.512 62.556C226.757 62.892 224.76 63.06 222.52 63.06ZM237.551 62.5V26.436H248.079V39.148L258.999 26.436H270.983L258.271 41.22L271.879 62.5H260.679L251.775 47.94L248.079 52.084V62.5H237.551ZM289.789 63.06C286.429 63.06 283.461 62.5187 280.885 61.436C278.346 60.316 276.349 58.692 274.893 56.564C273.437 54.3987 272.709 51.748 272.709 48.612V26.436H283.237V47.492C283.237 51.8973 285.421 54.1 289.789 54.1C291.879 54.1 293.485 53.5587 294.605 52.476C295.725 51.3933 296.285 49.732 296.285 47.492V26.436H306.813V48.612C306.813 51.748 306.085 54.3987 304.629 56.564C303.21 58.692 301.213 60.316 298.637 61.436C296.098 62.5187 293.149 63.06 289.789 63.06ZM311.598 62.5V26.436H330.19C333.139 26.436 335.566 27.0333 337.47 28.228C339.411 29.3853 340.849 30.972 341.782 32.988C342.715 35.004 343.182 37.244 343.182 39.708C343.182 42.2467 342.641 44.5053 341.558 46.484C340.475 48.4627 338.945 50.012 336.966 51.132C334.987 52.252 332.654 52.812 329.966 52.812H322.126V62.5H311.598ZM322.126 44.748H327.558C329.201 44.748 330.414 44.2813 331.198 43.348C332.019 42.4147 332.43 41.2013 332.43 39.708C332.43 38.1027 332.057 36.8333 331.31 35.9C330.563 34.9667 329.406 34.5 327.838 34.5H322.126V44.748ZM357.481 62.5V26.436H384.585V34.276H368.009V40.492H382.457V48.444H368.009V62.5H357.481ZM404.699 63.06C398.726 63.06 394.152 61.604 390.979 58.692C387.843 55.78 386.275 51.076 386.275 44.58C386.275 40.1 386.984 36.4973 388.403 33.772C389.822 31.0093 391.894 29.012 394.619 27.78C397.382 26.5107 400.742 25.876 404.699 25.876C408.656 25.876 411.998 26.5107 414.723 27.78C417.486 29.012 419.576 31.0093 420.995 33.772C422.414 36.4973 423.123 40.1 423.123 44.58C423.123 51.076 421.536 55.78 418.363 58.692C415.19 61.604 410.635 63.06 404.699 63.06ZM404.699 54.1C407.387 54.1 409.328 53.3533 410.523 51.86C411.755 50.3293 412.371 47.9027 412.371 44.58C412.371 41.0333 411.755 38.532 410.523 37.076C409.328 35.5827 407.387 34.836 404.699 34.836C402.011 34.836 400.051 35.5827 398.819 37.076C397.624 38.532 397.027 41.0333 397.027 44.58C397.027 47.9027 397.624 50.3293 398.819 51.86C400.051 53.3533 402.011 54.1 404.699 54.1ZM427.043 62.5V26.436H445.803C448.753 26.436 451.161 26.9773 453.027 28.06C454.931 29.1427 456.35 30.6547 457.283 32.596C458.217 34.5 458.683 36.7213 458.683 39.26C458.683 41.6867 458.067 43.8333 456.835 45.7C455.641 47.5293 454.035 48.9293 452.019 49.9C452.43 50.236 452.785 50.6467 453.083 51.132C453.382 51.58 453.718 52.2147 454.091 53.036L458.235 62.5H447.259L443.451 53.82C443.153 53.148 442.779 52.6813 442.331 52.42C441.921 52.1213 441.323 51.972 440.539 51.972H437.571V62.5H427.043ZM437.571 43.908H443.115C444.646 43.908 445.822 43.516 446.643 42.732C447.502 41.9107 447.931 40.7533 447.931 39.26C447.931 36.0867 446.438 34.5 443.451 34.5H437.571V43.908ZM480.362 63.06C473.941 63.06 469.05 61.492 465.69 58.356C462.33 55.1827 460.65 50.6653 460.65 44.804C460.65 38.756 462.386 34.0893 465.858 30.804C469.33 27.5187 474.407 25.876 481.09 25.876C483.33 25.876 485.346 26.0067 487.138 26.268C488.967 26.5293 490.685 26.9213 492.29 27.444V36.46C490.647 35.8253 488.949 35.396 487.194 35.172C485.439 34.948 483.647 34.836 481.818 34.836C478.346 34.836 475.733 35.62 473.978 37.188C472.261 38.756 471.402 41.2947 471.402 44.804C471.402 48.0893 472.149 50.46 473.642 51.916C475.173 53.372 477.413 54.1 480.362 54.1C481.333 54.1 482.247 54.044 483.106 53.932C483.965 53.7827 484.767 53.596 485.514 53.372V48.108H478.346V41.612H494.306V59.756C492.925 60.6147 491.077 61.38 488.762 62.052C486.485 62.724 483.685 63.06 480.362 63.06ZM498.247 62.5V26.436H525.575V34.5H508.775V40.38H523.503V48.556H508.775V54.436H525.575V62.5H498.247Z" fill="#F07217"/>
</svg>
