<svg width="235" height="80" viewBox="0 0 235 80" fill="none" xmlns="http://www.w3.org/2000/svg">
<path d="M66.8416 5.00684L53.9795 25.2275L52.5913 19.7899L47.5065 34.589L58.0494 29.7028L58.0864 34.5994L79.4616 26.1265L67.546 25.7989L75.5862 14.3738L63.2235 20.9025L66.8416 5.00684ZM32.6569 10.3609L27.2723 12.7572L30.1117 22.0148L0.191284 35.3268L2.30542 39.9637L32.2255 26.6463L37.3419 34.8751L45.6397 31.184L42.0482 19.4834L32.6569 10.3609ZM30.5322 37.7544V41.1385H15.5721C18.2634 47.5936 24.1917 52.022 30.5322 53.494V58.9782H40.3864C38.3473 64.0561 34.7485 68.2405 30.5477 71.885H26.2627V74.9932H74.1083V71.8852H69.4967C64.6617 68.2432 61.074 64.0643 59.1272 58.9782H69.8388V54.1231C73.1618 52.9596 76.4855 50.8779 79.8088 48.0207C76.475 45.106 73.2076 43.488 69.8388 42.7082V37.7547L30.5322 37.7544Z" fill="#F07217"/>
<path d="M91.4267 38V14.8442H98.0067L103.76 26.6019L109.477 14.8442H116.021V38H109.261V26.4221L105.558 34.0448H101.926L98.1865 26.4221V38H91.4267ZM130.382 38.3596C126.547 38.3596 123.611 37.4247 121.573 35.555C119.559 33.6852 118.553 30.6649 118.553 26.494C118.553 23.6175 119.008 21.3043 119.919 19.5544C120.83 17.7806 122.16 16.4981 123.91 15.7071C125.684 14.8921 127.841 14.4846 130.382 14.4846C132.923 14.4846 135.069 14.8921 136.818 15.7071C138.592 16.4981 139.935 17.7806 140.846 19.5544C141.756 21.3043 142.212 23.6175 142.212 26.494C142.212 30.6649 141.193 33.6852 139.156 35.555C137.118 37.4247 134.194 38.3596 130.382 38.3596ZM130.382 32.6066C132.108 32.6066 133.355 32.1271 134.122 31.1683C134.913 30.1855 135.308 28.6274 135.308 26.494C135.308 24.2168 134.913 22.6107 134.122 21.6758C133.355 20.717 132.108 20.2376 130.382 20.2376C128.656 20.2376 127.398 20.717 126.607 21.6758C125.84 22.6107 125.456 24.2168 125.456 26.494C125.456 28.6274 125.84 30.1855 126.607 31.1683C127.398 32.1271 128.656 32.6066 130.382 32.6066ZM156.918 38.3596C152.723 38.3596 149.523 37.3288 147.318 35.2673C145.113 33.2058 144.01 30.2934 144.01 26.5299C144.01 22.6467 145.089 19.6743 147.246 17.6128C149.403 15.5273 152.616 14.4846 156.882 14.4846C158.321 14.4846 159.603 14.5925 160.73 14.8082C161.856 15.0239 162.935 15.3236 163.966 15.7071V21.6039C161.904 20.693 159.699 20.2376 157.35 20.2376C155.168 20.2376 153.55 20.741 152.496 21.7478C151.441 22.7306 150.914 24.3246 150.914 26.5299C150.914 28.6873 151.465 30.2454 152.568 31.2043C153.694 32.1391 155.312 32.6066 157.422 32.6066C158.572 32.6066 159.687 32.4987 160.766 32.283C161.868 32.0672 162.959 31.7316 164.038 31.2762V37.209C163.007 37.5685 161.916 37.8442 160.766 38.036C159.639 38.2517 158.357 38.3596 156.918 38.3596ZM166.57 38V14.8442H173.33V23.0062L180.341 14.8442H188.036L179.874 24.3366L188.611 38H181.42L175.703 28.6514L173.33 31.3121V38H166.57ZM200.11 38.3596C197.953 38.3596 196.047 38.012 194.393 37.3168C192.763 36.5977 191.481 35.555 190.546 34.1886C189.611 32.7983 189.144 31.0964 189.144 29.0828V14.8442H195.903V28.3637C195.903 31.1923 197.306 32.6066 200.11 32.6066C201.453 32.6066 202.483 32.259 203.202 31.5638C203.922 30.8687 204.281 29.802 204.281 28.3637V14.8442H211.041V29.0828C211.041 31.0964 210.574 32.7983 209.639 34.1886C208.728 35.555 207.445 36.5977 205.791 37.3168C204.161 38.012 202.268 38.3596 200.11 38.3596ZM214.114 38V14.8442H226.051C227.945 14.8442 229.503 15.2277 230.725 15.9948C231.972 16.7378 232.895 17.7566 233.494 19.051C234.093 20.3455 234.393 21.7837 234.393 23.3658C234.393 24.9958 234.045 26.446 233.35 27.7165C232.655 28.987 231.672 29.9817 230.402 30.7009C229.131 31.42 227.633 31.7796 225.907 31.7796H220.873V38H214.114ZM220.873 26.6019H224.361C225.416 26.6019 226.195 26.3022 226.698 25.703C227.226 25.1037 227.489 24.3246 227.489 23.3658C227.489 22.335 227.25 21.52 226.77 20.9208C226.291 20.3215 225.548 20.0219 224.541 20.0219H220.873V26.6019ZM91.4267 67V43.8442H108.83V48.878H98.1865V52.8692H107.463V57.975H98.1865V67H91.4267ZM121.744 67.3596C117.909 67.3596 114.973 66.4247 112.935 64.555C110.922 62.6852 109.915 59.6649 109.915 55.494C109.915 52.6175 110.37 50.3043 111.281 48.5544C112.192 46.7806 113.522 45.4981 115.272 44.7071C117.046 43.8921 119.203 43.4846 121.744 43.4846C124.285 43.4846 126.431 43.8921 128.181 44.7071C129.954 45.4981 131.297 46.7806 132.208 48.5544C133.119 50.3043 133.574 52.6175 133.574 55.494C133.574 59.6649 132.555 62.6852 130.518 64.555C128.48 66.4247 125.556 67.3596 121.744 67.3596ZM121.744 61.6066C123.47 61.6066 124.717 61.1271 125.484 60.1683C126.275 59.1855 126.67 57.6274 126.67 55.494C126.67 53.2168 126.275 51.6107 125.484 50.6758C124.717 49.717 123.47 49.2376 121.744 49.2376C120.018 49.2376 118.76 49.717 117.969 50.6758C117.202 51.6107 116.818 53.2168 116.818 55.494C116.818 57.6274 117.202 59.1855 117.969 60.1683C118.76 61.1271 120.018 61.6066 121.744 61.6066ZM136.091 67V43.8442H148.137C150.03 43.8442 151.576 44.1917 152.775 44.8869C153.997 45.582 154.908 46.5529 155.508 47.7993C156.107 49.0219 156.406 50.4481 156.406 52.0781C156.406 53.6362 156.011 55.0146 155.22 56.2131C154.453 57.3877 153.422 58.2866 152.128 58.9098C152.391 59.1256 152.619 59.3893 152.811 59.7009C153.003 59.9885 153.218 60.396 153.458 60.9234L156.119 67H149.071L146.626 61.4268C146.435 60.9953 146.195 60.6957 145.907 60.5279C145.644 60.3361 145.26 60.2402 144.757 60.2402H142.851V67H136.091ZM142.851 55.0625H146.411C147.393 55.0625 148.149 54.8108 148.676 54.3074C149.227 53.7801 149.503 53.037 149.503 52.0781C149.503 50.0406 148.544 49.0219 146.626 49.0219H142.851V55.0625ZM170.326 67.3596C166.203 67.3596 163.063 66.3528 160.905 64.3392C158.748 62.3017 157.669 59.4012 157.669 55.6378C157.669 51.7545 158.784 48.7582 161.013 46.6487C163.242 44.5393 166.502 43.4846 170.793 43.4846C172.231 43.4846 173.526 43.5685 174.677 43.7363C175.851 43.9041 176.954 44.1558 177.984 44.4914V50.2803C176.93 49.8728 175.839 49.5972 174.712 49.4533C173.586 49.3095 172.435 49.2376 171.261 49.2376C169.031 49.2376 167.353 49.741 166.227 50.7478C165.124 51.7545 164.573 53.3846 164.573 55.6378C164.573 57.7472 165.052 59.2694 166.011 60.2043C166.994 61.1391 168.432 61.6066 170.326 61.6066C170.949 61.6066 171.536 61.5706 172.088 61.4987C172.639 61.4028 173.154 61.283 173.634 61.1391V57.7592H169.031V53.5883H179.279V65.2381C178.392 65.7895 177.205 66.2809 175.719 66.7123C174.257 67.1438 172.459 67.3596 170.326 67.3596ZM181.809 67V43.8442H199.356V49.0219H188.569V52.7973H198.025V58.0469H188.569V61.8223H199.356V67H181.809Z" fill="#F07217"/>
</svg>
