<svg width="235" height="80" viewBox="0 0 235 80" fill="none" xmlns="http://www.w3.org/2000/svg">
<path d="M70.8416 5.00684L57.9795 25.2275L56.5913 19.7899L51.5065 34.589L62.0494 29.7028L62.0864 34.5994L83.4616 26.1265L71.546 25.7989L79.5862 14.3738L67.2235 20.9025L70.8416 5.00684ZM36.6569 10.3609L31.2723 12.7572L34.1117 22.0148L4.19128 35.3268L6.30542 39.9637L36.2255 26.6463L41.3419 34.8751L49.6397 31.184L46.0482 19.4834L36.6569 10.3609ZM34.5322 37.7544V41.1385H19.5721C22.2634 47.5936 28.1917 52.022 34.5322 53.494V58.9782H44.3864C42.3473 64.0561 38.7485 68.2405 34.5477 71.885H30.2627V74.9932H78.1083V71.8852H73.4967C68.6617 68.2432 65.074 64.0643 63.1272 58.9782H73.8388V54.1231C77.1618 52.9596 80.4855 50.8779 83.8088 48.0207C80.475 45.106 77.2076 43.488 73.8388 42.7082V37.7547L34.5322 37.7544Z" fill="#F07217"/>
<path d="M95.0687 29.5V11.468H100.193L104.673 20.624L109.125 11.468H114.221V29.5H108.957V20.484L106.073 26.42H103.245L100.333 20.484V29.5H95.0687ZM125.404 29.78C122.418 29.78 120.131 29.052 118.544 27.596C116.976 26.14 116.192 23.788 116.192 20.54C116.192 18.3 116.547 16.4987 117.256 15.136C117.966 13.7547 119.002 12.756 120.364 12.14C121.746 11.5053 123.426 11.188 125.404 11.188C127.383 11.188 129.054 11.5053 130.416 12.14C131.798 12.756 132.843 13.7547 133.552 15.136C134.262 16.4987 134.616 18.3 134.616 20.54C134.616 23.788 133.823 26.14 132.236 27.596C130.65 29.052 128.372 29.78 125.404 29.78ZM125.404 25.3C126.748 25.3 127.719 24.9267 128.316 24.18C128.932 23.4147 129.24 22.2013 129.24 20.54C129.24 18.7667 128.932 17.516 128.316 16.788C127.719 16.0413 126.748 15.668 125.404 15.668C124.06 15.668 123.08 16.0413 122.464 16.788C121.867 17.516 121.568 18.7667 121.568 20.54C121.568 22.2013 121.867 23.4147 122.464 24.18C123.08 24.9267 124.06 25.3 125.404 25.3ZM146.069 29.78C142.802 29.78 140.31 28.9773 138.593 27.372C136.875 25.7667 136.017 23.4987 136.017 20.568C136.017 17.544 136.857 15.2293 138.537 13.624C140.217 12 142.718 11.188 146.041 11.188C147.161 11.188 148.159 11.272 149.037 11.44C149.914 11.608 150.754 11.8413 151.557 12.14V16.732C149.951 16.0227 148.234 15.668 146.405 15.668C144.706 15.668 143.446 16.06 142.625 16.844C141.803 17.6093 141.393 18.8507 141.393 20.568C141.393 22.248 141.822 23.4613 142.681 24.208C143.558 24.936 144.818 25.3 146.461 25.3C147.357 25.3 148.225 25.216 149.065 25.048C149.923 24.88 150.773 24.6187 151.613 24.264V28.884C150.81 29.164 149.961 29.3787 149.065 29.528C148.187 29.696 147.189 29.78 146.069 29.78ZM153.584 29.5V11.468H158.848V17.824L164.308 11.468H170.3L163.944 18.86L170.748 29.5H165.148L160.696 22.22L158.848 24.292V29.5H153.584ZM179.703 29.78C178.023 29.78 176.539 29.5093 175.251 28.968C173.982 28.408 172.983 27.596 172.255 26.532C171.527 25.4493 171.163 24.124 171.163 22.556V11.468H176.427V21.996C176.427 24.1987 177.519 25.3 179.703 25.3C180.748 25.3 181.551 25.0293 182.111 24.488C182.671 23.9467 182.951 23.116 182.951 21.996V11.468H188.215V22.556C188.215 24.124 187.851 25.4493 187.123 26.532C186.414 27.596 185.415 28.408 184.127 28.968C182.858 29.5093 181.383 29.78 179.703 29.78ZM190.608 29.5V11.468H199.904C201.378 11.468 202.592 11.7667 203.544 12.364C204.514 12.9427 205.233 13.736 205.7 14.744C206.166 15.752 206.4 16.872 206.4 18.104C206.4 19.3733 206.129 20.5027 205.588 21.492C205.046 22.4813 204.281 23.256 203.292 23.816C202.302 24.376 201.136 24.656 199.792 24.656H195.872V29.5H190.608ZM195.872 20.624H198.588C199.409 20.624 200.016 20.3907 200.408 19.924C200.818 19.4573 201.024 18.8507 201.024 18.104C201.024 17.3013 200.837 16.6667 200.464 16.2C200.09 15.7333 199.512 15.5 198.728 15.5H195.872V20.624ZM95.0687 51.5V33.468H108.621V37.388H100.333V40.496H107.557V44.472H100.333V51.5H95.0687ZM118.678 51.78C115.691 51.78 113.404 51.052 111.818 49.596C110.25 48.14 109.466 45.788 109.466 42.54C109.466 40.3 109.82 38.4987 110.53 37.136C111.239 35.7547 112.275 34.756 113.638 34.14C115.019 33.5053 116.699 33.188 118.678 33.188C120.656 33.188 122.327 33.5053 123.69 34.14C125.071 34.756 126.116 35.7547 126.826 37.136C127.535 38.4987 127.89 40.3 127.89 42.54C127.89 45.788 127.096 48.14 125.51 49.596C123.923 51.052 121.646 51.78 118.678 51.78ZM118.678 47.3C120.022 47.3 120.992 46.9267 121.59 46.18C122.206 45.4147 122.514 44.2013 122.514 42.54C122.514 40.7667 122.206 39.516 121.59 38.788C120.992 38.0413 120.022 37.668 118.678 37.668C117.334 37.668 116.354 38.0413 115.738 38.788C115.14 39.516 114.842 40.7667 114.842 42.54C114.842 44.2013 115.14 45.4147 115.738 46.18C116.354 46.9267 117.334 47.3 118.678 47.3ZM129.85 51.5V33.468H139.23C140.705 33.468 141.909 33.7387 142.842 34.28C143.794 34.8213 144.503 35.5773 144.97 36.548C145.437 37.5 145.67 38.6107 145.67 39.88C145.67 41.0933 145.362 42.1667 144.746 43.1C144.149 44.0147 143.346 44.7147 142.338 45.2C142.543 45.368 142.721 45.5733 142.87 45.816C143.019 46.04 143.187 46.3573 143.374 46.768L145.446 51.5H139.958L138.054 47.16C137.905 46.824 137.718 46.5907 137.494 46.46C137.289 46.3107 136.99 46.236 136.598 46.236H135.114V51.5H129.85ZM135.114 42.204H137.886C138.651 42.204 139.239 42.008 139.65 41.616C140.079 41.2053 140.294 40.6267 140.294 39.88C140.294 38.2933 139.547 37.5 138.054 37.5H135.114V42.204ZM156.509 51.78C153.299 51.78 150.853 50.996 149.173 49.428C147.493 47.8413 146.653 45.5827 146.653 42.652C146.653 39.628 147.521 37.2947 149.257 35.652C150.993 34.0093 153.532 33.188 156.873 33.188C157.993 33.188 159.001 33.2533 159.897 33.384C160.812 33.5147 161.671 33.7107 162.473 33.972V38.48C161.652 38.1627 160.803 37.948 159.925 37.836C159.048 37.724 158.152 37.668 157.237 37.668C155.501 37.668 154.195 38.06 153.317 38.844C152.459 39.628 152.029 40.8973 152.029 42.652C152.029 44.2947 152.403 45.48 153.149 46.208C153.915 46.936 155.035 47.3 156.509 47.3C156.995 47.3 157.452 47.272 157.881 47.216C158.311 47.1413 158.712 47.048 159.085 46.936V44.304H155.501V41.056H163.481V50.128C162.791 50.5573 161.867 50.94 160.709 51.276C159.571 51.612 158.171 51.78 156.509 51.78ZM165.452 51.5V33.468H179.116V37.5H170.716V40.44H178.08V44.528H170.716V47.468H179.116V51.5H165.452Z" fill="#F07217"/>
<path d="M95.3207 70.5V59.124H97.7207L97.8407 60.324C98.4007 59.876 99.0167 59.524 99.6887 59.268C100.361 59.012 101.081 58.884 101.849 58.884C102.665 58.884 103.297 59.02 103.745 59.292C104.209 59.548 104.561 59.908 104.801 60.372C105.329 59.94 105.937 59.588 106.625 59.316C107.313 59.028 108.137 58.884 109.097 58.884C110.409 58.884 111.377 59.22 112.001 59.892C112.625 60.564 112.937 61.596 112.937 62.988V70.5H110.369V63.252C110.369 62.372 110.185 61.756 109.817 61.404C109.449 61.052 108.849 60.876 108.017 60.876C107.473 60.876 106.953 60.972 106.457 61.164C105.977 61.356 105.561 61.644 105.209 62.028C105.257 62.204 105.289 62.388 105.305 62.58C105.321 62.772 105.329 62.98 105.329 63.204V70.5H102.905V63.276C102.905 62.444 102.761 61.836 102.473 61.452C102.185 61.068 101.641 60.876 100.841 60.876C100.281 60.876 99.7447 61.012 99.2327 61.284C98.7367 61.54 98.2887 61.852 97.8887 62.22V70.5H95.3207ZM116.835 56.748V54.588H119.691V56.748H116.835ZM117.051 70.5V61.116H115.323L115.563 59.124H119.667V70.5H117.051ZM128.311 70.74C126.311 70.74 124.799 70.236 123.775 69.228C122.751 68.204 122.239 66.732 122.239 64.812C122.239 62.812 122.799 61.324 123.919 60.348C125.055 59.372 126.567 58.884 128.455 58.884C129.239 58.884 129.895 58.94 130.423 59.052C130.967 59.164 131.487 59.34 131.983 59.58V61.524C131.151 61.108 130.143 60.9 128.959 60.9C127.647 60.9 126.639 61.196 125.935 61.788C125.231 62.364 124.879 63.372 124.879 64.812C124.879 66.172 125.191 67.172 125.815 67.812C126.439 68.436 127.471 68.748 128.911 68.748C130.047 68.748 131.079 68.532 132.007 68.1V70.092C131.479 70.3 130.911 70.46 130.303 70.572C129.711 70.684 129.047 70.74 128.311 70.74ZM134.086 70.5V59.124H136.486L136.63 60.444C137.174 60.092 137.822 59.772 138.574 59.484C139.326 59.196 140.07 58.996 140.806 58.884V60.876C140.358 60.956 139.87 61.076 139.342 61.236C138.83 61.38 138.342 61.548 137.878 61.74C137.414 61.916 137.022 62.1 136.702 62.292V70.5H134.086ZM147.691 70.74C145.643 70.74 144.139 70.228 143.179 69.204C142.235 68.18 141.763 66.716 141.763 64.812C141.763 62.908 142.243 61.444 143.203 60.42C144.163 59.396 145.659 58.884 147.691 58.884C149.739 58.884 151.243 59.396 152.203 60.42C153.163 61.444 153.643 62.908 153.643 64.812C153.643 66.716 153.163 68.18 152.203 69.204C151.259 70.228 149.755 70.74 147.691 70.74ZM147.691 68.532C148.891 68.532 149.739 68.244 150.235 67.668C150.747 67.076 151.003 66.124 151.003 64.812C151.003 63.5 150.747 62.556 150.235 61.98C149.739 61.404 148.891 61.116 147.691 61.116C146.507 61.116 145.659 61.404 145.147 61.98C144.651 62.556 144.403 63.5 144.403 64.812C144.403 66.124 144.651 67.076 145.147 67.668C145.659 68.244 146.507 68.532 147.691 68.532ZM159.863 70.74C159.079 70.74 158.327 70.684 157.607 70.572C156.903 70.46 156.319 70.324 155.855 70.164V67.956C156.399 68.164 156.999 68.324 157.655 68.436C158.311 68.548 158.935 68.604 159.527 68.604C160.423 68.604 161.063 68.524 161.447 68.364C161.831 68.204 162.023 67.892 162.023 67.428C162.023 67.092 161.903 66.828 161.663 66.636C161.439 66.444 161.095 66.268 160.631 66.108C160.183 65.948 159.607 65.756 158.903 65.532C158.231 65.308 157.647 65.068 157.151 64.812C156.655 64.54 156.271 64.196 155.999 63.78C155.727 63.364 155.591 62.82 155.591 62.148C155.591 61.108 155.967 60.308 156.719 59.748C157.471 59.172 158.679 58.884 160.343 58.884C160.999 58.884 161.623 58.932 162.215 59.028C162.807 59.124 163.311 59.244 163.727 59.388V61.572C163.279 61.396 162.783 61.26 162.239 61.164C161.711 61.068 161.215 61.02 160.751 61.02C159.919 61.02 159.287 61.092 158.855 61.236C158.439 61.38 158.231 61.668 158.231 62.1C158.231 62.548 158.447 62.868 158.879 63.06C159.327 63.236 160.039 63.484 161.015 63.804C161.911 64.076 162.623 64.364 163.151 64.668C163.679 64.972 164.055 65.34 164.279 65.772C164.519 66.188 164.639 66.732 164.639 67.404C164.639 68.524 164.231 69.364 163.415 69.924C162.599 70.468 161.415 70.74 159.863 70.74ZM172.612 70.74C170.628 70.74 169.092 70.252 168.004 69.276C166.916 68.3 166.372 66.804 166.372 64.788C166.372 62.964 166.836 61.524 167.764 60.468C168.692 59.412 170.1 58.884 171.988 58.884C173.716 58.884 175.012 59.34 175.876 60.252C176.756 61.148 177.196 62.308 177.196 63.732V65.844H168.868C168.996 66.948 169.396 67.708 170.068 68.124C170.74 68.54 171.764 68.748 173.14 68.748C173.716 68.748 174.308 68.692 174.916 68.58C175.524 68.468 176.052 68.324 176.5 68.148V70.068C175.988 70.292 175.396 70.46 174.724 70.572C174.068 70.684 173.364 70.74 172.612 70.74ZM168.868 64.14H174.892V63.348C174.892 62.564 174.676 61.956 174.244 61.524C173.812 61.076 173.084 60.852 172.06 60.852C170.844 60.852 170.004 61.116 169.54 61.644C169.092 62.172 168.868 63.004 168.868 64.14ZM179.743 70.5V59.124H182.143L182.287 60.444C182.831 60.092 183.479 59.772 184.231 59.484C184.983 59.196 185.727 58.996 186.463 58.884V60.876C186.015 60.956 185.527 61.076 184.999 61.236C184.487 61.38 183.999 61.548 183.535 61.74C183.071 61.916 182.679 62.1 182.359 62.292V70.5H179.743ZM191.532 70.5L187.044 59.124H189.756L192.948 67.956L196.14 59.124H198.828L194.364 70.5H191.532ZM201.515 56.748V54.588H204.371V56.748H201.515ZM201.731 70.5V61.116H200.003L200.243 59.124H204.347V70.5H201.731ZM212.991 70.74C210.991 70.74 209.479 70.236 208.455 69.228C207.431 68.204 206.919 66.732 206.919 64.812C206.919 62.812 207.479 61.324 208.599 60.348C209.735 59.372 211.247 58.884 213.135 58.884C213.919 58.884 214.575 58.94 215.103 59.052C215.647 59.164 216.167 59.34 216.663 59.58V61.524C215.831 61.108 214.823 60.9 213.639 60.9C212.327 60.9 211.319 61.196 210.615 61.788C209.911 62.364 209.559 63.372 209.559 64.812C209.559 66.172 209.871 67.172 210.495 67.812C211.119 68.436 212.151 68.748 213.591 68.748C214.727 68.748 215.759 68.532 216.687 68.1V70.092C216.159 70.3 215.591 70.46 214.983 70.572C214.391 70.684 213.727 70.74 212.991 70.74ZM224.526 70.74C222.542 70.74 221.006 70.252 219.918 69.276C218.83 68.3 218.286 66.804 218.286 64.788C218.286 62.964 218.75 61.524 219.678 60.468C220.606 59.412 222.014 58.884 223.902 58.884C225.63 58.884 226.926 59.34 227.79 60.252C228.67 61.148 229.11 62.308 229.11 63.732V65.844H220.782C220.91 66.948 221.31 67.708 221.982 68.124C222.654 68.54 223.678 68.748 225.054 68.748C225.63 68.748 226.222 68.692 226.83 68.58C227.438 68.468 227.966 68.324 228.414 68.148V70.068C227.902 70.292 227.31 70.46 226.638 70.572C225.982 70.684 225.278 70.74 224.526 70.74ZM220.782 64.14H226.806V63.348C226.806 62.564 226.59 61.956 226.158 61.524C225.726 61.076 224.998 60.852 223.974 60.852C222.758 60.852 221.918 61.116 221.454 61.644C221.006 62.172 220.782 63.004 220.782 64.14Z" fill="#F07217"/>
</svg>
