<svg width="235" height="80" viewBox="0 0 235 80" fill="none" xmlns="http://www.w3.org/2000/svg">
<path d="M1.77257 37.5469V24.8857H4.58106V27.3029H5.36376L4.58106 27.9704C4.58106 26.9269 4.88033 26.1135 5.47886 25.5303C6.09274 24.9471 6.92914 24.6555 7.98808 24.6555C9.23118 24.6555 10.2211 25.0699 10.9577 25.8986C11.7097 26.7273 12.0857 27.84 12.0857 29.2366V37.5469H9.20816V29.5358C9.20816 28.7685 9.00865 28.1776 8.60963 27.7633C8.21061 27.3489 7.65045 27.1417 6.92914 27.1417C6.22318 27.1417 5.66302 27.3566 5.24865 27.7863C4.84963 28.216 4.65012 28.8299 4.65012 29.6279V37.5469H1.77257ZM20.7094 37.7771C19.0979 37.7771 17.8318 37.3321 16.911 36.442C15.9902 35.5365 15.5298 34.3087 15.5298 32.7587V24.8857H18.4073V32.7357C18.4073 33.5491 18.6068 34.1783 19.0059 34.6233C19.4049 35.0531 19.9727 35.2679 20.7094 35.2679C21.4307 35.2679 21.9908 35.0531 22.3899 34.6233C22.8042 34.1783 23.0114 33.5491 23.0114 32.7357V24.8857H25.889V32.7587C25.889 34.3087 25.4209 35.5365 24.4847 36.442C23.5486 37.3321 22.2901 37.7771 20.7094 37.7771ZM28.4352 37.5469L32.8552 31.0091L28.7345 24.8857H31.9804L33.9371 27.9935C34.0599 28.1776 34.1673 28.3848 34.2594 28.615C34.3668 28.8452 34.4512 29.0294 34.5126 29.1675C34.574 29.0294 34.6584 28.8452 34.7659 28.615C34.8733 28.3848 34.9807 28.1776 35.0881 27.9935L37.0679 24.8857H40.3138L36.1931 31.0091L40.59 37.5469H37.3211L35.1342 34.0709C35.0114 33.8713 34.8963 33.6565 34.7889 33.4263C34.6814 33.1961 34.5894 33.0119 34.5126 32.8738C34.4512 33.0119 34.3668 33.1961 34.2594 33.4263C34.152 33.6565 34.0369 33.8713 33.9141 34.0709L31.6811 37.5469H28.4352ZM49.6971 37.5469C48.4847 37.5469 47.5332 37.2093 46.8426 36.534C46.1673 35.8588 45.8297 34.9303 45.8297 33.7486V27.487H42.3996V24.8857H45.8297V21.3175H48.7302V24.8857H53.5876V27.487H48.7302V33.7486C48.7302 34.5466 49.1216 34.9456 49.9043 34.9456H53.3574V37.5469H49.6971ZM58.4359 31.2854V28.615H65.8024V31.2854H58.4359ZM75.9914 37.7771C74.9172 37.7771 73.9733 37.5776 73.1599 37.1786C72.3619 36.7642 71.7403 36.1887 71.2953 35.4521C70.8502 34.7001 70.6277 33.8176 70.6277 32.8047V29.6279C70.6277 28.5997 70.8502 27.7172 71.2953 26.9806C71.7403 26.2439 72.3619 25.6761 73.1599 25.2771C73.9733 24.8627 74.9172 24.6555 75.9914 24.6555C77.5875 24.6555 78.8613 25.0699 79.8128 25.8986C80.7643 26.712 81.2631 27.8246 81.3092 29.2366H78.4316C78.3856 28.5766 78.1477 28.0702 77.718 27.7172C77.3036 27.3489 76.7281 27.1647 75.9914 27.1647C75.2241 27.1647 74.6179 27.3796 74.1728 27.8093C73.7278 28.2237 73.5052 28.8222 73.5052 29.6049V32.8047C73.5052 33.5874 73.7278 34.1936 74.1728 34.6233C74.6179 35.0531 75.2241 35.2679 75.9914 35.2679C76.7281 35.2679 77.3036 35.0914 77.718 34.7384C78.1477 34.3701 78.3856 33.856 78.4316 33.1961H81.3092C81.2631 34.608 80.7643 35.7283 79.8128 36.5571C78.8613 37.3704 77.5875 37.7771 75.9914 37.7771ZM91.6594 37.5469C90.8306 37.5469 90.1016 37.3781 89.4724 37.0405C88.8585 36.7029 88.3751 36.2271 88.0221 35.6132C87.6692 34.984 87.4927 34.2627 87.4927 33.4493V23.3433H83.4411V20.742H90.3702V33.4493C90.3702 33.9097 90.5007 34.278 90.7616 34.5543C91.0378 34.8152 91.4061 34.9456 91.8665 34.9456H95.6879V37.5469H91.6594ZM102.125 37.7771C100.82 37.7771 99.7919 37.4318 99.0399 36.7412C98.2879 36.0506 97.9119 35.1221 97.9119 33.9558C97.9119 32.7126 98.3263 31.7535 99.155 31.0782C99.9838 30.4029 101.158 30.0653 102.677 30.0653H105.831V28.9833C105.831 28.3695 105.631 27.8937 105.232 27.5561C104.833 27.2031 104.289 27.0266 103.598 27.0266C102.969 27.0266 102.447 27.1647 102.033 27.441C101.618 27.7172 101.373 28.0932 101.296 28.569H98.4874C98.6255 27.3719 99.1627 26.4204 100.099 25.7144C101.035 25.0085 102.232 24.6555 103.69 24.6555C105.24 24.6555 106.46 25.0469 107.35 25.8295C108.256 26.5969 108.708 27.6405 108.708 28.9603V37.5469H105.923V35.337H105.463L105.923 34.7154C105.923 35.6516 105.578 36.3959 104.887 36.9484C104.196 37.5009 103.276 37.7771 102.125 37.7771ZM103.068 35.6132C103.882 35.6132 104.542 35.406 105.048 34.9917C105.57 34.5773 105.831 34.0402 105.831 33.3802V31.8379H102.723C102.14 31.8379 101.672 32.0067 101.319 32.3443C100.966 32.682 100.789 33.127 100.789 33.6795C100.789 34.278 100.989 34.7538 101.388 35.1068C101.802 35.4444 102.363 35.6132 103.068 35.6132ZM116.849 37.7541C115.882 37.7541 115.038 37.6007 114.316 37.2937C113.595 36.9868 113.027 36.5647 112.613 36.0276C112.214 35.4751 111.999 34.8305 111.968 34.0939H114.846C114.877 34.4929 115.068 34.8152 115.421 35.0607C115.79 35.3063 116.266 35.4291 116.849 35.4291H117.862C118.568 35.4291 119.097 35.2909 119.45 35.0147C119.803 34.7384 119.979 34.3624 119.979 33.8867C119.979 33.4416 119.818 33.0963 119.496 32.8508C119.189 32.5899 118.706 32.4211 118.046 32.3443L116.48 32.1141C115.038 31.9146 113.979 31.5309 113.304 30.9631C112.628 30.3953 112.291 29.5435 112.291 28.4078C112.291 27.2261 112.69 26.313 113.488 25.6684C114.286 25.0085 115.46 24.6785 117.01 24.6785H117.885C119.297 24.6785 120.425 24.9931 121.269 25.6224C122.113 26.2516 122.565 27.0957 122.627 28.1546H119.749C119.703 27.817 119.511 27.5407 119.174 27.3259C118.851 27.111 118.422 27.0036 117.885 27.0036H117.01C116.35 27.0036 115.867 27.1264 115.56 27.3719C115.268 27.6021 115.122 27.9474 115.122 28.4078C115.122 28.8375 115.253 29.1598 115.514 29.3747C115.774 29.5742 116.196 29.72 116.78 29.8121L118.414 30.0423C119.918 30.2571 121.023 30.6638 121.729 31.2624C122.45 31.8455 122.811 32.7126 122.811 33.8637C122.811 35.0914 122.389 36.0506 121.545 36.7412C120.716 37.4165 119.488 37.7541 117.862 37.7541H116.849ZM130.652 37.7541C129.685 37.7541 128.841 37.6007 128.12 37.2937C127.398 36.9868 126.831 36.5647 126.416 36.0276C126.017 35.4751 125.802 34.8305 125.772 34.0939H128.649C128.68 34.4929 128.872 34.8152 129.225 35.0607C129.593 35.3063 130.069 35.4291 130.652 35.4291H131.665C132.371 35.4291 132.9 35.2909 133.253 35.0147C133.606 34.7384 133.783 34.3624 133.783 33.8867C133.783 33.4416 133.622 33.0963 133.299 32.8508C132.992 32.5899 132.509 32.4211 131.849 32.3443L130.284 32.1141C128.841 31.9146 127.782 31.5309 127.107 30.9631C126.432 30.3953 126.094 29.5435 126.094 28.4078C126.094 27.2261 126.493 26.313 127.291 25.6684C128.089 25.0085 129.263 24.6785 130.813 24.6785H131.688C133.1 24.6785 134.228 24.9931 135.072 25.6224C135.916 26.2516 136.369 27.0957 136.43 28.1546H133.553C133.507 27.817 133.315 27.5407 132.977 27.3259C132.655 27.111 132.225 27.0036 131.688 27.0036H130.813C130.153 27.0036 129.67 27.1264 129.363 27.3719C129.071 27.6021 128.925 27.9474 128.925 28.4078C128.925 28.8375 129.056 29.1598 129.317 29.3747C129.578 29.5742 130 29.72 130.583 29.8121L132.217 30.0423C133.721 30.2571 134.826 30.6638 135.532 31.2624C136.254 31.8455 136.614 32.7126 136.614 33.8637C136.614 35.0914 136.192 36.0506 135.348 36.7412C134.519 37.4165 133.292 37.7541 131.665 37.7541H130.652ZM141.255 31.2854V28.615H148.622V31.2854H141.255ZM153.585 37.5469V34.9226H158.005V27.487H154.161V24.8857H160.768V34.9226H164.681V37.5469H153.585ZM159.156 22.7678C158.573 22.7678 158.113 22.622 157.775 22.3304C157.437 22.0235 157.269 21.6168 157.269 21.1104C157.269 20.6039 157.437 20.2049 157.775 19.9133C158.113 19.6064 158.573 19.4529 159.156 19.4529C159.739 19.4529 160.2 19.6064 160.537 19.9133C160.875 20.2049 161.044 20.6039 161.044 21.1104C161.044 21.6168 160.875 22.0235 160.537 22.3304C160.2 22.622 159.739 22.7678 159.156 22.7678ZM167.412 37.5469V24.8857H170.22V27.3029H171.003L170.22 27.9704C170.22 26.9269 170.519 26.1135 171.118 25.5303C171.732 24.9471 172.568 24.6555 173.627 24.6555C174.87 24.6555 175.86 25.0699 176.597 25.8986C177.349 26.7273 177.725 27.84 177.725 29.2366V37.5469H174.847V29.5358C174.847 28.7685 174.648 28.1776 174.249 27.7633C173.85 27.3489 173.289 27.1417 172.568 27.1417C171.862 27.1417 171.302 27.3566 170.888 27.7863C170.489 28.216 170.289 28.8299 170.289 29.6279V37.5469H167.412ZM181.33 41.6906V39.0202H184.714C185.481 39.0202 186.072 38.8131 186.487 38.3987C186.901 37.9843 187.108 37.4011 187.108 36.6491V27.5561H182.021V24.8857H189.986V36.7182C189.986 38.2529 189.525 39.4653 188.604 40.3554C187.684 41.2455 186.44 41.6906 184.875 41.6906H181.33ZM188.443 22.7678C187.86 22.7678 187.4 22.622 187.062 22.3304C186.724 22.0235 186.556 21.6168 186.556 21.1104C186.556 20.6039 186.724 20.2049 187.062 19.9133C187.4 19.6064 187.86 19.4529 188.443 19.4529C189.026 19.4529 189.487 19.6064 189.824 19.9133C190.162 20.2049 190.331 20.6039 190.331 21.1104C190.331 21.6168 190.162 22.0235 189.824 22.3304C189.487 22.622 189.026 22.7678 188.443 22.7678ZM200.175 37.7771C199.1 37.7771 198.164 37.57 197.366 37.1556C196.568 36.7412 195.947 36.1657 195.502 35.4291C195.072 34.6771 194.857 33.8023 194.857 32.8047V29.6279C194.857 28.6304 195.072 27.7633 195.502 27.0266C195.947 26.2746 196.568 25.6914 197.366 25.2771C198.164 24.8627 199.1 24.6555 200.175 24.6555C201.234 24.6555 202.154 24.8627 202.937 25.2771C203.735 25.6914 204.349 26.2746 204.779 27.0266C205.224 27.7633 205.446 28.6304 205.446 29.6279V31.9069H197.642V32.8047C197.642 33.6949 197.857 34.3701 198.287 34.8305C198.717 35.2756 199.354 35.4981 200.198 35.4981C200.842 35.4981 201.364 35.3907 201.763 35.1758C202.162 34.9456 202.415 34.6157 202.523 34.186H205.354C205.139 35.2756 204.556 36.1504 203.605 36.8103C202.669 37.4549 201.525 37.7771 200.175 37.7771ZM202.661 30.2955V29.6049C202.661 28.7301 202.454 28.0625 202.039 27.6021C201.625 27.1264 201.003 26.8885 200.175 26.8885C199.346 26.8885 198.717 27.1264 198.287 27.6021C197.857 28.0779 197.642 28.7531 197.642 29.6279V30.1113L202.868 30.0653L202.661 30.2955ZM214.024 37.7771C212.95 37.7771 212.006 37.5776 211.192 37.1786C210.394 36.7642 209.773 36.1887 209.328 35.4521C208.883 34.7001 208.66 33.8176 208.66 32.8047V29.6279C208.66 28.5997 208.883 27.7172 209.328 26.9806C209.773 26.2439 210.394 25.6761 211.192 25.2771C212.006 24.8627 212.95 24.6555 214.024 24.6555C215.62 24.6555 216.894 25.0699 217.845 25.8986C218.797 26.712 219.296 27.8246 219.342 29.2366H216.464C216.418 28.5766 216.18 28.0702 215.751 27.7172C215.336 27.3489 214.761 27.1647 214.024 27.1647C213.257 27.1647 212.65 27.3796 212.205 27.8093C211.76 28.2237 211.538 28.8222 211.538 29.6049V32.8047C211.538 33.5874 211.76 34.1936 212.205 34.6233C212.65 35.0531 213.257 35.2679 214.024 35.2679C214.761 35.2679 215.336 35.0914 215.751 34.7384C216.18 34.3701 216.418 33.856 216.464 33.1961H219.342C219.296 34.608 218.797 35.7283 217.845 36.5571C216.894 37.3704 215.62 37.7771 214.024 37.7771ZM229.139 37.5469C227.927 37.5469 226.975 37.2093 226.285 36.534C225.61 35.8588 225.272 34.9303 225.272 33.7486V27.487H221.842V24.8857H225.272V21.3175H228.173V24.8857H233.03V27.487H228.173V33.7486C228.173 34.5466 228.564 34.9456 229.347 34.9456H232.8V37.5469H229.139Z" fill="#FEFEFF"/>
<rect width="112.906" height="20.9061" transform="translate(0 44.5469)" fill="#F7F7F8"/>
<path d="M4.25072 59V53.3024H5.51454V54.3902H5.86675L5.51454 54.6906C5.51454 54.221 5.64921 53.8549 5.91855 53.5925C6.19479 53.3301 6.57118 53.1989 7.0477 53.1989C7.6071 53.1989 8.05254 53.3853 8.38404 53.7583C8.72244 54.1312 8.89164 54.6319 8.89164 55.2603V59H7.59674V55.395C7.59674 55.0497 7.50696 54.7838 7.3274 54.5973C7.14784 54.4109 6.89577 54.3176 6.57118 54.3176C6.2535 54.3176 6.00142 54.4143 5.81496 54.6077C5.6354 54.8011 5.54562 55.0773 5.54562 55.4364V59H4.25072ZM12.7723 59.1036C12.0471 59.1036 11.4774 58.9033 11.063 58.5028C10.6487 58.0953 10.4415 57.5428 10.4415 56.8453V53.3024H11.7364V56.8349C11.7364 57.201 11.8261 57.4841 12.0057 57.6844C12.1853 57.8778 12.4408 57.9744 12.7723 57.9744C13.0969 57.9744 13.3489 57.8778 13.5285 57.6844C13.715 57.4841 13.8082 57.201 13.8082 56.8349V53.3024H15.1031V56.8453C15.1031 57.5428 14.8925 58.0953 14.4712 58.5028C14.0499 58.9033 13.4836 59.1036 12.7723 59.1036ZM16.2489 59L18.2379 56.058L16.3836 53.3024H17.8442L18.7248 54.7009C18.78 54.7838 18.8284 54.877 18.8698 54.9806C18.9181 55.0842 18.9561 55.1671 18.9837 55.2293C19.0114 55.1671 19.0494 55.0842 19.0977 54.9806C19.146 54.877 19.1944 54.7838 19.2427 54.7009L20.1336 53.3024H21.5943L19.74 56.058L21.7186 59H20.2476L19.2634 57.4358C19.2082 57.346 19.1564 57.2493 19.1081 57.1457C19.0597 57.0421 19.0183 56.9592 18.9837 56.8971C18.9561 56.9592 18.9181 57.0421 18.8698 57.1457C18.8215 57.2493 18.7697 57.346 18.7144 57.4358L17.7096 59H16.2489ZM25.8168 59C25.2712 59 24.843 58.8481 24.5322 58.5442C24.2284 58.2403 24.0764 57.8225 24.0764 57.2907V54.473H22.5329V53.3024H24.0764V51.6968H25.3817V53.3024H27.5675V54.473H25.3817V57.2907C25.3817 57.6499 25.5578 57.8294 25.91 57.8294H27.4639V59H25.8168ZM29.7492 56.1823V54.9806H33.0641V56.1823H29.7492ZM37.6492 59.1036C37.1658 59.1036 36.7411 59.0138 36.375 58.8343C36.0159 58.6478 35.7362 58.3888 35.5359 58.0573C35.3357 57.7189 35.2355 57.3218 35.2355 56.866V55.4364C35.2355 54.9737 35.3357 54.5766 35.5359 54.2451C35.7362 53.9136 36.0159 53.6581 36.375 53.4786C36.7411 53.2921 37.1658 53.1989 37.6492 53.1989C38.3675 53.1989 38.9407 53.3853 39.3688 53.7583C39.797 54.1243 40.0215 54.625 40.0422 55.2603H38.7473C38.7266 54.9634 38.6195 54.7355 38.4262 54.5766C38.2397 54.4109 37.9807 54.328 37.6492 54.328C37.3039 54.328 37.0311 54.4247 36.8308 54.6181C36.6306 54.8045 36.5304 55.0739 36.5304 55.4261V56.866C36.5304 57.2182 36.6306 57.491 36.8308 57.6844C37.0311 57.8778 37.3039 57.9744 37.6492 57.9744C37.9807 57.9744 38.2397 57.895 38.4262 57.7362C38.6195 57.5704 38.7266 57.3391 38.7473 57.0421H40.0422C40.0215 57.6775 39.797 58.1816 39.3688 58.5546C38.9407 58.9206 38.3675 59.1036 37.6492 59.1036ZM44.6998 59C44.3268 59 43.9988 58.924 43.7157 58.7721C43.4394 58.6202 43.2219 58.4061 43.063 58.1298C42.9042 57.8467 42.8248 57.5221 42.8248 57.1561V52.6084H41.0015V51.4378H44.1197V57.1561C44.1197 57.3632 44.1784 57.529 44.2958 57.6533C44.4201 57.7707 44.5858 57.8294 44.793 57.8294H46.5126V59H44.6998ZM49.4092 59.1036C48.8221 59.1036 48.3594 58.9482 48.021 58.6374C47.6826 58.3267 47.5134 57.9088 47.5134 57.384C47.5134 56.8246 47.6999 56.3929 48.0728 56.0891C48.4458 55.7852 48.9741 55.6333 49.6578 55.6333H51.077V55.1464C51.077 54.8701 50.9872 54.656 50.8076 54.5041C50.6281 54.3453 50.3829 54.2659 50.0721 54.2659C49.789 54.2659 49.5542 54.328 49.3677 54.4523C49.1813 54.5766 49.0708 54.7458 49.0362 54.9599H47.7724C47.8346 54.4212 48.0763 53.9931 48.4975 53.6754C48.9188 53.3577 49.4575 53.1989 50.1136 53.1989C50.8111 53.1989 51.3601 53.375 51.7607 53.7272C52.1682 54.0725 52.3719 54.5421 52.3719 55.136V59H51.1184V58.0055H50.9112L51.1184 57.7258C51.1184 58.1471 50.963 58.482 50.6523 58.7307C50.3415 58.9793 49.9271 59.1036 49.4092 59.1036ZM49.8339 58.1298C50.1999 58.1298 50.4969 58.0366 50.7248 57.8501C50.9596 57.6637 51.077 57.422 51.077 57.125V56.4309H49.6785C49.4161 56.4309 49.2054 56.5069 49.0466 56.6588C48.8877 56.8108 48.8083 57.011 48.8083 57.2597C48.8083 57.529 48.8981 57.7431 49.0777 57.9019C49.2641 58.0539 49.5162 58.1298 49.8339 58.1298ZM56.035 59.0932C55.5999 59.0932 55.2201 59.0242 54.8955 58.886C54.5709 58.7479 54.3154 58.558 54.1289 58.3163C53.9493 58.0677 53.8527 57.7776 53.8388 57.4461H55.1337C55.1476 57.6257 55.2339 57.7707 55.3927 57.8812C55.5585 57.9917 55.7726 58.047 56.035 58.047H56.4908C56.8085 58.047 57.0467 57.9848 57.2056 57.8605C57.3644 57.7362 57.4438 57.567 57.4438 57.3529C57.4438 57.1526 57.3713 56.9972 57.2263 56.8867C57.0882 56.7693 56.8706 56.6934 56.5737 56.6588L55.8692 56.5552C55.2201 56.4655 54.7435 56.2928 54.4397 56.0373C54.1358 55.7817 53.9839 55.3985 53.9839 54.8874C53.9839 54.3556 54.1634 53.9447 54.5225 53.6547C54.8817 53.3577 55.41 53.2092 56.1075 53.2092H56.5012C57.1365 53.2092 57.6441 53.3508 58.024 53.6339C58.4038 53.9171 58.6075 54.2969 58.6351 54.7735H57.3402C57.3195 54.6215 57.2332 54.4972 57.0813 54.4005C56.9362 54.3038 56.7429 54.2555 56.5012 54.2555H56.1075C55.8105 54.2555 55.593 54.3107 55.4549 54.4212C55.3237 54.5248 55.258 54.6802 55.258 54.8874C55.258 55.0808 55.3168 55.2258 55.4342 55.3225C55.5516 55.4123 55.7415 55.4779 56.0039 55.5193L56.7394 55.6229C57.4162 55.7196 57.9135 55.9026 58.2311 56.1719C58.5557 56.4344 58.718 56.8246 58.718 57.3425C58.718 57.895 58.5281 58.3267 58.1483 58.6374C57.7753 58.9413 57.2228 59.0932 56.4908 59.0932H56.035ZM62.2465 59.0932C61.8114 59.0932 61.4315 59.0242 61.1069 58.886C60.7824 58.7479 60.5268 58.558 60.3404 58.3163C60.1608 58.0677 60.0641 57.7776 60.0503 57.4461H61.3452C61.359 57.6257 61.4453 57.7707 61.6042 57.8812C61.7699 57.9917 61.984 58.047 62.2465 58.047H62.7023C63.0199 58.047 63.2582 57.9848 63.417 57.8605C63.5759 57.7362 63.6553 57.567 63.6553 57.3529C63.6553 57.1526 63.5828 56.9972 63.4378 56.8867C63.2996 56.7693 63.0821 56.6934 62.7851 56.6588L62.0807 56.5552C61.4315 56.4655 60.955 56.2928 60.6511 56.0373C60.3473 55.7817 60.1953 55.3985 60.1953 54.8874C60.1953 54.3556 60.3749 53.9447 60.734 53.6547C61.0931 53.3577 61.6214 53.2092 62.319 53.2092H62.7126C63.348 53.2092 63.8556 53.3508 64.2354 53.6339C64.6153 53.9171 64.819 54.2969 64.8466 54.7735H63.5517C63.531 54.6215 63.4447 54.4972 63.2927 54.4005C63.1477 54.3038 62.9543 54.2555 62.7126 54.2555H62.319C62.022 54.2555 61.8045 54.3107 61.6663 54.4212C61.5351 54.5248 61.4695 54.6802 61.4695 54.8874C61.4695 55.0808 61.5282 55.2258 61.6456 55.3225C61.763 55.4123 61.9529 55.4779 62.2154 55.5193L62.9509 55.6229C63.6277 55.7196 64.1249 55.9026 64.4426 56.1719C64.7672 56.4344 64.9295 56.8246 64.9295 57.3425C64.9295 57.895 64.7396 58.3267 64.3597 58.6374C63.9868 58.9413 63.4343 59.0932 62.7023 59.0932H62.2465ZM67.018 56.1823V54.9806H70.3329V56.1823H67.018ZM72.5665 59V57.8191H74.5554V54.473H72.8254V53.3024H75.7985V57.8191H77.5596V59H72.5665ZM75.0734 52.3494C74.811 52.3494 74.6038 52.2838 74.4518 52.1526C74.2999 52.0145 74.2239 51.8314 74.2239 51.6035C74.2239 51.3756 74.2999 51.1961 74.4518 51.0649C74.6038 50.9267 74.811 50.8577 75.0734 50.8577C75.3358 50.8577 75.543 50.9267 75.6949 51.0649C75.8469 51.1961 75.9228 51.3756 75.9228 51.6035C75.9228 51.8314 75.8469 52.0145 75.6949 52.1526C75.543 52.2838 75.3358 52.3494 75.0734 52.3494ZM78.7883 59V53.3024H80.0521V54.3902H80.4043L80.0521 54.6906C80.0521 54.221 80.1868 53.8549 80.4561 53.5925C80.7324 53.3301 81.1087 53.1989 81.5853 53.1989C82.1447 53.1989 82.5901 53.3853 82.9216 53.7583C83.26 54.1312 83.4292 54.6319 83.4292 55.2603V59H82.1343V55.395C82.1343 55.0497 82.0445 54.7838 81.865 54.5973C81.6854 54.4109 81.4333 54.3176 81.1087 54.3176C80.7911 54.3176 80.539 54.4143 80.3525 54.6077C80.173 54.8011 80.0832 55.0773 80.0832 55.4364V59H78.7883ZM85.0515 60.8647V59.663H86.5743C86.9197 59.663 87.1855 59.5698 87.372 59.3833C87.5585 59.1968 87.6517 58.9344 87.6517 58.596V54.5041H85.3623V53.3024H88.9466V58.6271C88.9466 59.3177 88.7394 59.8633 88.3251 60.2638C87.9107 60.6644 87.3513 60.8647 86.6469 60.8647H85.0515ZM88.2525 52.3494C87.9901 52.3494 87.7829 52.2838 87.631 52.1526C87.4791 52.0145 87.4031 51.8314 87.4031 51.6035C87.4031 51.3756 87.4791 51.1961 87.631 51.0649C87.7829 50.9267 87.9901 50.8577 88.2525 50.8577C88.515 50.8577 88.7222 50.9267 88.8741 51.0649C89.026 51.1961 89.102 51.3756 89.102 51.6035C89.102 51.8314 89.026 52.0145 88.8741 52.1526C88.7222 52.2838 88.515 52.3494 88.2525 52.3494ZM93.5317 59.1036C93.0482 59.1036 92.627 59.0104 92.2679 58.8239C91.9087 58.6374 91.629 58.3784 91.4288 58.047C91.2354 57.7086 91.1387 57.3149 91.1387 56.866V55.4364C91.1387 54.9875 91.2354 54.5973 91.4288 54.2659C91.629 53.9275 91.9087 53.665 92.2679 53.4786C92.627 53.2921 93.0482 53.1989 93.5317 53.1989C94.0082 53.1989 94.4226 53.2921 94.7748 53.4786C95.1339 53.665 95.4101 53.9275 95.6035 54.2659C95.8038 54.5973 95.9039 54.9875 95.9039 55.4364V56.462H92.3922V56.866C92.3922 57.2666 92.4888 57.5704 92.6822 57.7776C92.8756 57.9779 93.1622 58.078 93.542 58.078C93.8321 58.078 94.0669 58.0297 94.2465 57.933C94.426 57.8294 94.54 57.6809 94.5883 57.4876H95.8625C95.7658 57.9779 95.5034 58.3715 95.0752 58.6685C94.6539 58.9586 94.1394 59.1036 93.5317 59.1036ZM94.6505 55.7369V55.4261C94.6505 55.0324 94.5572 54.732 94.3708 54.5248C94.1843 54.3107 93.9046 54.2037 93.5317 54.2037C93.1587 54.2037 92.8756 54.3107 92.6822 54.5248C92.4888 54.7389 92.3922 55.0428 92.3922 55.4364V55.654L94.7437 55.6333L94.6505 55.7369ZM99.7639 59.1036C99.2804 59.1036 98.8557 59.0138 98.4897 58.8343C98.1306 58.6478 97.8509 58.3888 97.6506 58.0573C97.4503 57.7189 97.3502 57.3218 97.3502 56.866V55.4364C97.3502 54.9737 97.4503 54.5766 97.6506 54.2451C97.8509 53.9136 98.1306 53.6581 98.4897 53.4786C98.8557 53.2921 99.2804 53.1989 99.7639 53.1989C100.482 53.1989 101.055 53.3853 101.483 53.7583C101.912 54.1243 102.136 54.625 102.157 55.2603H100.862C100.841 54.9634 100.734 54.7355 100.541 54.5766C100.354 54.4109 100.095 54.328 99.7639 54.328C99.4185 54.328 99.1458 54.4247 98.9455 54.6181C98.7452 54.8045 98.6451 55.0739 98.6451 55.4261V56.866C98.6451 57.2182 98.7452 57.491 98.9455 57.6844C99.1458 57.8778 99.4185 57.9744 99.7639 57.9744C100.095 57.9744 100.354 57.895 100.541 57.7362C100.734 57.5704 100.841 57.3391 100.862 57.0421H102.157C102.136 57.6775 101.912 58.1816 101.483 58.5546C101.055 58.9206 100.482 59.1036 99.7639 59.1036ZM106.566 59C106.02 59 105.592 58.8481 105.281 58.5442C104.977 58.2403 104.825 57.8225 104.825 57.2907V54.473H103.282V53.3024H104.825V51.6968H106.131V53.3024H108.316V54.473H106.131V57.2907C106.131 57.6499 106.307 57.8294 106.659 57.8294H108.213V59H106.566Z" fill="#313131"/>
</svg>
