<svg width="24" height="24" viewBox="0 0 24 24" fill="none" xmlns="http://www.w3.org/2000/svg">
    <path
        d="M21.002 12C21.002 10.1195 20.4129 8.28625 19.3176 6.7577C18.2222 5.22915 16.6756 4.08209 14.8949 3.47763C13.1142 2.87316 11.1889 2.84166 9.38939 3.38754C7.58987 3.93341 6.00654 5.02925 4.86177 6.52115C3.717 8.01304 3.0683 9.82604 3.00677 11.7055C2.94524 13.585 3.47398 15.4366 4.51873 17.0001C5.56347 18.5637 7.07174 19.7608 8.8317 20.4232C10.5917 21.0856 12.5149 21.18 14.3313 20.6933"
        stroke="#C9C7B3" stroke-width="2.5" stroke-linecap="round" />
    <circle cx="12.002" cy="12" r="4" stroke="#C9C7B3" stroke-width="2.5" />
    <path
        d="M16.002 9V13.5C16.002 14.8807 17.1212 16 18.502 16V16C19.8827 16 21.002 14.8807 21.002 13.5V12"
        stroke="#C9C7B3" stroke-width="2.5" stroke-linecap="round" />
</svg>
    