<svg width="24" height="24" viewBox="0 0 24 24" fill="none" xmlns="http://www.w3.org/2000/svg">
    <path
        d="M14.4962 5.75V5.75C14.4962 4.58515 14.4962 4.00272 14.3059 3.54329C14.0522 2.93072 13.5655 2.44404 12.9529 2.1903C12.4935 2 11.9111 2 10.7462 2H6.99622C4.63919 2 3.46068 2 2.72845 2.73223C1.99622 3.46447 1.99622 4.64298 1.99622 7V10.75C1.99622 11.9149 1.99622 12.4973 2.18652 12.9567C2.44025 13.5693 2.92694 14.056 3.53951 14.3097C3.99893 14.5 4.58136 14.5 5.74622 14.5V14.5"
        stroke-width="2.5" />
    <rect x="9.49622" y="9.5" width="12.5" height="12.5" rx="2.5"
        stroke-width="2.5" />
</svg>