<svg width="24" height="24" viewBox="0 0 24 24" fill="none" xmlns="http://www.w3.org/2000/svg">
    <path fill-rule="evenodd" clip-rule="evenodd"
        d="M9.47726 2.20806C9.70894 2.18616 9.93626 2.20895 10.1591 2.27642L15.4773 7.60806C12.8363 8.19222 10.1999 8.73905 7.56817 9.24857L2.38635 4.05363C4.75499 3.42875 7.11858 2.81356 9.47726 2.20806ZM8.79545 3.30174C9.29059 3.25531 9.74509 3.36923 10.1591 3.64351C10.4217 4.16163 10.2627 4.41228 9.68182 4.39541C8.88163 4.39389 8.58613 4.02934 8.79545 3.30174ZM6.06817 4.60047C5.65417 4.32619 5.19967 4.21227 4.70453 4.2587C4.61713 4.39297 4.52631 4.52968 4.43181 4.66882C4.68272 5.12506 5.06903 5.3529 5.5909 5.35237C6.17181 5.36924 6.33081 5.1186 6.06817 4.60047ZM10.1591 4.80553C10.6995 4.74933 11.1995 4.86325 11.6591 5.1473C11.8407 5.6293 11.6589 5.87993 11.1136 5.8992C10.3728 5.84348 10.0546 5.47892 10.1591 4.80553ZM7.43181 5.96756C6.9919 5.80366 6.5374 5.7353 6.06818 5.7625C5.8654 6.13325 5.95622 6.42946 6.3409 6.6511C6.78545 6.75821 7.21731 6.73542 7.63636 6.58275C7.73331 6.32754 7.66513 6.12248 7.43181 5.96756ZM11.6591 6.17262C12.1542 6.12619 12.6087 6.24011 13.0227 6.51439C13.2854 7.03252 13.1264 7.28316 12.5455 7.26629C11.7453 7.26477 11.4498 6.90023 11.6591 6.17262ZM8.93181 7.47136C8.51781 7.19708 8.06331 7.08316 7.56817 7.12958C7.48076 7.26386 7.38994 7.40057 7.29544 7.53971C7.54635 7.99595 7.93267 8.2238 8.45453 8.22325C9.03544 8.24007 9.19444 7.98948 8.93181 7.47136Z"
        fill="currentColor" />
    <path fill-rule="evenodd" clip-rule="evenodd"
        d="M6.95455 9.86376C5.2155 8.05155 3.42014 6.31995 1.56818 4.66882C0.978955 7.25859 0.456136 9.8561 0 12.4612C1.72923 14.2175 3.47918 15.9492 5.25 17.6562C5.91586 15.0694 6.48409 12.4719 6.95455 9.86376ZM5.86365 11.0941C6.04433 10.3627 5.79437 9.86144 5.11365 9.59034C4.85578 9.90969 4.7876 10.2742 4.9091 10.684C5.04069 11.3639 5.35883 11.5006 5.86365 11.0941ZM3.20455 10.2739C3.88527 10.545 4.13523 11.0463 3.95455 11.7777C3.85377 11.9245 3.71741 12.0157 3.54546 12.0511C2.90155 11.5487 2.78796 10.9563 3.20455 10.2739ZM2.04546 11.5043C1.90555 11.0678 1.61018 10.8855 1.15909 10.9574C0.90682 11.6823 1.08859 12.2748 1.70455 12.7346C1.83791 12.6694 1.9515 12.5784 2.04546 12.4612C2.13641 12.1423 2.13641 11.8232 2.04546 11.5043Z"
        fill="currentColor" />
    <path fill-rule="evenodd" clip-rule="evenodd"
        d="M16.4319 8.9068C18.12 9.13565 19.8019 9.40907 21.4773 9.72705C20.0629 11.2358 18.6993 12.7852 17.3864 14.3752L16.9773 14.5119C16.4379 14.3765 15.8924 14.2855 15.3409 14.2384C15.6484 12.4482 16.0121 10.671 16.4319 8.9068ZM18.6137 10.1372H19.7046C19.6641 10.6724 19.3686 10.9458 18.8182 10.9574C18.5492 10.9835 18.3446 10.8924 18.2046 10.684C18.3442 10.4992 18.4806 10.317 18.6137 10.1372ZM17.3864 12.7346H16.4318C16.0948 12.8908 15.9584 13.1642 16.0228 13.5549C16.4522 13.5944 16.8613 13.5261 17.25 13.3498C17.37 13.1645 17.4156 12.9594 17.3864 12.7346Z"
        fill="currentColor" />
    <path fill-rule="evenodd" clip-rule="evenodd"
        d="M15.6136 8.77012C15.637 8.63451 15.5915 8.54346 15.4772 8.4967C13.025 9.02003 10.5704 9.54417 8.11357 10.0689C8.00339 10.111 7.91243 10.1793 7.84084 10.2739C7.22066 12.8194 6.6298 15.3712 6.06812 17.9296C8.65071 17.4572 11.2416 16.9103 13.8408 16.2891C14.5047 13.7996 15.0955 11.2932 15.6136 8.77012ZM14.1136 10.0005H13.2954C13.1648 10.2004 13.0058 10.3826 12.8181 10.5473C12.7506 10.8171 12.7278 11.0905 12.7499 11.3676C13.7045 11.4131 14.159 10.9575 14.1136 10.0005ZM9.20447 10.9575H10.0227C10.0765 11.9289 9.62188 12.3617 8.65902 12.2562C8.53657 11.7115 8.71834 11.2786 9.20447 10.9575ZM11.5908 13.2815C11.7966 12.5989 11.5465 12.3255 10.8408 12.4613C10.6645 12.7068 10.46 12.9347 10.2272 13.1448C10.1259 13.4102 10.1487 13.6607 10.2954 13.8967C10.8643 14.0154 11.296 13.8103 11.5908 13.2815ZM12.4772 14.1018C13.4836 14.2444 13.5745 14.6773 12.7499 15.4005C12.0087 15.8039 11.7132 15.5989 11.8636 14.7853C12.0033 14.4863 12.2079 14.2584 12.4772 14.1018ZM8.99994 15.879C9.20571 15.1964 8.95562 14.923 8.24994 15.0587C7.95089 15.3123 7.76912 15.6314 7.70449 16.0157C7.65158 16.3513 7.78794 16.5335 8.11358 16.5625C8.46376 16.4178 8.75926 16.1899 8.99994 15.879Z"
        fill="currentColor" />
    <path fill-rule="evenodd" clip-rule="evenodd"
        d="M22.0227 10.2739C22.6752 12.1563 23.2888 14.0703 23.8636 16.0156C23.9545 16.2891 23.9545 16.5625 23.8636 16.8359C22.544 18.3636 21.2031 19.8674 19.8409 21.3473C19.192 19.2815 18.5556 17.2081 17.9318 15.127C19.2711 13.4882 20.6348 11.8705 22.0227 10.2739ZM21.4772 12.0511C21.9182 12.0151 22.1001 12.2202 22.0227 12.6663C22.0554 13.08 21.8963 13.3761 21.5454 13.5549C21.4401 13.5351 21.3492 13.4895 21.2727 13.4182C21.1414 12.9193 21.2095 12.4637 21.4772 12.0511ZM20.7954 13.4182H20.2499C20.0833 13.6623 19.9924 13.9357 19.9772 14.2384C20.0219 14.8614 20.2719 14.9981 20.7272 14.6485C20.7951 14.2409 20.8179 13.8308 20.7954 13.4182ZM19.159 14.6485C19.6 14.6126 19.7819 14.8177 19.7045 15.2637C19.7372 15.6774 19.5781 15.9735 19.2272 16.1523C18.9556 16.0527 18.8419 15.8476 18.8863 15.5372C18.8839 15.2077 18.9748 14.9114 19.159 14.6485ZM22.9772 15.6055H22.4318C22.2651 15.8497 22.1742 16.1231 22.159 16.4258C22.2567 17.15 22.5066 17.2412 22.909 16.6992C22.9768 16.3374 22.9996 15.9728 22.9772 15.6055ZM21.3409 16.8359C21.7819 16.7999 21.9638 17.005 21.8863 17.4511C21.919 17.8648 21.7599 18.1609 21.409 18.3397C21.1374 18.24 21.0237 18.035 21.0681 17.7245C21.0657 17.395 21.1566 17.0988 21.3409 16.8359ZM20.7954 18.7498C20.8086 18.2835 20.5813 18.1011 20.1136 18.203C19.9615 18.45 19.8707 18.7234 19.8409 19.0232C19.8077 19.3543 19.9441 19.5821 20.2499 19.7068C20.6071 19.4924 20.7889 19.1733 20.7954 18.7498Z"
        fill="currentColor" />
    <path fill-rule="evenodd" clip-rule="evenodd"
        d="M15.0682 15.0587C15.7039 15.1219 16.3403 15.1902 16.9773 15.2638L17.1818 15.4688C17.7615 17.5561 18.3751 19.6296 19.0227 21.6891L18.8863 21.8942C16.845 21.5334 14.7995 21.1916 12.75 20.8688C12.5548 20.8053 12.3958 20.6913 12.2727 20.5271C12.008 19.6632 11.7581 18.7973 11.5227 17.9296L11.6591 17.6562C12.669 17.4491 13.6689 17.1985 14.6591 16.9043C14.8036 16.2937 14.94 15.6786 15.0682 15.0587ZM15.4772 16.0157C16.344 15.9934 16.6621 16.3807 16.4318 17.1777C15.6251 17.168 15.3069 16.7807 15.4772 16.0157ZM14.0454 19.9802C14.0522 19.2357 13.6658 18.8711 12.8863 18.8866C12.7537 19.1009 12.7309 19.3288 12.8182 19.5701C13.1141 20.0841 13.5232 20.2208 14.0454 19.9802Z"
        fill="currentColor" />
</svg>
    