<svg width="24" height="24" viewBox="0 0 24 24" fill="none" xmlns="http://www.w3.org/2000/svg">
    <g clip-path="url(#clip0_714_16847)">
        <path
            d="M19.5 16.5V19.5C19.5 20.3297 18.8297 21 18 21L6 21C5.17031 21 4.5 20.3297 4.5 19.5V16.5C4.5 15.6703 3.82969 15 3 15C2.17031 15 1.5 15.6703 1.5 16.5V19.5C1.5 21.9844 3.51562 24 6 24L18 24C20.4844 24 22.5 21.9844 22.5 19.5V16.5C22.5 15.6703 21.8297 15 21 15C20.1703 15 19.5 15.6703 19.5 16.5ZM10.9406 16.0594C11.5266 16.6453 12.4781 16.6453 13.0641 16.0594L19.0641 10.0594C19.65 9.47344 19.65 8.52188 19.0641 7.93594C18.4781 7.35 17.5266 7.35 16.9406 7.93594L13.5 11.3766L13.5 1.5C13.5 0.670312 12.8297 0 12 0C11.1703 0 10.5 0.670312 10.5 1.5L10.5 11.3766L7.05938 7.93594C6.47344 7.35 5.52187 7.35 4.93594 7.93594C4.35 8.52188 4.35 9.47344 4.93594 10.0594L10.9359 16.0594H10.9406Z"
            fill="currentColor" />
    </g>
    <defs>
        <clipPath id="clip0_714_16847">
            <rect width="24" height="24" fill="white" />
        </clipPath>
    </defs>
</svg>
    