<svg width="24" height="24" viewBox="0 0 24 24" fill="none" xmlns="http://www.w3.org/2000/svg">
    <path
        d="M20.9962 12C20.9962 10.1195 20.4072 8.28625 19.3118 6.7577C18.2165 5.22915 16.6699 4.08209 14.8892 3.47763C13.1085 2.87316 11.1832 2.84166 9.38365 3.38754C7.58414 3.93341 6.00081 5.02925 4.85604 6.52115C3.71127 8.01304 3.06256 9.82604 3.00103 11.7055C2.93951 13.585 3.46824 15.4366 4.51299 17.0001C5.55773 18.5637 7.066 19.7608 8.82597 20.4232C10.5859 21.0856 12.5092 21.18 14.3256 20.6933"
        stroke="currentColor" stroke-width="2.5" stroke-linecap="round" />
    <circle cx="11.9962" cy="12" r="4" stroke="currentColor" stroke-width="2.5" />
    <path
        d="M15.9962 9V13.5C15.9962 14.8807 17.1155 16 18.4962 16V16C19.8769 16 20.9962 14.8807 20.9962 13.5V12"
        stroke="currentColor" stroke-width="2.5" stroke-linecap="round" />
</svg>