<svg width="24" height="24" viewBox="0 0 24 24" fill="none" xmlns="http://www.w3.org/2000/svg">
    <g clip-path="url(#clip0_628_1441)">
        <path
            d="M8.19392 18.8442C8.19392 18.9369 8.08727 19.0111 7.95279 19.0111C7.79977 19.025 7.69311 18.9508 7.69311 18.8442C7.69311 18.7514 7.79977 18.6772 7.93424 18.6772C8.07336 18.6633 8.19392 18.7375 8.19392 18.8442ZM6.75178 18.6355C6.71932 18.7283 6.81207 18.8349 6.95118 18.8627C7.07174 18.9091 7.21086 18.8627 7.23868 18.77C7.2665 18.6772 7.1784 18.5706 7.03928 18.5289C6.91872 18.4964 6.78424 18.5428 6.75178 18.6355ZM8.80138 18.5567C8.6669 18.5891 8.57416 18.6772 8.58807 18.7839C8.60198 18.8766 8.72255 18.9369 8.86166 18.9045C8.99614 18.872 9.08888 18.7839 9.07497 18.6912C9.06106 18.603 8.93586 18.5428 8.80138 18.5567ZM11.8526 0.787323C5.42094 0.787323 0.500977 5.67019 0.500977 12.1018C0.500977 17.2444 3.73767 21.645 8.36086 23.1938C8.9544 23.3004 9.16307 22.9341 9.16307 22.6327C9.16307 22.3452 9.14916 20.7593 9.14916 19.7855C9.14916 19.7855 5.90319 20.4811 5.22154 18.4037C5.22154 18.4037 4.69291 17.0543 3.93243 16.7065C3.93243 16.7065 2.87053 15.9785 4.00662 15.9924C4.00662 15.9924 5.16126 16.0851 5.79654 17.1887C6.81207 18.9787 8.51388 18.4639 9.17698 18.1579C9.28364 17.416 9.58505 16.9012 9.91892 16.5952C7.32678 16.3077 4.71146 15.9321 4.71146 11.4712C4.71146 10.196 5.06388 9.55607 5.80582 8.73994C5.68525 8.43853 5.2911 7.19579 5.92638 5.59136C6.89553 5.28994 9.12598 6.84337 9.12598 6.84337C10.0534 6.58369 11.0504 6.44922 12.0381 6.44922C13.0258 6.44922 14.0228 6.58369 14.9502 6.84337C14.9502 6.84337 17.1806 5.28531 18.1498 5.59136C18.785 7.20043 18.3909 8.43853 18.2703 8.73994C19.0123 9.56071 19.4667 10.2006 19.4667 11.4712C19.4667 15.946 16.7355 16.303 14.1433 16.5952C14.5699 16.9615 14.9316 17.6571 14.9316 18.7468C14.9316 20.3095 14.9177 22.2432 14.9177 22.6234C14.9177 22.9248 15.131 23.2912 15.7199 23.1845C20.357 21.645 23.501 17.2444 23.501 12.1018C23.501 5.67019 18.2842 0.787323 11.8526 0.787323ZM5.00823 16.7807C4.94795 16.827 4.96186 16.9337 5.04069 17.0218C5.11489 17.096 5.22154 17.1285 5.28182 17.0682C5.34211 17.0218 5.32819 16.9151 5.24936 16.827C5.17517 16.7528 5.06852 16.7204 5.00823 16.7807ZM4.50743 16.4051C4.47497 16.4653 4.52134 16.5395 4.61408 16.5859C4.68827 16.6323 4.78102 16.6184 4.81348 16.5535C4.84594 16.4932 4.79957 16.419 4.70682 16.3726C4.61408 16.3448 4.53989 16.3587 4.50743 16.4051ZM6.00985 18.0559C5.93565 18.1162 5.96348 18.2553 6.07013 18.3434C6.17678 18.45 6.31126 18.4639 6.37154 18.3897C6.43182 18.3295 6.404 18.1903 6.31126 18.1022C6.20924 17.9956 6.07013 17.9817 6.00985 18.0559ZM5.48122 17.3742C5.40702 17.4206 5.40702 17.5412 5.48122 17.6478C5.55541 17.7545 5.68061 17.8008 5.7409 17.7545C5.81509 17.6942 5.81509 17.5736 5.7409 17.467C5.67598 17.3603 5.55541 17.3139 5.48122 17.3742Z"
            fill="#C9C7B3" />
    </g>
    <defs>
        <clipPath id="clip0_628_1441">
            <rect width="23.9981" height="24" fill="white" transform="translate(0.00195312)" />
        </clipPath>
    </defs>
</svg>
    