<svg width="24" height="24" viewBox="0 0 24 24" fill="none" xmlns="http://www.w3.org/2000/svg">
    <path
        d="M10.4962 12H11.9962V16H13.9962M11.9962 8H12.0062M13.559 20.8633C14.723 20.658 15.8351 20.2256 16.8319 19.5905C17.8287 18.9555 18.6907 18.1303 19.3686 17.1622C20.0465 16.194 20.5271 15.1018 20.7829 13.948C21.0387 12.7941 21.0647 11.6011 20.8595 10.4372C20.6543 9.27322 20.2218 8.1611 19.5867 7.1643C18.9517 6.1675 18.1266 5.30554 17.1584 4.62763C16.1902 3.94972 15.0981 3.46914 13.9442 3.21334C12.7903 2.95753 11.5973 2.9315 10.4334 3.13673C9.26944 3.34196 8.15732 3.77444 7.16052 4.40948C6.16372 5.04451 5.30175 5.86966 4.62385 6.83781C3.94594 7.80597 3.46536 8.89816 3.20955 10.052C2.95374 11.2059 2.92771 12.3989 3.13295 13.5628C3.33818 14.7268 3.77066 15.8389 4.40569 16.8357C5.04073 17.8325 5.86588 18.6945 6.83403 19.3724C7.80218 20.0503 8.89438 20.5309 10.0483 20.7867C11.2021 21.0425 12.3951 21.0685 13.559 20.8633Z"
        stroke="#C9C7B3" stroke-width="3" stroke-linecap="round" stroke-linejoin="round" />
</svg>