<svg width="24" height="24" viewBox="0 0 24 24" fill="none" xmlns="http://www.w3.org/2000/svg">
    <path
        d="M1.49622 1.5V22.5H22.4962V1.5H1.49622ZM12.9243 17.8781C12.9243 19.9219 11.7243 20.8547 9.9759 20.8547C8.39622 20.8547 7.48215 20.0391 7.0134 19.05L8.62122 18.0797C8.93059 18.6281 9.21184 19.0922 9.89153 19.0922C10.5384 19.0922 10.9509 18.8391 10.9509 17.85V11.1422H12.9243V17.8781ZM17.5931 20.8547C15.7603 20.8547 14.5743 19.9828 13.9978 18.8391L15.6056 17.9109C16.0275 18.6 16.5806 19.1109 17.5509 19.1109C18.3665 19.1109 18.8915 18.7031 18.8915 18.1359C18.8915 17.4609 18.3572 17.2219 17.4525 16.8234L16.9603 16.6125C15.5353 16.0078 14.5931 15.2437 14.5931 13.6359C14.5931 12.1547 15.7228 11.0297 17.4806 11.0297C18.7368 11.0297 19.6368 11.4656 20.2837 12.6094L18.7462 13.5938C18.4087 12.9891 18.0431 12.75 17.4759 12.75C16.8993 12.75 16.5337 13.1156 16.5337 13.5938C16.5337 14.1844 16.8993 14.4234 17.7478 14.7938L18.24 15.0047C19.9181 15.7219 20.8603 16.4578 20.8603 18.1078C20.8603 19.8797 19.4634 20.8547 17.5931 20.8547Z"
        fill="#C9C7B3" />
</svg>