<svg width="24" height="24" viewBox="0 0 24 24" fill="none" xmlns="http://www.w3.org/2000/svg">
    <g clip-path="url(#clip0_628_1438)">
        <path
            d="M21.002 1.5H2.99727C2.17227 1.5 1.50195 2.17969 1.50195 3.01406V20.9859C1.50195 21.8203 2.17227 22.5 2.99727 22.5H21.002C21.827 22.5 22.502 21.8203 22.502 20.9859V3.01406C22.502 2.17969 21.827 1.5 21.002 1.5ZM7.84883 19.5H4.73633V9.47812H7.85352V19.5H7.84883ZM6.29258 8.10938C5.29414 8.10938 4.48789 7.29844 4.48789 6.30469C4.48789 5.31094 5.29414 4.5 6.29258 4.5C7.28633 4.5 8.09727 5.31094 8.09727 6.30469C8.09727 7.30312 7.29102 8.10938 6.29258 8.10938ZM19.516 19.5H16.4035V14.625C16.4035 13.4625 16.3801 11.9672 14.7863 11.9672C13.1645 11.9672 12.916 13.2328 12.916 14.5406V19.5H9.80352V9.47812H12.7895V10.8469H12.8316C13.2488 10.0594 14.266 9.22969 15.7801 9.22969C18.9301 9.22969 19.516 11.3062 19.516 14.0062V19.5Z"
            fill="#C9C7B3" />
    </g>
    <defs>
        <clipPath id="clip0_628_1438">
            <rect width="21" height="24" fill="white" transform="translate(1.50195)" />
        </clipPath>
    </defs>
</svg>
    