<svg width="24" height="24" viewBox="0 0 24 24" fill="none" xmlns="http://www.w3.org/2000/svg">
    <g clip-path="url(#clip0_490_1365)">
        <path
            d="M20.9962 1.5H2.99153C2.16653 1.5 1.49622 2.17969 1.49622 3.01406V20.9859C1.49622 21.8203 2.16653 22.5 2.99153 22.5H20.9962C21.8212 22.5 22.4962 21.8203 22.4962 20.9859V3.01406C22.4962 2.17969 21.8212 1.5 20.9962 1.5ZM7.84309 19.5H4.73059V9.47812H7.84778V19.5H7.84309ZM6.28684 8.10938C5.2884 8.10938 4.48215 7.29844 4.48215 6.30469C4.48215 5.31094 5.2884 4.5 6.28684 4.5C7.28059 4.5 8.09153 5.31094 8.09153 6.30469C8.09153 7.30312 7.28528 8.10938 6.28684 8.10938ZM19.5103 19.5H16.3978V14.625C16.3978 13.4625 16.3743 11.9672 14.7806 11.9672C13.1587 11.9672 12.9103 13.2328 12.9103 14.5406V19.5H9.79778V9.47812H12.7837V10.8469H12.8259C13.2431 10.0594 14.2603 9.22969 15.7743 9.22969C18.9243 9.22969 19.5103 11.3062 19.5103 14.0062V19.5Z"
            fill="#C9C7B3" />
    </g>
    <defs>
        <clipPath id="clip0_490_1365">
            <rect width="21" height="24" fill="white" transform="translate(1.49622)" />
        </clipPath>
    </defs>
</svg>