<svg width="24" height="24" viewBox="0 0 24 24" fill="none" xmlns="http://www.w3.org/2000/svg">
    <path
        d="M1.99 18L5.464 4.86H7.354L10.81 18H9.37L8.452 14.436H4.348L3.448 18H1.99ZM4.636 13.212H8.146L7.03 8.82C6.85 8.088 6.706 7.476 6.598 6.984C6.49 6.48 6.424 6.156 6.4 6.012C6.376 6.156 6.31 6.48 6.202 6.984C6.094 7.476 5.95 8.088 5.77 8.82L4.636 13.212ZM16.419 18.18C15.375 18.18 14.553 17.916 13.953 17.388C13.353 16.848 13.053 16.122 13.053 15.21C13.053 14.31 13.347 13.602 13.935 13.086C14.523 12.558 15.315 12.294 16.311 12.294H19.461V11.25C19.461 10.59 19.269 10.08 18.885 9.72C18.501 9.36 17.955 9.18 17.247 9.18C16.623 9.18 16.101 9.318 15.681 9.594C15.273 9.87 15.039 10.242 14.979 10.71H13.539C13.659 9.858 14.055 9.18 14.727 8.676C15.411 8.172 16.263 7.92 17.283 7.92C18.387 7.92 19.263 8.22 19.911 8.82C20.559 9.408 20.883 10.206 20.883 11.214V18H19.479V16.074H19.245L19.515 15.786C19.515 16.518 19.233 17.1 18.669 17.532C18.105 17.964 17.355 18.18 16.419 18.18ZM16.761 17.028C17.553 17.028 18.201 16.83 18.705 16.434C19.209 16.038 19.461 15.522 19.461 14.886V13.392H16.329C15.765 13.392 15.315 13.548 14.979 13.86C14.643 14.172 14.475 14.598 14.475 15.138C14.475 15.714 14.679 16.176 15.087 16.524C15.495 16.86 16.053 17.028 16.761 17.028Z"
        fill="currentColor" />
</svg>