<svg width="24" height="24" viewBox="0 0 24 24" fill="none" xmlns="http://www.w3.org/2000/svg">
    <g clip-path="url(#clip0_711_16838)">
        <path
            d="M7.72969 1.15312C7.36875 0.281246 6.41719 -0.182816 5.50781 0.0656214L1.38281 1.19062C0.567188 1.41562 0 2.15625 0 3C0 14.5969 9.40313 24 21 24C21.8438 24 22.5844 23.4328 22.8094 22.6172L23.9344 18.4922C24.1828 17.5828 23.7187 16.6312 22.8469 16.2703L18.3469 14.3953C17.5828 14.0766 16.6969 14.2969 16.1766 14.9391L14.2828 17.25C10.9828 15.6891 8.31094 13.0172 6.75 9.71718L9.06094 7.82812C9.70313 7.30312 9.92344 6.42187 9.60469 5.65781L7.72969 1.15781V1.15312Z"
            fill="#C9C7B3" />
    </g>
    <defs>
        <clipPath id="clip0_711_16838">
            <rect width="24" height="24" fill="white" />
        </clipPath>
    </defs>
</svg>
    