<svg width="24" height="24" viewBox="0 0 24 24" fill="none" xmlns="http://www.w3.org/2000/svg">
    <path
        d="M22.1115 9.39813C21.7506 7.94969 21.0662 6.85751 19.6084 6.85751H17.7287V9.07938C17.7287 10.8044 16.2662 12.2575 14.5974 12.2575H9.5912C8.22245 12.2575 7.08807 13.4294 7.08807 14.8028V19.5747C7.08807 20.9341 8.26932 21.7309 9.5912 22.12C11.1756 22.5841 12.699 22.6684 14.5974 22.12C15.8584 21.7544 17.1006 21.0184 17.1006 19.5747V17.6669H12.099V17.0294H19.6084C21.0662 17.0294 21.6053 16.0122 22.1115 14.4888C22.6365 12.9184 22.6131 11.4091 22.1115 9.39813ZM14.9115 18.9372C15.4318 18.9372 15.8537 19.3638 15.8537 19.8888C15.8537 20.4184 15.4318 20.845 14.9115 20.845C14.3959 20.845 13.9693 20.4138 13.9693 19.8888C13.974 19.3591 14.3959 18.9372 14.9115 18.9372ZM9.36151 11.6294H14.3678C15.7599 11.6294 16.8709 10.4809 16.8709 9.08407V4.30751C16.8709 2.94813 15.7271 1.93094 14.3678 1.70126C12.6896 1.42469 10.8662 1.43876 9.36151 1.70594C7.24276 2.08094 6.85838 2.86376 6.85838 4.31219V6.22001H11.8693V6.85751H4.9787C3.52088 6.85751 2.24588 7.73407 1.84745 9.39813C1.38807 11.3059 1.36932 12.4966 1.84745 14.4888C2.2037 15.97 3.05213 17.0294 4.50995 17.0294H6.23026V14.7419C6.23026 13.0872 7.65995 11.6294 9.36151 11.6294ZM9.04745 4.94501C8.52713 4.94501 8.10526 4.51844 8.10526 3.99344C8.10995 3.46376 8.52713 3.03719 9.04745 3.03719C9.56307 3.03719 9.98963 3.46844 9.98963 3.99344C9.98963 4.51844 9.56776 4.94501 9.04745 4.94501Z"
        fill="currentColor" />
</svg>