<svg width="24" height="24" viewBox="0 0 24 24" fill="none" xmlns="http://www.w3.org/2000/svg">
    <g clip-path="url(#clip0_420_1762)">
        <path
            d="M23.8322 11.7094L22.8103 11.0719C22.8009 10.9781 22.7962 10.8891 22.7822 10.7953L23.6587 9.97502C23.7015 9.93486 23.7334 9.88449 23.7515 9.82863C23.7695 9.77278 23.7731 9.71326 23.7618 9.65565C23.7506 9.59804 23.7249 9.54423 23.6872 9.49925C23.6495 9.45427 23.601 9.41959 23.5462 9.39846L22.4212 8.97659C22.3978 8.88752 22.3697 8.79846 22.3416 8.71408L23.0447 7.73909C23.0778 7.69126 23.0983 7.63587 23.1044 7.57802C23.1105 7.52017 23.102 7.46171 23.0796 7.40802C23.0572 7.35434 23.0216 7.30715 22.9762 7.27081C22.9308 7.23446 22.877 7.21012 22.8197 7.20002L21.6291 7.00315C21.5869 6.92346 21.5447 6.83909 21.5025 6.7594L22.0041 5.66252C22.0279 5.60885 22.0377 5.55001 22.0326 5.4915C22.0275 5.433 22.0076 5.37675 21.9748 5.32803C21.942 5.27931 21.8974 5.23972 21.8451 5.21296C21.7928 5.18619 21.7346 5.17314 21.6759 5.17502L20.4666 5.21721C20.4103 5.14846 20.3541 5.07971 20.2978 5.01096L20.5744 3.8344C20.5867 3.77766 20.5845 3.71875 20.5682 3.66306C20.5518 3.60736 20.5217 3.55667 20.4806 3.51562C20.4396 3.47457 20.3889 3.44448 20.3332 3.42811C20.2775 3.41173 20.2186 3.4096 20.1619 3.4219L18.9806 3.69846C18.9119 3.64221 18.8431 3.58596 18.7744 3.52971L18.8166 2.32034C18.8184 2.26164 18.8054 2.20343 18.7786 2.15115C18.7519 2.09888 18.7123 2.05425 18.6635 2.02146C18.6148 1.98867 18.5586 1.96878 18.5001 1.96367C18.4416 1.95855 18.3827 1.96837 18.3291 1.99221L17.2322 2.49377C17.1525 2.45159 17.0728 2.4094 16.9884 2.36721L16.7962 1.17659C16.7861 1.1193 16.7618 1.06546 16.7255 1.02005C16.6891 0.974626 16.6419 0.939077 16.5882 0.91667C16.5346 0.894263 16.4761 0.885716 16.4182 0.891818C16.3604 0.897919 16.305 0.918472 16.2572 0.951586L15.2775 1.65471C15.1884 1.62659 15.0994 1.60315 15.015 1.57502L14.5931 0.450023C14.572 0.395264 14.5373 0.346761 14.4923 0.309056C14.4473 0.27135 14.3935 0.245676 14.3359 0.234435C14.2783 0.223195 14.2188 0.226756 14.1629 0.244785C14.1071 0.262815 14.0567 0.294723 14.0166 0.337523L13.1962 1.21409C13.1025 1.20471 13.0134 1.19534 12.9197 1.18596L12.2916 0.164086C12.2603 0.114713 12.217 0.0740518 12.1658 0.0458774C12.1145 0.017703 12.057 0.00292969 11.9986 0.00292969C11.9401 0.00292969 11.8826 0.017703 11.8314 0.0458774C11.7802 0.0740518 11.7369 0.114713 11.7056 0.164086L11.0681 1.18596C10.9744 1.19534 10.8853 1.20002 10.7916 1.21409L9.97593 0.332836C9.93576 0.290036 9.88539 0.258127 9.82954 0.240098C9.77368 0.222068 9.71416 0.218507 9.65656 0.229748C9.59895 0.240988 9.54513 0.266663 9.50015 0.304368C9.45517 0.342073 9.42049 0.390576 9.39936 0.445336L8.97749 1.57034C8.88843 1.59846 8.79936 1.6219 8.7103 1.65002L7.7353 0.946898C7.68747 0.913785 7.63208 0.893232 7.57423 0.88713C7.51638 0.881029 7.45792 0.889575 7.40424 0.911982C7.35056 0.934389 7.30337 0.969938 7.26702 1.01536C7.23067 1.06078 7.20633 1.11461 7.19624 1.1719L6.99936 2.36252C6.91968 2.40471 6.8353 2.4469 6.75561 2.48909L5.66343 1.9969C5.60976 1.97306 5.55091 1.96324 5.49241 1.96835C5.4339 1.97347 5.37766 1.99336 5.32894 2.02615C5.28022 2.05894 5.24062 2.10356 5.21386 2.15584C5.1871 2.20811 5.17405 2.26633 5.17593 2.32502L5.21811 3.5344C5.1478 3.59065 5.07749 3.6469 5.01186 3.70315L3.83061 3.4219C3.77388 3.4096 3.71497 3.41173 3.65927 3.42811C3.60358 3.44448 3.55288 3.47457 3.51183 3.51562C3.47079 3.55667 3.4407 3.60736 3.42432 3.66306C3.40795 3.71875 3.40581 3.77766 3.41811 3.8344L3.69468 5.01565C3.63843 5.08596 3.58218 5.15159 3.52593 5.2219L2.31655 5.17971C2.25751 5.17782 2.19897 5.19103 2.14647 5.2181C2.09397 5.24517 2.04925 5.2852 2.01655 5.3344C1.98423 5.38302 1.96471 5.43902 1.95979 5.4972C1.95488 5.55537 1.96473 5.61385 1.98843 5.66721L2.48999 6.76409C2.4478 6.84377 2.40561 6.92346 2.36343 7.00784L1.1728 7.20002C1.11551 7.21012 1.06168 7.23446 1.01626 7.27081C0.970841 7.30715 0.935293 7.35434 0.912886 7.40802C0.890478 7.46171 0.881932 7.52017 0.888034 7.57802C0.894135 7.63587 0.914688 7.69126 0.947801 7.73909L1.65093 8.71408C1.6228 8.80315 1.59936 8.89221 1.57124 8.98127L0.446239 9.40315C0.391479 9.42428 0.342977 9.45895 0.305272 9.50394C0.267566 9.54892 0.241892 9.60273 0.230651 9.66034C0.21941 9.71795 0.222972 9.77746 0.241001 9.83332C0.259031 9.88918 0.290939 9.93955 0.333739 9.97971L1.2103 10.8C1.20093 10.8938 1.19155 10.9828 1.18218 11.0766L0.160301 11.7094C0.110929 11.7407 0.0702677 11.784 0.0420932 11.8352C0.0139188 11.8864 -0.000854492 11.9439 -0.000854492 12.0024C-0.000854492 12.0608 0.0139188 12.1183 0.0420932 12.1695C0.0702677 12.2208 0.110929 12.264 0.160301 12.2953L1.18218 12.9281C1.19155 13.0219 1.19624 13.111 1.2103 13.2047L0.329051 14.0203C0.286252 14.0605 0.254343 14.1109 0.236314 14.1667C0.218284 14.2226 0.214723 14.2821 0.225963 14.3397C0.237204 14.3973 0.262879 14.4511 0.300584 14.4961C0.338289 14.5411 0.386792 14.5758 0.441551 14.5969L1.56655 15.0188C1.59468 15.1078 1.61811 15.1969 1.64624 15.286L0.943114 16.261C0.910001 16.3088 0.889448 16.3642 0.883346 16.422C0.877245 16.4799 0.885791 16.5383 0.908198 16.592C0.930605 16.6457 0.966154 16.6929 1.01157 16.7292C1.05699 16.7656 1.11082 16.7899 1.16811 16.8L2.35874 16.9969C2.40093 17.0766 2.44311 17.161 2.4853 17.236L1.99311 18.3328C1.96941 18.3862 1.95957 18.4447 1.96448 18.5028C1.9694 18.561 1.98892 18.617 2.02124 18.6656C2.05291 18.7158 2.09743 18.7566 2.15017 18.7838C2.20292 18.811 2.26198 18.8236 2.32124 18.8203L3.53061 18.7781C3.58686 18.8469 3.64311 18.9156 3.69936 18.9844L3.41811 20.1656C3.40581 20.2224 3.40795 20.2813 3.42432 20.337C3.4407 20.3927 3.47079 20.4434 3.51183 20.4844C3.55288 20.5255 3.60358 20.5556 3.65927 20.5719C3.71497 20.5883 3.77388 20.5904 3.83061 20.5781L5.01186 20.3016C5.08061 20.3578 5.14936 20.4141 5.21811 20.4703L5.17593 21.6797C5.17405 21.7384 5.1871 21.7966 5.21386 21.8489C5.24062 21.9012 5.28022 21.9458 5.32894 21.9786C5.37766 22.0114 5.4339 22.0313 5.49241 22.0364C5.55091 22.0415 5.60976 22.0317 5.66343 22.0078L6.7603 21.5063C6.83999 21.5485 6.91968 21.5906 6.99936 21.6328L7.19624 22.8235C7.20516 22.8814 7.22882 22.9361 7.26497 22.9823C7.30111 23.0285 7.34852 23.0646 7.40264 23.0872C7.45676 23.1098 7.51578 23.1181 7.57403 23.1113C7.63229 23.1045 7.68782 23.0829 7.7353 23.0485L8.7103 22.3453C8.79936 22.3735 8.88843 22.3969 8.97749 22.425L9.39936 23.55C9.42049 23.6048 9.45517 23.6533 9.50015 23.691C9.54513 23.7287 9.59895 23.7544 9.65656 23.7656C9.71416 23.7769 9.77368 23.7733 9.82954 23.7553C9.88539 23.7372 9.93576 23.7053 9.97593 23.6625L10.7962 22.786C10.89 22.7953 10.9791 22.8047 11.0728 22.8141L11.7056 23.836C11.7369 23.8853 11.7802 23.926 11.8314 23.9542C11.8826 23.9823 11.9401 23.9971 11.9986 23.9971C12.057 23.9971 12.1145 23.9823 12.1658 23.9542C12.217 23.926 12.2603 23.8853 12.2916 23.836L12.9244 22.8141C13.0181 22.8047 13.1072 22.8 13.2009 22.786L14.0212 23.6625C14.0614 23.7053 14.1118 23.7372 14.1676 23.7553C14.2235 23.7733 14.283 23.7769 14.3406 23.7656C14.3982 23.7544 14.452 23.7287 14.497 23.691C14.542 23.6533 14.5767 23.6048 14.5978 23.55L15.0197 22.425C15.1087 22.3969 15.1978 22.3735 15.2869 22.3453L16.2619 23.0485C16.3093 23.0829 16.3649 23.1045 16.4231 23.1113C16.4814 23.1181 16.5404 23.1098 16.5945 23.0872C16.6486 23.0646 16.6961 23.0285 16.7322 22.9823C16.7683 22.9361 16.792 22.8814 16.8009 22.8235L16.9978 21.6328C17.0775 21.5906 17.1619 21.5485 17.2416 21.5063L18.3384 22.0078C18.3921 22.0317 18.4509 22.0415 18.5094 22.0364C18.5679 22.0313 18.6242 22.0114 18.6729 21.9786C18.7216 21.9458 18.7612 21.9012 18.788 21.8489C18.8148 21.7966 18.8278 21.7384 18.8259 21.6797L18.7837 20.4703C18.8525 20.4141 18.9212 20.3578 18.99 20.3016L20.1619 20.5781C20.2186 20.5904 20.2775 20.5883 20.3332 20.5719C20.3889 20.5556 20.4396 20.5255 20.4806 20.4844C20.5217 20.4434 20.5518 20.3927 20.5682 20.337C20.5845 20.2813 20.5867 20.2224 20.5744 20.1656L20.2978 18.9844C20.3541 18.9156 20.4103 18.8469 20.4666 18.7781L21.6759 18.8203C21.7351 18.8232 21.794 18.8103 21.8467 18.7832C21.8993 18.756 21.9439 18.7155 21.9759 18.6656C22.0082 18.617 22.0278 18.561 22.0327 18.5028C22.0376 18.4447 22.0278 18.3862 22.0041 18.3328L21.5025 17.236C21.5447 17.1563 21.5869 17.0766 21.6291 16.9922L22.8197 16.7953C22.877 16.7852 22.9308 16.7609 22.9762 16.7246C23.0216 16.6882 23.0572 16.641 23.0796 16.5873C23.102 16.5336 23.1105 16.4752 23.1044 16.4173C23.0983 16.3595 23.0778 16.3041 23.0447 16.2563L22.3416 15.2813C22.3697 15.1922 22.3931 15.1031 22.4212 15.0141L23.5462 14.5922C23.601 14.5711 23.6495 14.5364 23.6872 14.4914C23.7249 14.4464 23.7506 14.3926 23.7618 14.335C23.7731 14.2774 23.7695 14.2179 23.7515 14.162C23.7334 14.1062 23.7015 14.0558 23.6587 14.0156L22.7822 13.1953C22.7916 13.1016 22.8009 13.0125 22.8103 12.9188L23.8322 12.286C23.8815 12.2547 23.9222 12.2114 23.9504 12.1602C23.9786 12.109 23.9933 12.0514 23.9933 11.993C23.9933 11.9345 23.9786 11.877 23.9504 11.8258C23.9222 11.7746 23.8815 11.7313 23.8322 11.7V11.7094ZM16.7541 17.761C16.5856 17.7247 16.4097 17.7566 16.2648 17.8497C16.1198 17.9429 16.0177 18.0896 15.9806 18.2578L15.6244 19.9313C14.4717 20.4531 13.2199 20.7199 11.9546 20.7134C10.6894 20.707 9.44039 20.4274 8.29311 19.8938L7.93686 18.2203C7.91904 18.1366 7.8849 18.0572 7.83638 17.9867C7.78786 17.9161 7.72591 17.8559 7.65408 17.8093C7.58225 17.7627 7.50195 17.7307 7.41776 17.7152C7.33357 17.6997 7.24715 17.7009 7.16343 17.7188L5.68686 18.0375C5.41228 17.755 5.15702 17.4543 4.9228 17.1375H12.1041C12.1837 17.1375 12.24 17.1235 12.24 17.0485V14.5125C12.24 14.4375 12.1837 14.4235 12.1041 14.4235H10.0041L10.0087 12.811H12.2775C12.4837 12.811 13.3884 12.8719 13.6744 14.025C13.7634 14.3813 13.965 15.5297 14.1009 15.9C14.2369 16.3125 14.7853 17.1422 15.3712 17.1422H19.0744C18.8267 17.475 18.5557 17.7899 18.2634 18.0844L16.7541 17.761ZM17.9634 19.3781C17.9625 19.5187 17.92 19.6558 17.8414 19.7722C17.7628 19.8887 17.6514 19.9793 17.5214 20.0326C17.3914 20.086 17.2486 20.0997 17.1108 20.072C16.973 20.0444 16.8465 19.9766 16.7471 19.8773C16.6478 19.7779 16.58 19.6514 16.5524 19.5136C16.5247 19.3758 16.5384 19.233 16.5918 19.103C16.6451 18.973 16.7357 18.8616 16.8522 18.783C16.9686 18.7043 17.1057 18.6619 17.2462 18.661H17.265C17.4507 18.6658 17.6271 18.7431 17.7567 18.8762C17.8863 19.0093 17.9588 19.1877 17.9587 19.3735L17.9634 19.3781ZM7.38843 19.3453C7.3875 19.4859 7.34504 19.623 7.2664 19.7394C7.18775 19.8559 7.07643 19.9464 6.94643 19.9998C6.81643 20.0531 6.67356 20.0669 6.53579 20.0392C6.39801 20.0116 6.27149 19.9438 6.17213 19.8444C6.07277 19.7451 6.005 19.6186 5.97736 19.4808C5.94972 19.343 5.96344 19.2001 6.01678 19.0701C6.07013 18.9401 6.16072 18.8288 6.27717 18.7502C6.39362 18.6715 6.53072 18.6291 6.67124 18.6281H6.69468C6.87916 18.6354 7.05375 18.7135 7.1821 18.8462C7.31045 18.9789 7.38267 19.156 7.38374 19.3406L7.38843 19.3453ZM3.25874 10.9781L4.79624 10.2938C4.95395 10.224 5.07755 10.0945 5.13994 9.93365C5.20233 9.77285 5.19841 9.59388 5.12905 9.43596L4.8103 8.71877H6.05718V14.3297H3.54468C3.23471 13.2413 3.13762 12.1033 3.25874 10.9781ZM2.72905 9.28596C2.72843 9.192 2.74641 9.09885 2.78194 9.01186C2.81747 8.92487 2.86985 8.84577 2.93607 8.77911C3.0023 8.71245 3.08105 8.65955 3.1678 8.62345C3.25455 8.58735 3.34759 8.56877 3.44155 8.56877H3.46499C3.60482 8.57337 3.7402 8.61904 3.85424 8.70008C3.96829 8.78111 4.05596 8.89393 4.10631 9.02446C4.15666 9.15499 4.16747 9.29745 4.13739 9.43409C4.1073 9.57072 4.03766 9.69547 3.93715 9.79279C3.83663 9.8901 3.70969 9.95567 3.57216 9.98131C3.43462 10.007 3.29258 9.99155 3.16375 9.937C3.03492 9.88245 2.925 9.79118 2.84769 9.67457C2.77039 9.55796 2.72913 9.42118 2.72905 9.28127V9.28596ZM10.0041 10.4344L10.0087 8.77971H12.9759C13.1306 8.77971 14.0587 8.95784 14.0587 9.65158C14.0587 10.2281 13.3462 10.4344 12.7603 10.4344H10.0041ZM18.6994 14.3766C18.24 14.4281 17.7337 14.1844 17.6681 13.9031C17.3962 12.3797 16.9462 12.0563 16.2337 11.4938C17.1197 10.9313 18.0384 10.1063 18.0384 8.99533C18.0384 7.80002 17.2181 7.04534 16.6603 6.67502C15.8728 6.1594 15.0056 6.05627 14.7712 6.05627H5.4478C6.73774 4.61738 8.46594 3.64372 10.365 3.28596L11.4666 4.43909C11.5254 4.50099 11.596 4.55061 11.6742 4.58509C11.7524 4.61956 11.8366 4.63821 11.922 4.63996C12.0074 4.6417 12.0924 4.6265 12.1719 4.59524C12.2514 4.56399 12.3239 4.51728 12.3853 4.45784L13.6181 3.28596C14.8722 3.52047 16.0602 4.02518 17.0995 4.76504C18.1389 5.5049 19.0047 6.46216 19.6369 7.57034L18.7931 9.47346C18.7247 9.63095 18.7208 9.80897 18.7821 9.96933C18.8435 10.1297 18.9652 10.2596 19.1212 10.3313L20.7431 11.0485C20.7935 11.5548 20.7998 12.0645 20.7619 12.5719H19.8572C19.7681 12.5719 19.7306 12.6328 19.7306 12.7172V13.1297C19.7306 14.1094 19.1822 14.325 18.6994 14.3766ZM11.2462 2.8219C11.2462 2.63293 11.3213 2.4517 11.4549 2.31808C11.5885 2.18446 11.7698 2.1094 11.9587 2.1094H11.9822C12.122 2.114 12.2574 2.15967 12.3714 2.2407C12.4855 2.32174 12.5731 2.43456 12.6235 2.56508C12.6738 2.69561 12.6847 2.83808 12.6546 2.97471C12.6245 3.11134 12.5549 3.2361 12.4543 3.33341C12.3538 3.43073 12.2269 3.49629 12.0893 3.52194C11.9518 3.54759 11.8098 3.53217 11.6809 3.47762C11.5521 3.42308 11.4422 3.33181 11.3649 3.2152C11.2876 3.09859 11.2463 2.9618 11.2462 2.8219ZM20.4712 10.0313C20.2817 10.0313 20.0998 9.95596 19.9658 9.8219C19.8317 9.68784 19.7564 9.50602 19.7564 9.31643C19.7564 9.12684 19.8317 8.94502 19.9658 8.81096C20.0998 8.6769 20.2817 8.60159 20.4712 8.60159H20.49C20.6796 8.60407 20.8604 8.68177 20.9927 8.81759C21.125 8.95341 21.1979 9.13622 21.1955 9.3258C21.193 9.51539 21.1153 9.69623 20.9795 9.82853C20.8436 9.96083 20.6608 10.0338 20.4712 10.0313Z"
            fill="currentColor" />
    </g>
    <defs>
        <clipPath id="clip0_420_1762">
            <rect width="24" height="24" fill="white" transform="translate(-0.00378418)" />
        </clipPath>
    </defs>
</svg>