<svg width="24" height="24" viewBox="0 0 24 24" fill="none" xmlns="http://www.w3.org/2000/svg">
    <path
        d="M2.26364 19H0.490909L5.61818 5.03636H7.36364L12.4909 19H10.7182L6.54545 7.24545H6.43636L2.26364 19ZM2.91818 13.5455H10.0636V15.0455H2.91818V13.5455ZM17.5295 19.2455C16.8659 19.2455 16.2636 19.1205 15.7227 18.8705C15.1818 18.6159 14.7523 18.25 14.4341 17.7727C14.1159 17.2909 13.9568 16.7091 13.9568 16.0273C13.9568 15.4273 14.075 14.9409 14.3114 14.5682C14.5477 14.1909 14.8636 13.8955 15.2591 13.6818C15.6545 13.4682 16.0909 13.3091 16.5682 13.2045C17.05 13.0955 17.5341 13.0091 18.0205 12.9455C18.6568 12.8636 19.1727 12.8023 19.5682 12.7614C19.9682 12.7159 20.2591 12.6409 20.4409 12.5364C20.6273 12.4318 20.7205 12.25 20.7205 11.9909V11.9364C20.7205 11.2636 20.5364 10.7409 20.1682 10.3682C19.8045 9.99545 19.2523 9.80909 18.5114 9.80909C17.7432 9.80909 17.1409 9.97727 16.7045 10.3136C16.2682 10.65 15.9614 11.0091 15.7841 11.3909L14.2568 10.8455C14.5295 10.2091 14.8932 9.71364 15.3477 9.35909C15.8068 9 16.3068 8.75 16.8477 8.60909C17.3932 8.46364 17.9295 8.39091 18.4568 8.39091C18.7932 8.39091 19.1795 8.43182 19.6159 8.51364C20.0568 8.59091 20.4818 8.75227 20.8909 8.99773C21.3045 9.24318 21.6477 9.61364 21.9205 10.1091C22.1932 10.6045 22.3295 11.2682 22.3295 12.1V19H20.7205V17.5818H20.6386C20.5295 17.8091 20.3477 18.0523 20.0932 18.3114C19.8386 18.5705 19.5 18.7909 19.0773 18.9727C18.6545 19.1545 18.1386 19.2455 17.5295 19.2455ZM17.775 17.8C18.4114 17.8 18.9477 17.675 19.3841 17.425C19.825 17.175 20.1568 16.8523 20.3795 16.4568C20.6068 16.0614 20.7205 15.6455 20.7205 15.2091V13.7364C20.6523 13.8182 20.5023 13.8932 20.2705 13.9614C20.0432 14.025 19.7795 14.0818 19.4795 14.1318C19.1841 14.1773 18.8955 14.2182 18.6136 14.2545C18.3364 14.2864 18.1114 14.3136 17.9386 14.3364C17.5205 14.3909 17.1295 14.4795 16.7659 14.6023C16.4068 14.7205 16.1159 14.9 15.8932 15.1409C15.675 15.3773 15.5659 15.7 15.5659 16.1091C15.5659 16.6682 15.7727 17.0909 16.1864 17.3773C16.6045 17.6591 17.1341 17.8 17.775 17.8Z"
        fill="currentColor" />
</svg>    