<svg width="24" height="24" viewBox="0 0 24 24" fill="none" xmlns="http://www.w3.org/2000/svg">
    <path
        d="M2.486 19.09C2.33 19.09 2.204 19.066 2.108 19.018C2.012 18.982 1.964 18.928 1.964 18.856C1.964 18.772 2.012 18.7 2.108 18.64C2.216 18.568 2.366 18.502 2.558 18.442C2.87 18.346 3.158 18.202 3.422 18.01C3.686 17.818 3.914 17.5 4.106 17.056C4.442 16.288 4.748 15.568 5.024 14.896C5.312 14.224 5.582 13.564 5.834 12.916C6.086 12.268 6.344 11.596 6.608 10.9C6.884 10.192 7.172 9.424 7.472 8.596C7.532 8.428 7.586 8.26 7.634 8.092C7.682 7.924 7.712 7.744 7.724 7.552C7.832 7.516 7.94 7.48 8.048 7.444C8.156 7.408 8.264 7.354 8.372 7.282C8.48 7.21 8.552 7.102 8.588 6.958C8.636 6.814 8.678 6.718 8.714 6.67C8.726 6.658 8.738 6.652 8.75 6.652C8.774 6.652 8.792 6.664 8.804 6.688C8.828 6.736 8.846 6.796 8.858 6.868C8.882 6.94 8.906 7.012 8.93 7.084C9.218 7.996 9.518 8.926 9.83 9.874C10.142 10.822 10.442 11.74 10.73 12.628C11.03 13.504 11.3 14.296 11.54 15.004C11.792 15.7 11.99 16.264 12.134 16.696C12.302 17.176 12.482 17.536 12.674 17.776C12.866 18.016 13.064 18.184 13.268 18.28C13.484 18.376 13.712 18.448 13.952 18.496C14.156 18.532 14.306 18.592 14.402 18.676C14.498 18.748 14.546 18.826 14.546 18.91C14.546 18.982 14.498 19.03 14.402 19.054C14.306 19.078 14.18 19.09 14.024 19.09C13.856 19.09 13.628 19.078 13.34 19.054C13.052 19.042 12.746 19.024 12.422 19C12.098 18.988 11.798 18.982 11.522 18.982C11.294 18.982 11.06 18.982 10.82 18.982C10.58 18.982 10.358 18.988 10.154 19C9.95 19 9.776 19 9.632 19C9.476 19 9.35 18.982 9.254 18.946C9.158 18.91 9.11 18.856 9.11 18.784C9.11 18.7 9.17 18.628 9.29 18.568C9.41 18.508 9.548 18.466 9.704 18.442C10.1 18.382 10.382 18.28 10.55 18.136C10.718 17.992 10.802 17.824 10.802 17.632C10.802 17.452 10.76 17.194 10.676 16.858C10.604 16.51 10.514 16.144 10.406 15.76C10.298 15.364 10.196 15.016 10.1 14.716C10.076 14.62 10.028 14.566 9.956 14.554C9.896 14.53 9.782 14.518 9.614 14.518H6.212C6.164 14.518 6.11 14.542 6.05 14.59C6.002 14.626 5.954 14.71 5.906 14.842C5.87 14.962 5.81 15.154 5.726 15.418C5.642 15.67 5.558 15.94 5.474 16.228C5.39 16.516 5.318 16.774 5.258 17.002C5.198 17.23 5.168 17.374 5.168 17.434C5.168 17.698 5.27 17.92 5.474 18.1C5.678 18.268 5.924 18.388 6.212 18.46C6.608 18.568 6.806 18.688 6.806 18.82C6.806 18.892 6.758 18.946 6.662 18.982C6.566 19.006 6.44 19.018 6.284 19.018C6.128 19.018 5.9 19.012 5.6 19C5.3 18.988 4.982 18.982 4.646 18.982C4.25 18.982 3.866 19 3.494 19.036C3.122 19.072 2.786 19.09 2.486 19.09ZM6.698 13.924H9.488C9.656 13.924 9.74 13.894 9.74 13.834C9.74 13.81 9.734 13.786 9.722 13.762C9.722 13.726 9.716 13.69 9.704 13.654L8.3 9.262C8.228 9.046 8.174 8.938 8.138 8.938C8.114 8.938 8.066 9.04 7.994 9.244L6.356 13.654C6.332 13.726 6.32 13.774 6.32 13.798C6.32 13.858 6.35 13.894 6.41 13.906C6.482 13.918 6.578 13.924 6.698 13.924ZM16.5689 19.252C16.3529 19.252 16.1309 19.168 15.9029 19C15.6869 18.832 15.5009 18.628 15.3449 18.388C15.2009 18.148 15.1289 17.92 15.1289 17.704C15.1289 17.32 15.2309 17.02 15.4349 16.804C15.6389 16.588 15.9629 16.39 16.4069 16.21L18.2429 15.454C18.4829 15.358 18.6209 15.274 18.6569 15.202C18.7049 15.13 18.7349 14.974 18.7469 14.734L18.7829 13.582C18.7949 13.27 18.7049 13 18.5129 12.772C18.3329 12.544 18.0689 12.43 17.7209 12.43C17.5409 12.43 17.3609 12.46 17.1809 12.52C17.0009 12.58 16.8509 12.658 16.7309 12.754C16.6589 12.802 16.6109 12.874 16.5869 12.97C16.5629 13.066 16.5509 13.168 16.5509 13.276C16.5509 13.324 16.5509 13.378 16.5509 13.438C16.5629 13.498 16.5689 13.552 16.5689 13.6C16.5689 13.66 16.4909 13.744 16.3349 13.852C16.1909 13.948 16.0229 14.038 15.8309 14.122C15.6509 14.194 15.5009 14.23 15.3809 14.23C15.3209 14.23 15.2729 14.218 15.2369 14.194C15.2009 14.158 15.1829 14.116 15.1829 14.068C15.1829 13.876 15.2429 13.672 15.3629 13.456C15.4949 13.228 15.6749 13.018 15.9029 12.826C16.1789 12.574 16.4789 12.352 16.8029 12.16C17.1269 11.968 17.4449 11.818 17.7569 11.71C18.0689 11.602 18.3449 11.548 18.5849 11.548C19.0169 11.548 19.3709 11.704 19.6469 12.016C19.9349 12.316 20.0729 12.694 20.0609 13.15L19.9709 17.47C19.9589 17.722 20.0129 17.926 20.1329 18.082C20.2649 18.238 20.4269 18.316 20.6189 18.316C20.9189 18.316 21.1409 18.25 21.2849 18.118C21.3449 18.058 21.3929 18.028 21.4289 18.028C21.4889 18.028 21.5369 18.046 21.5729 18.082C21.6089 18.118 21.6269 18.166 21.6269 18.226C21.6269 18.358 21.5609 18.49 21.4289 18.622C21.2369 18.814 21.0269 18.964 20.7989 19.072C20.5829 19.192 20.3789 19.252 20.1869 19.252C19.6349 19.252 19.1969 18.94 18.8729 18.316H18.8189C18.4229 18.64 18.0449 18.874 17.6849 19.018C17.3249 19.174 16.9529 19.252 16.5689 19.252ZM17.4149 18.388C17.6549 18.388 17.8589 18.352 18.0269 18.28C18.1949 18.196 18.3449 18.088 18.4769 17.956C18.5369 17.896 18.5849 17.818 18.6209 17.722C18.6689 17.614 18.6989 17.446 18.7109 17.218L18.7469 16.336C18.7589 16.204 18.7529 16.108 18.7289 16.048C18.7049 15.988 18.6569 15.958 18.5849 15.958C18.5609 15.958 18.5189 15.964 18.4589 15.976C18.3989 15.988 18.3209 16.012 18.2249 16.048C17.5889 16.276 17.1449 16.516 16.8929 16.768C16.6529 17.008 16.5329 17.23 16.5329 17.434C16.5329 17.746 16.6229 17.986 16.8029 18.154C16.9949 18.31 17.1989 18.388 17.4149 18.388Z"
        fill="currentColor" />
</svg>