<svg width="24" height="24" viewBox="0 0 24 24" fill="none" xmlns="http://www.w3.org/2000/svg">
    <g clip-path="url(#clip0_420_1765)">
        <path
            d="M2.99622 1.5C1.34153 1.5 -0.00378418 2.84531 -0.00378418 4.5V7.5C-0.00378418 9.15469 1.34153 10.5 2.99622 10.5H20.9962C22.6509 10.5 23.9962 9.15469 23.9962 7.5V4.5C23.9962 2.84531 22.6509 1.5 20.9962 1.5H2.99622ZM16.1212 4.875C16.4196 4.875 16.7057 4.99353 16.9167 5.2045C17.1277 5.41548 17.2462 5.70163 17.2462 6C17.2462 6.29837 17.1277 6.58452 16.9167 6.7955C16.7057 7.00647 16.4196 7.125 16.1212 7.125C15.8228 7.125 15.5367 7.00647 15.3257 6.7955C15.1147 6.58452 14.9962 6.29837 14.9962 6C14.9962 5.70163 15.1147 5.41548 15.3257 5.2045C15.5367 4.99353 15.8228 4.875 16.1212 4.875ZM18.3712 6C18.3712 5.70163 18.4897 5.41548 18.7007 5.2045C18.9117 4.99353 19.1978 4.875 19.4962 4.875C19.7946 4.875 20.0807 4.99353 20.2917 5.2045C20.5027 5.41548 20.6212 5.70163 20.6212 6C20.6212 6.29837 20.5027 6.58452 20.2917 6.7955C20.0807 7.00647 19.7946 7.125 19.4962 7.125C19.1978 7.125 18.9117 7.00647 18.7007 6.7955C18.4897 6.58452 18.3712 6.29837 18.3712 6ZM2.99622 13.5C1.34153 13.5 -0.00378418 14.8453 -0.00378418 16.5V19.5C-0.00378418 21.1547 1.34153 22.5 2.99622 22.5H20.9962C22.6509 22.5 23.9962 21.1547 23.9962 19.5V16.5C23.9962 14.8453 22.6509 13.5 20.9962 13.5H2.99622ZM16.1212 16.875C16.4196 16.875 16.7057 16.9935 16.9167 17.2045C17.1277 17.4155 17.2462 17.7016 17.2462 18C17.2462 18.2984 17.1277 18.5845 16.9167 18.7955C16.7057 19.0065 16.4196 19.125 16.1212 19.125C15.8228 19.125 15.5367 19.0065 15.3257 18.7955C15.1147 18.5845 14.9962 18.2984 14.9962 18C14.9962 17.7016 15.1147 17.4155 15.3257 17.2045C15.5367 16.9935 15.8228 16.875 16.1212 16.875ZM18.7462 18C18.7462 17.7016 18.8647 17.4155 19.0757 17.2045C19.2867 16.9935 19.5728 16.875 19.8712 16.875C20.1696 16.875 20.4557 16.9935 20.6667 17.2045C20.8777 17.4155 20.9962 17.7016 20.9962 18C20.9962 18.2984 20.8777 18.5845 20.6667 18.7955C20.4557 19.0065 20.1696 19.125 19.8712 19.125C19.5728 19.125 19.2867 19.0065 19.0757 18.7955C18.8647 18.5845 18.7462 18.2984 18.7462 18Z"
            fill="#C9C7B3" />
    </g>
    <defs>
        <clipPath id="clip0_420_1765">
            <rect width="24" height="24" fill="white" transform="translate(-0.00378418)" />
        </clipPath>
    </defs>
</svg>