<svg width="24" height="24" viewBox="0 0 24 24" fill="none" xmlns="http://www.w3.org/2000/svg">
    <path
        d="M8.68054 5.31592C8.68054 5.75135 8.7663 6.18251 8.93293 6.5848C9.09957 6.98708 9.3438 7.35261 9.6517 7.6605C9.95959 7.96839 10.3251 8.21263 10.7274 8.37926C11.1297 8.54589 11.5608 8.63166 11.9963 8.63166C12.4317 8.63166 12.8629 8.54589 13.2652 8.37926C13.6674 8.21263 14.033 7.96839 14.3409 7.6605C14.6488 7.3526 14.893 6.98708 15.0596 6.5848C15.2262 6.18251 15.312 5.75135 15.312 5.31592C15.312 4.88049 15.2262 4.44932 15.0596 4.04704C14.893 3.64476 14.6487 3.27923 14.3409 2.97134C14.033 2.66344 13.6674 2.41921 13.2652 2.25258C12.8629 2.08595 12.4317 2.00018 11.9963 2.00018C11.5608 2.00018 11.1297 2.08595 10.7274 2.25258C10.3251 2.41921 9.95959 2.66345 9.65169 2.97134C9.3438 3.27924 9.09956 3.64476 8.93293 4.04704C8.7663 4.44933 8.68054 4.88049 8.68054 5.31592L8.68054 5.31592Z"
        stroke-width="2.21049" />
    <path
        d="M3.63819 14.049C3.2611 14.2667 2.93058 14.5566 2.66551 14.902C2.40044 15.2475 2.206 15.6417 2.0933 16.0623C1.98061 16.4829 1.95185 16.9216 2.00869 17.3533C2.06552 17.785 2.20683 18.2013 2.42455 18.5784C2.64226 18.9555 2.93212 19.286 3.27757 19.5511C3.62302 19.8161 4.01729 20.0106 4.43788 20.1233C4.85848 20.236 5.29715 20.2647 5.72885 20.2079C6.16055 20.151 6.57684 20.0097 6.95393 19.792C7.33102 19.5743 7.66154 19.2845 7.92661 18.939C8.19168 18.5936 8.38612 18.1993 8.49881 17.7787C8.61151 17.3581 8.64026 16.9194 8.58343 16.4877C8.52659 16.056 8.38528 15.6397 8.16757 15.2626C7.94986 14.8855 7.66 14.555 7.31455 14.29C6.9691 14.0249 6.57482 13.8305 6.15423 13.7178C5.73364 13.6051 5.29497 13.5763 4.86327 13.6331C4.43156 13.69 4.01528 13.8313 3.63819 14.049L3.63819 14.049Z"
        stroke-width="2.21049" />
    <path
        d="M20.3542 14.049C20.7313 14.2667 21.0619 14.5566 21.3269 14.902C21.592 15.2475 21.7864 15.6417 21.8991 16.0623C22.0118 16.4829 22.0406 16.9216 21.9837 17.3533C21.9269 17.785 21.7856 18.2013 21.5679 18.5784C21.3502 18.9555 21.0603 19.286 20.7149 19.5511C20.3694 19.8161 19.9751 20.0106 19.5545 20.1233C19.134 20.236 18.6953 20.2647 18.2636 20.2079C17.8319 20.151 17.4156 20.0097 17.0385 19.792C16.6614 19.5743 16.3309 19.2845 16.0658 18.939C15.8007 18.5936 15.6063 18.1993 15.4936 17.7787C15.3809 17.3581 15.3522 16.9194 15.409 16.4877C15.4658 16.056 15.6071 15.6397 15.8249 15.2626C16.0426 14.8855 16.3324 14.555 16.6779 14.29C17.0233 14.0249 17.4176 13.8305 17.8382 13.7178C18.2588 13.6051 18.6975 13.5763 19.1292 13.6331C19.5609 13.69 19.9772 13.8313 20.3542 14.049L20.3542 14.049Z"
        stroke-width="2.21049" />
    <path fill-rule="evenodd" clip-rule="evenodd"
        d="M8.75738 6.02676C8.7063 5.79393 8.68035 5.55572 8.68035 5.31621C8.68035 4.88078 8.76611 4.44962 8.93274 4.04734C9.012 3.85598 9.10882 3.67295 9.2217 3.50048C8.87193 3.60207 8.52733 3.72298 8.18952 3.86291C6.98267 4.3628 5.8861 5.09551 4.96242 6.0192C4.03873 6.94288 3.30603 8.03945 2.80613 9.2463C2.30624 10.4532 2.04895 11.7467 2.04895 13.0529C2.04895 13.8545 2.14583 14.6512 2.33618 15.4261C2.42911 15.2421 2.53923 15.0667 2.66533 14.9023C2.9304 14.5569 3.26092 14.267 3.63801 14.0493C3.84543 13.9296 4.06471 13.8329 4.29189 13.7607C4.27031 13.5258 4.25944 13.2897 4.25944 13.0529C4.25944 12.0369 4.45956 11.0309 4.84836 10.0922C5.23717 9.15356 5.80705 8.30067 6.52547 7.58225C7.17229 6.93543 7.9281 6.40902 8.75738 6.02676ZM15.2348 6.0267C16.0641 6.40896 16.82 6.93539 17.4668 7.58224C18.1853 8.30066 18.7551 9.15355 19.144 10.0922C19.5328 11.0309 19.7329 12.0369 19.7329 13.0529C19.7329 13.2897 19.722 13.5259 19.7004 13.7608C19.9276 13.833 20.1468 13.9296 20.3542 14.0493C20.7313 14.267 21.0618 14.5569 21.3268 14.9023C21.453 15.0667 21.5631 15.2422 21.6561 15.4263C21.8465 14.6514 21.9434 13.8545 21.9434 13.0529C21.9434 11.7466 21.6861 10.4531 21.1862 9.2463C20.6863 8.03944 19.9536 6.94287 19.0299 6.01919C18.1062 5.09551 17.0096 4.3628 15.8028 3.86291C15.4649 3.72296 15.1203 3.60203 14.7704 3.50043C14.8833 3.67291 14.9802 3.85596 15.0594 4.04733C15.2261 4.44962 15.3118 4.88078 15.3118 5.31621C15.3118 5.5557 15.2859 5.79389 15.2348 6.0267ZM18.8822 20.2314C18.6762 20.2429 18.469 20.2353 18.2635 20.2082C17.8318 20.1514 17.4155 20.0101 17.0384 19.7923C16.8311 19.6727 16.6379 19.5312 16.4619 19.3707C15.9937 19.7016 15.4891 19.9803 14.9569 20.2007C14.0182 20.5895 13.0122 20.7896 11.9962 20.7896C10.9802 20.7896 9.97411 20.5895 9.03545 20.2007C8.5032 19.9803 7.99853 19.7016 7.53031 19.3706C7.35429 19.5312 7.16106 19.6726 6.95375 19.7923C6.57666 20.0101 6.16037 20.1514 5.72867 20.2082C5.52318 20.2353 5.3161 20.2429 5.11015 20.2314C6.0022 21.0871 7.04639 21.7695 8.18953 22.243C9.39638 22.7428 10.6899 23.0001 11.9962 23.0001C13.3024 23.0001 14.5959 22.7428 15.8028 22.243C16.9459 21.7694 17.9901 21.0871 18.8822 20.2314Z"
        fill="#C9C7B3" />
</svg>