<svg width="24" height="24" viewBox="0 0 24 24" fill="none" xmlns="http://www.w3.org/2000/svg">
    <path
        d="M8.68396 5.31592C8.68396 5.75135 8.76972 6.18251 8.93635 6.5848C9.10298 6.98708 9.34722 7.35261 9.65511 7.6605C9.96301 7.96839 10.3285 8.21263 10.7308 8.37926C11.1331 8.54589 11.5643 8.63166 11.9997 8.63166C12.4351 8.63166 12.8663 8.54589 13.2686 8.37926C13.6709 8.21263 14.0364 7.96839 14.3443 7.6605C14.6522 7.3526 14.8964 6.98708 15.063 6.5848C15.2297 6.18251 15.3154 5.75135 15.3154 5.31592C15.3154 4.88049 15.2297 4.44932 15.063 4.04704C14.8964 3.64476 14.6522 3.27923 14.3443 2.97134C14.0364 2.66344 13.6709 2.41921 13.2686 2.25258C12.8663 2.08595 12.4351 2.00018 11.9997 2.00018C11.5643 2.00018 11.1331 2.08595 10.7308 2.25258C10.3285 2.41921 9.96301 2.66345 9.65511 2.97134C9.34722 3.27924 9.10298 3.64476 8.93635 4.04704C8.76972 4.44933 8.68396 4.88049 8.68396 5.31592L8.68396 5.31592Z"
        stroke="#C9C7B3" stroke-width="2.21049" />
    <path
        d="M3.64185 14.049C3.26476 14.2667 2.93424 14.5566 2.66917 14.902C2.4041 15.2475 2.20966 15.6417 2.09697 16.0623C1.98427 16.4829 1.95552 16.9216 2.01235 17.3533C2.06919 17.785 2.21049 18.2013 2.42821 18.5784C2.64592 18.9555 2.93578 19.286 3.28123 19.5511C3.62668 19.8161 4.02095 20.0106 4.44155 20.1233C4.86214 20.236 5.30081 20.2647 5.73251 20.2079C6.16422 20.151 6.5805 20.0097 6.95759 19.792C7.33468 19.5743 7.6652 19.2845 7.93027 18.939C8.19534 18.5936 8.38978 18.1993 8.50248 17.7787C8.61517 17.3581 8.64393 16.9194 8.58709 16.4877C8.53026 16.056 8.38895 15.6397 8.17123 15.2626C7.95352 14.8855 7.66366 14.555 7.31821 14.29C6.97276 14.0249 6.57849 13.8305 6.1579 13.7178C5.7373 13.6051 5.29863 13.5763 4.86693 13.6331C4.43523 13.69 4.01894 13.8313 3.64185 14.049L3.64185 14.049Z"
        stroke="#C9C7B3" stroke-width="2.21049" />
    <path
        d="M20.3581 14.049C20.7352 14.2667 21.0658 14.5566 21.3308 14.902C21.5959 15.2475 21.7903 15.6417 21.903 16.0623C22.0157 16.4829 22.0445 16.9216 21.9876 17.3533C21.9308 17.785 21.7895 18.2013 21.5718 18.5784C21.3541 18.9555 21.0642 19.286 20.7188 19.5511C20.3733 19.8161 19.979 20.0106 19.5585 20.1233C19.1379 20.236 18.6992 20.2647 18.2675 20.2079C17.8358 20.151 17.4195 20.0097 17.0424 19.792C16.6653 19.5743 16.3348 19.2845 16.0697 18.939C15.8047 18.5936 15.6102 18.1993 15.4975 17.7787C15.3848 17.3581 15.3561 16.9194 15.4129 16.4877C15.4697 16.056 15.6111 15.6397 15.8288 15.2626C16.0465 14.8855 16.3363 14.555 16.6818 14.29C17.0272 14.0249 17.4215 13.8305 17.8421 13.7178C18.2627 13.6051 18.7014 13.5763 19.1331 13.6331C19.5648 13.69 19.9811 13.8313 20.3581 14.049L20.3581 14.049Z"
        stroke="#C9C7B3" stroke-width="2.21049" />
    <path fill-rule="evenodd" clip-rule="evenodd"
        d="M8.76116 6.02676C8.71008 5.79393 8.68413 5.55572 8.68413 5.31621C8.68413 4.88078 8.7699 4.44962 8.93653 4.04734C9.01579 3.85598 9.11261 3.67295 9.22548 3.50048C8.87572 3.60207 8.53112 3.72298 8.19331 3.86291C6.98646 4.3628 5.88988 5.09551 4.9662 6.0192C4.04252 6.94288 3.30981 8.03945 2.80992 9.2463C2.31002 10.4532 2.05273 11.7467 2.05273 13.0529C2.05273 13.8545 2.14961 14.6512 2.33997 15.4261C2.4329 15.2421 2.54301 15.0667 2.66911 14.9023C2.93418 14.5569 3.2647 14.267 3.64179 14.0493C3.84922 13.9296 4.06849 13.8329 4.29567 13.7607C4.27409 13.5258 4.26323 13.2897 4.26323 13.0529C4.26323 12.0369 4.46334 11.0309 4.85215 10.0922C5.24095 9.15356 5.81083 8.30067 6.52925 7.58225C7.17607 6.93543 7.93188 6.40902 8.76116 6.02676ZM15.2386 6.0267C16.0679 6.40896 16.8238 6.93539 17.4706 7.58224C18.1891 8.30066 18.7589 9.15355 19.1477 10.0922C19.5365 11.0309 19.7367 12.0369 19.7367 13.0529C19.7367 13.2897 19.7258 13.5259 19.7042 13.7608C19.9313 13.833 20.1506 13.9296 20.3579 14.0493C20.735 14.267 21.0656 14.5569 21.3306 14.9023C21.4568 15.0667 21.5669 15.2422 21.6599 15.4263C21.8503 14.6514 21.9472 13.8545 21.9472 13.0529C21.9472 11.7466 21.6899 10.4531 21.19 9.2463C20.6901 8.03944 19.9574 6.94287 19.0337 6.01919C18.11 5.09551 17.0134 4.3628 15.8066 3.86291C15.4687 3.72296 15.1241 3.60203 14.7742 3.50043C14.8871 3.67291 14.9839 3.85596 15.0632 4.04733C15.2298 4.44962 15.3156 4.88078 15.3156 5.31621C15.3156 5.5557 15.2897 5.79389 15.2386 6.0267ZM18.886 20.2314C18.68 20.2429 18.4728 20.2353 18.2673 20.2082C17.8356 20.1514 17.4193 20.0101 17.0422 19.7923C16.8349 19.6727 16.6417 19.5312 16.4657 19.3707C15.9975 19.7016 15.4929 19.9803 14.9607 20.2007C14.022 20.5895 13.0159 20.7896 11.9999 20.7896C10.9839 20.7896 9.97789 20.5895 9.03923 20.2007C8.50698 19.9803 8.00231 19.7016 7.5341 19.3706C7.35808 19.5312 7.16484 19.6726 6.95753 19.7923C6.58044 20.0101 6.16416 20.1514 5.73245 20.2082C5.52696 20.2353 5.31989 20.2429 5.11394 20.2314C6.00598 21.0871 7.05017 21.7695 8.19331 22.243C9.40016 22.7428 10.6937 23.0001 11.9999 23.0001C13.3062 23.0001 14.5997 22.7428 15.8066 22.243C16.9497 21.7694 17.9939 21.0871 18.886 20.2314Z"
        fill="#C9C7B3" />
</svg>
    