<svg width="24" height="24" viewBox="0 0 24 24" fill="none" xmlns="http://www.w3.org/2000/svg">
    <g clip-path="url(#clip0_420_1763)">
        <path
            d="M2.8884 7.94062L7.64622 20.9719C4.31809 19.3594 2.0259 15.9469 2.0259 12C2.0259 10.5516 2.33528 9.18281 2.8884 7.94062ZM18.7275 11.4984C18.7275 10.2656 18.2868 9.4125 17.9072 8.74688C17.4009 7.92656 16.9275 7.22812 16.9275 6.40781C16.9275 5.48906 17.6212 4.63594 18.6009 4.63594C18.6431 4.63594 18.6853 4.64062 18.7322 4.64531C16.9556 3.01875 14.5931 2.025 11.9962 2.025C8.5134 2.025 5.44778 3.81094 3.66184 6.52031C3.89622 6.52969 4.11653 6.53437 4.30403 6.53437C5.34465 6.53437 6.96184 6.40781 6.96184 6.40781C7.5009 6.375 7.56184 7.16719 7.02747 7.22812C7.02747 7.22812 6.4884 7.28906 5.8884 7.32187L9.52122 18.1219L11.7056 11.5781L10.154 7.32187C9.61497 7.28906 9.10872 7.22812 9.10872 7.22812C8.56965 7.19531 8.63528 6.375 9.16965 6.40781C9.16965 6.40781 10.815 6.53437 11.7947 6.53437C12.8353 6.53437 14.4525 6.40781 14.4525 6.40781C14.9915 6.375 15.0525 7.16719 14.5181 7.22812C14.5181 7.22812 13.979 7.28906 13.379 7.32187L16.9837 18.0422L17.9775 14.7188C18.3993 13.3406 18.7275 12.3516 18.7275 11.4984ZM12.1697 12.8719L9.17903 21.5672C10.0743 21.8297 11.0165 21.975 11.9962 21.975C13.1587 21.975 14.2697 21.7734 15.3056 21.4078C15.2775 21.3656 15.254 21.3187 15.2353 21.2719L12.1697 12.8719ZM20.7478 7.21406C20.79 7.53281 20.8134 7.87031 20.8134 8.24063C20.8134 9.25313 20.6259 10.3875 20.054 11.8125L17.0072 20.6203C19.9743 18.8906 21.9665 15.6797 21.9665 12C21.9665 10.2656 21.5259 8.63437 20.7478 7.21406ZM23.6212 12C23.6212 18.4125 18.404 23.625 11.9962 23.625C5.58372 23.625 0.371216 18.4078 0.371216 12C0.371216 5.5875 5.58372 0.375 11.9962 0.375C18.404 0.375 23.6212 5.5875 23.6212 12ZM23.0868 12C23.0868 5.88281 18.1087 0.909375 11.9962 0.909375C5.87903 0.909375 0.905591 5.88281 0.905591 12C0.905591 18.1172 5.88372 23.0906 11.9962 23.0906C18.1134 23.0906 23.0868 18.1172 23.0868 12Z"
            fill="#C9C7B3" />
    </g>
    <defs>
        <clipPath id="clip0_420_1763">
            <rect width="24" height="24" fill="white" transform="translate(-0.00378418)" />
        </clipPath>
    </defs>
</svg>